BasicallyASansSerif-ExtraBold.ufo
<glyph name="exclamation" format="2">
  <advance width="502.47679492264973"/>
  <unicode hex="0021"/>
  <outline>
    <contour>
      <point x="122.50377" y="411.53708" type="line"/>
      <point x="379.97303" y="411.53708" type="line"/>
      <point x="379.97303" y="1089.66581" type="line"/>
      <point x="122.50377" y="1089.66581" type="line"/>
    </contour>
    <contour>
      <point x="427.97779" y="157.72828" type="curve" smooth="yes"/>
      <point x="427.97779" y="255.2734"/>
      <point x="348.78352" y="334.46767"/>
      <point x="251.2384" y="334.46767" type="curve" smooth="yes"/>
      <point x="153.69327" y="334.46767"/>
      <point x="74.49901" y="255.2734"/>
      <point x="74.49901" y="157.72828" type="curve" smooth="yes"/>
      <point x="74.49901" y="60.18315"/>
      <point x="153.69327" y="-19.01111"/>
      <point x="251.2384" y="-19.01111" type="curve" smooth="yes"/>
      <point x="348.78352" y="-19.01111"/>
      <point x="427.97779" y="60.18315"/>
    </contour>
  </outline>
</glyph>
<glyph name="quote_dbl" format="2">
  <advance width="663.4756097560976"/>
  <unicode hex="0022"/>
  <outline>
    <contour>
      <point x="385.2439" y="737.97256" type="line"/>
      <point x="577.86585" y="737.97256" type="line"/>
      <point x="577.86585" y="1088.23171" type="line"/>
      <point x="385.2439" y="1088.23171" type="line"/>
    </contour>
    <contour>
      <point x="85.60976" y="737.97256" type="line"/>
      <point x="278.23171" y="737.97256" type="line"/>
      <point x="278.23171" y="1088.23171" type="line"/>
      <point x="85.60976" y="1088.23171" type="line"/>
    </contour>
  </outline>
</glyph>
<glyph name="quotedbl" format="2">
  <advance width="755.1219512195121"/>
  <unicode hex="0022"/>
  <outline>
    <contour>
      <point x="430.2439024390244" y="783.6585365853658" type="line"/>
      <point x="667.3170731707316" y="783.6585365853658" type="line"/>
      <point x="667.3170731707316" y="1112.9268292682927" type="line"/>
      <point x="430.2439024390244" y="1112.9268292682927" type="line"/>
    </contour>
    <contour>
      <point x="87.8048780487805" y="783.6585365853658" type="line"/>
      <point x="324.8780487804878" y="783.6585365853658" type="line"/>
      <point x="324.8780487804878" y="1112.9268292682927" type="line"/>
      <point x="87.8048780487805" y="1112.9268292682927" type="line"/>
    </contour>
  </outline>
</glyph>
<glyph name="numbersign" format="2">
  <advance width="951.4207066393553"/>
  <unicode hex="0023"/>
  <outline>
    <contour>
      <point x="76.26795196533203" y="0" type="line"/>
      <point x="313.5962600708008" y="0" type="line"/>
      <point x="357.3560028076172" y="225.12438201904297" type="line"/>
      <point x="469.77462005615234" y="225.12438201904297" type="line"/>
      <point x="426.0148696899414" y="0" type="line"/>
      <point x="663.3431777954102" y="0" type="line"/>
      <point x="707.1029281616211" y="225.12438201904297" type="line"/>
      <point x="871.7540664672852" y="225.12438201904297" type="line"/>
      <point x="871.7540664672852" y="441.2480926513672" type="line"/>
      <point x="749.1131210327148" y="441.2480926513672" type="line"/>
      <point x="789.3828201293945" y="648.4177169799805" type="line"/>
      <point x="954.0339584350586" y="648.4177169799805" type="line"/>
      <point x="954.0339584350586" y="864.5414199829102" type="line"/>
      <point x="831.3930130004883" y="864.5414199829102" type="line"/>
      <point x="875.1527633666992" y="1089.6658096313477" type="line"/>
      <point x="637.8244476318359" y="1089.6658096313477" type="line"/>
      <point x="594.064697265625" y="864.5414199829102" type="line"/>
      <point x="481.64608001708984" y="864.5414199829102" type="line"/>
      <point x="525.4058303833008" y="1089.6658096313477" type="line"/>
      <point x="288.07752227783203" y="1089.6658096313477" type="line"/>
      <point x="244.3177719116211" y="864.5414199829102" type="line"/>
      <point x="79.66664123535156" y="864.5414199829102" type="line"/>
      <point x="79.66664123535156" y="648.4177169799805" type="line"/>
      <point x="202.30758666992188" y="648.4177169799805" type="line"/>
      <point x="162.0378875732422" y="441.2480926513672" type="line"/>
      <point x="-2.613250732421875" y="441.2480926513672" type="line"/>
      <point x="-2.613250732421875" y="225.12438201904297" type="line"/>
      <point x="120.02769470214844" y="225.12438201904297" type="line"/>
    </contour>
    <contour>
      <point x="399.36619567871094" y="441.2480926513672" type="line"/>
      <point x="439.6358947753906" y="648.4177169799805" type="line"/>
      <point x="552.0545043945312" y="648.4177169799805" type="line"/>
      <point x="511.7848129272461" y="441.2480926513672" type="line"/>
    </contour>
  </outline>
</glyph>
<glyph name="dollar" format="2">
  <advance width="917.560975609756"/>
  <unicode hex="0024"/>
  <outline>
    <contour>
      <point x="307.31707000000006" y="768.1097599999999" type="curve"/>
      <point x="307.31707" y="799.5862638007001"/>
      <point x="334.73840192403003" y="827.391764547276"/>
      <point x="376.2987823486328" y="843.4306335449219" type="curve"/>
      <point x="376.2987823486328" y="693.7054672241211" type="line"/>
      <point x="333.5911067651311" y="711.2114172195894"/>
      <point x="307.31707" y="738.4814971289401"/>
    </contour>
    <contour>
      <point x="43.902442932128906" y="325.0609817504883" type="line"/>
      <point x="43.90244" y="160.67625293173998"/>
      <point x="186.6268330951063" y="23.129917549772813"/>
      <point x="376.2987823486328" y="-8.264381408691406" type="curve"/>
      <point x="376.2987823486328" y="-105.36585235595703" type="line"/>
      <point x="541.2621994018555" y="-105.36585235595703" type="line"/>
      <point x="541.2621994018555" y="-8.265129089355469" type="line"/>
      <point x="730.934139217427" y="23.12991754977282"/>
      <point x="873.6585399999999" y="160.67625293173998"/>
      <point x="873.6585399999999" y="325.06098" type="curve"/>
      <point x="873.65854" y="483.53846867872"/>
      <point x="736.0984410804973" y="621.4268832521261"/>
      <point x="541.2621994018555" y="658.9164505004883" type="curve"/>
      <point x="541.2621994018555" y="843.4254760742188" type="line"/>
      <point x="582.82256807597" y="827.391764547276"/>
      <point x="610.2439" y="799.5862638007001"/>
      <point x="610.2439" y="768.10976" type="curve"/>
      <point x="847.3170700073242" y="768.1097564697266" type="line"/>
      <point x="847.31707" y="924.5901404122"/>
      <point x="716.2570862492112" y="1055.7406258254819"/>
      <point x="541.2621994018555" y="1087.6051940917969" type="curve"/>
      <point x="541.2621994018555" y="1185.365852355957" type="line"/>
      <point x="376.2987823486328" y="1185.365852355957" type="line"/>
      <point x="376.2987823486328" y="1087.6088256835938" type="line"/>
      <point x="201.30389128728567" y="1055.7406258254819"/>
      <point x="70.24389999999994" y="924.5901404122"/>
      <point x="70.24390000000002" y="768.10976" type="curve"/>
      <point x="70.2439" y="615.9351959100101"/>
      <point x="197.03146702747074" y="483.69697259458644"/>
      <point x="376.2987823486328" y="447.5060348510742" type="curve"/>
      <point x="376.2987823486328" y="233.82275390625" type="line"/>
      <point x="319.5710153913006" y="251.06530225168714"/>
      <point x="280.97561" y="285.54255172676"/>
      <point x="280.97561" y="325.06098" type="curve"/>
    </contour>
    <contour>
      <point x="636.58537" y="325.0609799999999" type="curve"/>
      <point x="636.58537" y="285.54255172676"/>
      <point x="597.9899646086994" y="251.06530225168717"/>
      <point x="541.2621994018555" y="233.8303451538086" type="curve"/>
      <point x="541.2621994018555" y="414.52161407470703" type="line"/>
      <point x="599.9866542090626" y="394.71308410678"/>
      <point x="636.58537" y="361.40230340339997"/>
    </contour>
  </outline>
</glyph>
<glyph name="percent" format="2">
  <advance width="1356.7421602787458"/>
  <unicode hex="0025"/>
  <outline>
    <contour>
      <point x="616.98606" y="814.53542" type="curve" smooth="yes"/>
      <point x="616.98606" y="975.71096"/>
      <point x="486.13198" y="1106.56504"/>
      <point x="324.95645" y="1106.56504" type="curve" smooth="yes"/>
      <point x="163.78091" y="1106.56504"/>
      <point x="32.92683" y="975.71096"/>
      <point x="32.92683" y="814.53542" type="curve" smooth="yes"/>
      <point x="32.92683" y="653.35989"/>
      <point x="163.78091" y="522.50581"/>
      <point x="324.95645" y="522.50581" type="curve" smooth="yes"/>
      <point x="486.13198" y="522.50581"/>
      <point x="616.98606" y="653.35989"/>
    </contour>
    <contour>
      <point x="159.80262" y="0.0" type="line"/>
      <point x="395.35862" y="0.0" type="line"/>
      <point x="1196.93954" y="1088.23171" type="line"/>
      <point x="961.38354" y="1088.23171" type="line"/>
    </contour>
    <contour>
      <point x="379.91289" y="814.53542" type="curve" smooth="yes"/>
      <point x="379.91289" y="784.20414"/>
      <point x="355.28773" y="759.57898"/>
      <point x="324.95645" y="759.57898" type="curve" smooth="yes"/>
      <point x="294.62516" y="759.57898"/>
      <point x="270.0" y="784.20414"/>
      <point x="270.0" y="814.53542" type="curve" smooth="yes"/>
      <point x="270.0" y="844.86671"/>
      <point x="294.62516" y="869.49187"/>
      <point x="324.95645" y="869.49187" type="curve" smooth="yes"/>
      <point x="355.28773" y="869.49187"/>
      <point x="379.91289" y="844.86671"/>
    </contour>
    <contour>
      <point x="1323.81533" y="273.69628" type="curve" smooth="yes"/>
      <point x="1323.81533" y="434.87182"/>
      <point x="1192.96125" y="565.7259"/>
      <point x="1031.78571" y="565.7259" type="curve" smooth="yes"/>
      <point x="870.61018" y="565.7259"/>
      <point x="739.7561" y="434.87182"/>
      <point x="739.7561" y="273.69628" type="curve" smooth="yes"/>
      <point x="739.7561" y="112.52075"/>
      <point x="870.61018" y="-18.33333"/>
      <point x="1031.78571" y="-18.33333" type="curve" smooth="yes"/>
      <point x="1192.96125" y="-18.33333"/>
      <point x="1323.81533" y="112.52075"/>
    </contour>
    <contour>
      <point x="1086.74216" y="273.69628" type="curve" smooth="yes"/>
      <point x="1086.74216" y="243.365"/>
      <point x="1062.117" y="218.73984"/>
      <point x="1031.78571" y="218.73984" type="curve" smooth="yes"/>
      <point x="1001.45443" y="218.73984"/>
      <point x="976.82927" y="243.365"/>
      <point x="976.82927" y="273.69628" type="curve" smooth="yes"/>
      <point x="976.82927" y="304.02757"/>
      <point x="1001.45443" y="328.65273"/>
      <point x="1031.78571" y="328.65273" type="curve" smooth="yes"/>
      <point x="1062.117" y="328.65273"/>
      <point x="1086.74216" y="304.02757"/>
    </contour>
  </outline>
</glyph>
<glyph name="ampersand" format="2">
  <advance width="1076.1099797690717"/>
  <unicode hex="0026"/>
  <outline>
    <contour>
      <point x="429.1809589966216" y="770.1774008700041" type="line"/>
      <point x="422.43574854156475" y="778.1805062509598"/>
      <point x="411.14634" y="791.8302203808823"/>
      <point x="411.14634" y="812.4187" type="curve"/>
      <point x="411.14634" y="843.91824"/>
      <point x="436.71997" y="869.49187"/>
      <point x="468.21951" y="869.49187" type="curve" smooth="yes"/>
      <point x="499.71905000000004" y="869.49187"/>
      <point x="525.29268" y="843.91824"/>
      <point x="525.29268" y="812.4187" type="curve"/>
      <point x="525.29268" y="779.1678395189647"/>
      <point x="498.61229254945675" y="764.0517754849225"/>
      <point x="489.8135651516546" y="759.1244183897879" type="curve"/>
      <point x="454.9512710571289" y="739.6012573242188" type="line"/>
    </contour>
    <contour>
      <point x="348.8602929583681" y="408.7152434420078" type="curve"/>
      <point x="399.8108901977539" y="437.1597900390625" type="line"/>
      <point x="528.3843383789062" y="284.6090545654297" type="line"/>
      <point x="503.56613" y="244.59308999999996"/>
      <point x="457.04538" y="218.73984"/>
      <point x="406.97561" y="218.73984" type="curve"/>
      <point x="338.59146999999996" y="218.73984"/>
      <point x="283.17073" y="261.02522999999997"/>
      <point x="283.17073" y="318.8374" type="curve"/>
      <point x="283.17073" y="370.89433415497075"/>
      <point x="326.28508469005743" y="396.1120238858337"/>
    </contour>
    <contour>
      <point x="611.0408325195312" y="555.1600284576416" type="line"/>
      <point x="701.43128" y="605.77069"/>
      <point x="762.36585" y="702.03483"/>
      <point x="762.36585" y="812.4187" type="curve"/>
      <point x="762.36585" y="974.76248"/>
      <point x="630.5633" y="1106.56504"/>
      <point x="468.21951" y="1106.56504" type="curve" smooth="yes"/>
      <point x="305.87572999999986" y="1106.56504"/>
      <point x="174.07317" y="974.7624800000001"/>
      <point x="174.07317" y="812.4187" type="curve"/>
      <point x="174.07317" y="705.8886195930646"/>
      <point x="230.6738910499802" y="637.8386457480474"/>
      <point x="243.30337" y="622.85393" type="curve"/>
      <point x="244.35187530517578" y="621.6098861694336" type="line"/>
      <point x="230.146315253781" y="613.6080911981345" type="line"/>
      <point x="142.88212133785257" y="564.4533809632234"/>
      <point x="46.09756000000001" y="468.3864343421592"/>
      <point x="46.09756" y="318.8374" type="curve"/>
      <point x="46.097560000000016" y="130.18436999999992"/>
      <point x="207.74439999999993" y="-18.333329999999975"/>
      <point x="406.97561" y="-18.33333" type="curve"/>
      <point x="512.67023549248" y="-18.33333"/>
      <point x="612.3661507748599" y="25.364962393725804"/>
      <point x="683.689826965332" y="100.34111022949219" type="curve"/>
      <point x="768.2597427368164" y="0" type="line"/>
      <point x="1078.3050994873047" y="0" type="line"/>
      <point x="820.7013626098633" y="305.6435012817383" type="line"/>
      <point x="999.1192016601562" y="592.5627212524414" type="line"/>
      <point x="719.9475479125977" y="592.5627212524414" type="line"/>
      <point x="660.0552368164062" y="496.24805450439453" type="line"/>
    </contour>
  </outline>
</glyph>
<glyph name="quote" format="2">
  <advance width="363.8414634146342"/>
  <unicode hex="0027"/>
  <outline>
    <contour>
      <point x="85.60976" y="737.97256" type="line"/>
      <point x="278.23171" y="737.97256" type="line"/>
      <point x="278.23171" y="1088.23171" type="line"/>
      <point x="85.60976" y="1088.23171" type="line"/>
    </contour>
  </outline>
</glyph>
<glyph name="quotesingle" format="2">
  <advance width="412.6829268292683"/>
  <unicode hex="0027"/>
  <outline>
    <contour>
      <point x="87.8048780487805" y="783.6585365853658" type="line"/>
      <point x="324.8780487804878" y="783.6585365853658" type="line"/>
      <point x="324.8780487804878" y="1112.9268292682927" type="line"/>
      <point x="87.8048780487805" y="1112.9268292682927" type="line"/>
    </contour>
  </outline>
</glyph>
<glyph name="parenleft" format="2">
  <advance width="662.478360460086"/>
  <unicode hex="0028"/>
  <outline>
    <contour>
      <point x="636.1369" y="-237.07317" type="line"/>
      <point x="262.10071" y="233.23574"/>
      <point x="262.10071" y="899.44718"/>
      <point x="636.1369" y="1369.7561" type="curve"/>
      <point x="346.75165" y="1369.7561" type="line"/>
      <point x="42.4648" y="878.18788"/>
      <point x="42.4649" y="254.49417"/>
      <point x="346.75194" y="-237.07317" type="curve"/>
    </contour>
  </outline>
</glyph>
<glyph name="parenright" format="2">
  <advance width="578.6397868830983"/>
  <unicode hex="0029"/>
  <outline>
    <contour>
      <point x="26.34146" y="-118.53659" type="curve"/>
      <point x="298.02061" y="-118.53659" type="line"/>
      <point x="514.13086" y="312.15549"/>
      <point x="514.13073" y="820.52793"/>
      <point x="298.02021" y="1251.21951" type="curve"/>
      <point x="26.34147" y="1251.21951" type="line"/>
      <point x="288.59289" y="832.29184"/>
      <point x="288.59289" y="300.39109"/>
    </contour>
  </outline>
</glyph>
<glyph name="asterisk" format="2">
  <advance width="857.3975798622982"/>
  <unicode hex="002A"/>
  <outline>
    <contour>
      <point x="310.1622009277344" y="368.7804870605469" type="line"/>
      <point x="547.2353744506836" y="368.7804870605469" type="line"/>
      <point x="547.2353744506836" y="519.078857421875" type="line"/>
      <point x="677.3975830078125" y="443.92967224121094" type="line"/>
      <point x="795.9341659545898" y="649.2410583496094" type="line"/>
      <point x="665.7719573974609" y="724.3902435302734" type="line"/>
      <point x="795.9341659545898" y="799.5394287109375" type="line"/>
      <point x="677.3975830078125" y="1004.8508148193359" type="line"/>
      <point x="547.2353744506836" y="929.7016296386719" type="line"/>
      <point x="547.2353744506836" y="1080" type="line"/>
      <point x="310.1622009277344" y="1080" type="line"/>
      <point x="310.1622009277344" y="929.7016296386719" type="line"/>
      <point x="180" y="1004.8508148193359" type="line"/>
      <point x="61.463417053222656" y="799.5394287109375" type="line"/>
      <point x="191.62562561035156" y="724.3902435302734" type="line"/>
      <point x="61.463417053222656" y="649.2410583496094" type="line"/>
      <point x="180" y="443.92967224121094" type="line"/>
      <point x="310.1622009277344" y="519.078857421875" type="line"/>
    </contour>
  </outline>
</glyph>
<glyph name="plus" format="2">
  <advance width="1010.620388734629"/>
  <unicode hex="002B"/>
  <outline>
    <contour>
      <point x="74.49900817871094" y="368.42523193359375" type="line"/>
      <point x="376.57556915283203" y="368.42523193359375" type="line"/>
      <point x="376.57556915283203" y="66.34867095947266" type="line"/>
      <point x="634.0448226928711" y="66.34867095947266" type="line"/>
      <point x="634.0448226928711" y="368.42523193359375" type="line"/>
      <point x="936.1213836669922" y="368.42523193359375" type="line"/>
      <point x="936.1213836669922" y="625.8944931030273" type="line"/>
      <point x="634.0448226928711" y="625.8944931030273" type="line"/>
      <point x="634.0448226928711" y="927.9710388183594" type="line"/>
      <point x="376.57556915283203" y="927.9710388183594" type="line"/>
      <point x="376.57556915283203" y="625.8944931030273" type="line"/>
      <point x="74.49900817871094" y="625.8944931030273" type="line"/>
    </contour>
  </outline>
</glyph>
<glyph name="comma" format="2">
  <advance width="451.5662272613144"/>
  <unicode hex="002C"/>
  <outline>
    <contour>
      <point x="262.38455963134766" y="-260.1219482421875" type="line"/>
      <point x="331.36540078929943" y="-140.64362059635442"/>
      <point x="346.2003696406485" y="-25.341426442422303"/>
      <point x="346.2003700921127" y="72.68293" type="curve"/>
      <point x="346.2003707885742" y="223.9024429321289" type="line"/>
      <point x="109.127197265625" y="223.9024429321289" type="line"/>
      <point x="109.127197265625" y="72.68292999267578" type="line"/>
      <point x="109.127197265625" y="3.0340184628712024"/>
      <point x="100.13792574486901" y="-66.99502291221748"/>
      <point x="57.07317" y="-141.58537" type="curve"/>
    </contour>
  </outline>
</glyph>
<glyph name="hyphen" format="2">
  <advance width="847.3170731707316"/>
  <unicode hex="002D"/>
  <outline>
    <contour>
      <point x="87.80488" y="377.56098" type="line"/>
      <point x="759.5122" y="377.56098" type="line"/>
      <point x="759.5122" y="614.63415" type="line"/>
      <point x="87.80488" y="614.63415" type="line"/>
    </contour>
  </outline>
</glyph>
<glyph name="period" format="2">
  <advance width="445.1707317073171"/>
  <unicode hex="002E"/>
  <outline>
    <contour>
      <point x="372.73171" y="131.81301" type="curve" smooth="yes"/>
      <point x="372.73171" y="214.68103"/>
      <point x="305.45339" y="281.95935"/>
      <point x="222.58537" y="281.95935" type="curve" smooth="yes"/>
      <point x="139.71734" y="281.95935"/>
      <point x="72.43902" y="214.68103"/>
      <point x="72.43902" y="131.81301" type="curve" smooth="yes"/>
      <point x="72.43902" y="48.94499"/>
      <point x="139.71734" y="-18.33333"/>
      <point x="222.58537" y="-18.33333" type="curve" smooth="yes"/>
      <point x="305.45339" y="-18.33333"/>
      <point x="372.73171" y="48.94499"/>
    </contour>
  </outline>
</glyph>
<glyph name="slash" format="2">
  <advance width="906.1110246553853"/>
  <unicode hex="002F"/>
  <outline>
    <contour>
      <point x="87.8048780487805" y="-52.68292682926829" type="line"/>
      <point x="340.0928767918504" y="-52.68292682926829" type="line"/>
      <point x="857.8183417285561" y="1369.7560975609756" type="line"/>
      <point x="605.5303429854862" y="1369.7560975609756" type="line"/>
    </contour>
  </outline>
</glyph>
<glyph name="zero" format="2">
  <advance width="960.0224752082509"/>
  <unicode hex="0030"/>
  <outline>
    <contour>
      <point x="637.0370633768321" y="402.586669921875" type="line"/>
      <point x="637.0370648149161" y="272.91313392393727"/>
      <point x="552.3283534062276" y="225.56084"/>
      <point x="480.01124" y="225.56084" type="curve"/>
      <point x="407.69412659377235" y="225.56084"/>
      <point x="322.98540912203157" y="272.9131339629997"/>
      <point x="322.9854101601058" y="402.58667" type="curve"/>
      <point x="322.98541243755045" y="687.0791397094727" type="line"/>
      <point x="322.9854134756247" y="816.7526757074104"/>
      <point x="407.69412659377235" y="864.10496"/>
      <point x="480.01124" y="864.10496" type="curve"/>
      <point x="552.3283534062276" y="864.10496"/>
      <point x="637.0370587837167" y="816.7526760370004"/>
      <point x="637.0370602218007" y="687.07914" type="curve"/>
    </contour>
    <contour>
      <point x="61.6469724925328" y="402.586669921875" type="line"/>
      <point x="61.646975064899976" y="88.34148427716798"/>
      <point x="290.5811458864831" y="-19.011109999999974"/>
      <point x="480.01124" y="-19.01111" type="curve"/>
      <point x="669.4413291135169" y="-19.01111"/>
      <point x="898.375508939574" y="88.34148431623049"/>
      <point x="898.3755100720776" y="402.58667" type="curve"/>
      <point x="898.3755110973559" y="687.0791397094727" type="line"/>
      <point x="898.3755122298595" y="1001.3243253541797"/>
      <point x="669.4413341135169" y="1108.67692"/>
      <point x="480.01124" y="1108.67692" type="curve"/>
      <point x="290.5811508864831" y="1108.67692"/>
      <point x="61.64696759135006" y="1001.3243256837695"/>
      <point x="61.64697016371721" y="687.07914" type="curve"/>
    </contour>
  </outline>
</glyph>
<glyph name="one" format="2">
  <advance width="777.0731707317074"/>
  <unicode hex="0031"/>
  <outline>
    <contour>
      <point x="340.243896484375" y="0" type="line"/>
      <point x="577.3170700073242" y="0" type="line"/>
      <point x="577.3170700073242" y="1088.2317123413086" type="line"/>
      <point x="340.243896484375" y="1088.2317123413086" type="line"/>
      <point x="116.34146118164062" y="958.9615707397461" type="line"/>
      <point x="116.34146118164062" y="685.2130584716797" type="line"/>
      <point x="340.243896484375" y="814.4831924438477" type="line"/>
    </contour>
  </outline>
</glyph>
<glyph name="two" format="2">
  <advance width="913.170731707317"/>
  <unicode hex="0032"/>
  <outline>
    <contour>
      <point x="105.36585235595703" y="0" type="line"/>
      <point x="834.1463394165039" y="0" type="line"/>
      <point x="834.1463394165039" y="237.07317352294922" type="line"/>
      <point x="471.0477828979492" y="237.07317352294922" type="line"/>
      <point x="686.9041637669817" y="420.8715143902266" type="line"/>
      <point x="725.3826847867932" y="453.63537475884374"/>
      <point x="834.14634" y="551.6224965696472"/>
      <point x="834.14634" y="719.63415" type="curve"/>
      <point x="834.14634" y="926.8042"/>
      <point x="665.95054" y="1095.0"/>
      <point x="458.78049" y="1095.0" type="curve" smooth="yes"/>
      <point x="251.61044" y="1095.0"/>
      <point x="83.41463" y="926.8042"/>
      <point x="83.41463" y="719.63415" type="curve"/>
      <point x="320.48780059814453" y="719.634147644043" type="line"/>
      <point x="320.4878" y="795.95996"/>
      <point x="382.45468" y="857.92683"/>
      <point x="458.78049" y="857.92683" type="curve" smooth="yes"/>
      <point x="535.1063" y="857.92683"/>
      <point x="597.07317" y="795.95996"/>
      <point x="597.07317" y="719.63415" type="curve"/>
      <point x="597.07317" y="657.103391120769"/>
      <point x="555.1707985373674" y="620.0750599258289"/>
      <point x="535.2465301284574" y="603.1098565624756" type="curve"/>
      <point x="105.36585235595703" y="237.07317352294922" type="line"/>
    </contour>
  </outline>
</glyph>
<glyph name="three" format="2">
  <advance width="921.9512195121952"/>
  <unicode hex="0033"/>
  <outline>
    <contour>
      <point x="74.63414764404297" y="329.1038131713867" type="line"/>
      <point x="74.63415" y="139.18775"/>
      <point x="248.73155" y="-15.0"/>
      <point x="463.17073" y="-15.0" type="curve" smooth="yes"/>
      <point x="677.60991" y="-15.0"/>
      <point x="851.70732" y="139.18775"/>
      <point x="851.70732" y="329.10381" type="curve"/>
      <point x="851.70732" y="417.46605523619996"/>
      <point x="814.0193789713978" y="498.09397265941516"/>
      <point x="752.1154327392578" y="559.0434799194336" type="curve"/>
      <point x="803.4195345299692" y="615.5482060614177"/>
      <point x="834.1463399999999" y="687.3963757718"/>
      <point x="834.1463399999999" y="765.56723" type="curve"/>
      <point x="834.14634" y="947.38612"/>
      <point x="667.91774" y="1095.0"/>
      <point x="463.17073" y="1095.0" type="curve" smooth="yes"/>
      <point x="258.42372" y="1095.0"/>
      <point x="92.19512" y="947.38612"/>
      <point x="92.19512" y="765.56723" type="curve"/>
      <point x="329.2682876586914" y="765.5672302246094" type="line"/>
      <point x="329.26829" y="816.54188"/>
      <point x="389.26796" y="857.92683"/>
      <point x="463.17073" y="857.92683" type="curve" smooth="yes"/>
      <point x="537.0735" y="857.92683"/>
      <point x="597.07317" y="816.54188"/>
      <point x="597.07317" y="765.56723" type="curve"/>
      <point x="597.07317" y="714.59258"/>
      <point x="537.0735" y="673.20762"/>
      <point x="463.17073" y="673.20762" type="curve"/>
      <point x="344.63414764404297" y="673.2076187133789" type="line"/>
      <point x="344.63414764404297" y="436.1344528198242" type="line"/>
      <point x="463.1707305908203" y="436.1344528198242" type="line"/>
      <point x="546.76567" y="436.13445"/>
      <point x="614.63415" y="388.17563"/>
      <point x="614.63415" y="329.10381" type="curve"/>
      <point x="614.63415" y="270.03199"/>
      <point x="546.76567" y="222.07317"/>
      <point x="463.17073" y="222.07317" type="curve" smooth="yes"/>
      <point x="379.5758" y="222.07317"/>
      <point x="311.70732" y="270.03199"/>
      <point x="311.70732" y="329.10381" type="curve"/>
    </contour>
  </outline>
</glyph>
<glyph name="four" format="2">
  <advance width="999.460531535105"/>
  <unicode hex="0034"/>
  <outline>
    <contour>
      <point x="57.362953186035156" y="195.57067108154297" type="line"/>
      <point x="556.8484191894531" y="195.57067108154297" type="line"/>
      <point x="556.8484191894531" y="0" type="line"/>
      <point x="798.8409118652344" y="0" type="line"/>
      <point x="798.8409118652344" y="195.57067108154297" type="line"/>
      <point x="967.8016662597656" y="195.57067108154297" type="line"/>
      <point x="967.8016662597656" y="425.4411315917969" type="line"/>
      <point x="798.8409118652344" y="425.4411315917969" type="line"/>
      <point x="798.8409118652344" y="1089.6658096313477" type="line"/>
      <point x="525.0339813232422" y="1089.6658096313477" type="line"/>
      <point x="57.362953186035156" y="419.38011932373047" type="line"/>
    </contour>
    <contour>
      <point x="336.1584930419922" y="425.4411315917969" type="line"/>
      <point x="556.8484191894531" y="751.3316421508789" type="line"/>
      <point x="556.8484191894531" y="425.4411315917969" type="line"/>
    </contour>
  </outline>
</glyph>
<glyph name="five" format="2">
  <advance width="895.4371251700559"/>
  <unicode hex="0035"/>
  <outline>
    <contour>
      <point x="73.95429992675781" y="424.7457275390625" type="line"/>
      <point x="321.31781005859375" y="424.7457275390625" type="line"/>
      <point x="344.0486" y="468.55615"/>
      <point x="389.81665" y="498.50023"/>
      <point x="442.52332" y="498.50023" type="curve" smooth="yes"/>
      <point x="517.843" y="498.50023"/>
      <point x="578.99302" y="437.35021"/>
      <point x="578.99302" y="362.03054" type="curve"/>
      <point x="578.99302" y="286.71086"/>
      <point x="517.843" y="225.56084"/>
      <point x="442.52332" y="225.56084" type="curve"/>
      <point x="386.44496" y="225.56084"/>
      <point x="338.22137" y="259.45855"/>
      <point x="317.24248" y="307.88338" type="curve"/>
      <point x="61.64697265625" y="307.8833770751953" type="line"/>
      <point x="86.11111" y="115.57936"/>
      <point x="240.48199" y="-19.01111"/>
      <point x="442.52332" y="-19.01111" type="curve"/>
      <point x="663.1981900000001" y="-19.01111"/>
      <point x="842.35819" y="141.3556699999999"/>
      <point x="842.35819" y="362.03054" type="curve"/>
      <point x="842.35819" y="568.4926600000001"/>
      <point x="674.7371300000001" y="726.9022"/>
      <point x="468.27501" y="726.9022" type="curve" smooth="yes"/>
      <point x="427.38049723986" y="726.9022"/>
      <point x="388.6637127291835" y="720.1599336231028"/>
      <point x="352.92662811279297" y="707.7161560058594" type="curve"/>
      <point x="377.1802978515625" y="845.0938491821289" type="line"/>
      <point x="800.9845809936523" y="845.0938491821289" type="line"/>
      <point x="800.9845809936523" y="1089.6658096313477" type="line"/>
      <point x="179.26730346679688" y="1089.6658096313477" type="line"/>
    </contour>
  </outline>
</glyph>
<glyph name="six" format="2">
  <advance width="891.2195121951221"/>
  <unicode hex="0036"/>
  <outline>
    <contour>
      <point x="834.14634" y="373.53659" type="curve" smooth="yes"/>
      <point x="834.14634" y="569.4904602284901"/>
      <point x="688.7706576645523" y="731.7579540392443"/>
      <point x="500.0807800292969" y="758.273567199707" type="curve"/>
      <point x="693.3935165405273" y="1080" type="line"/>
      <point x="416.8160400390625" y="1080" type="line"/>
      <point x="122.87331849333798" y="590.7888698490419" type="line"/>
      <point x="92.24954608615803" y="539.8214901159406"/>
      <point x="57.073170000000026" y="470.9777765422735"/>
      <point x="57.07317000000002" y="373.53659" type="curve" smooth="yes"/>
      <point x="57.07316999999998" y="159.09740999999983"/>
      <point x="231.17058999999986" y="-14.999999999999973"/>
      <point x="445.60976" y="-15.0" type="curve" smooth="yes"/>
      <point x="660.04893" y="-15.0"/>
      <point x="834.14634" y="159.09741"/>
    </contour>
    <contour>
      <point x="597.07317" y="373.53659" type="curve" smooth="yes"/>
      <point x="597.07317" y="289.94165"/>
      <point x="529.20469" y="222.07317"/>
      <point x="445.60976" y="222.07317" type="curve" smooth="yes"/>
      <point x="362.01482" y="222.07317"/>
      <point x="294.14634" y="289.94165"/>
      <point x="294.14634" y="373.53659" type="curve" smooth="yes"/>
      <point x="294.14634" y="457.13152"/>
      <point x="362.01482" y="525.0"/>
      <point x="445.60976" y="525.0" type="curve" smooth="yes"/>
      <point x="529.20469" y="525.0"/>
      <point x="597.07317" y="457.13152"/>
    </contour>
  </outline>
</glyph>
<glyph name="seven" format="2">
  <advance width="856.0975609756777"/>
  <unicode hex="0037"/>
  <outline>
    <contour>
      <point x="144.8780517578125" y="0" type="line"/>
      <point x="406.87416076660156" y="0" type="line"/>
      <point x="803.4146270751953" y="842.9268264770508" type="line"/>
      <point x="803.4146270751953" y="1080" type="line"/>
      <point x="52.68292999267578" y="1080" type="line"/>
      <point x="52.68292999267578" y="842.9268264770508" type="line"/>
      <point x="541.4185180664062" y="842.9268264770508" type="line"/>
    </contour>
  </outline>
</glyph>
<glyph name="eight" format="2">
  <advance width="930.7317073170732"/>
  <unicode hex="0038"/>
  <outline>
    <contour>
      <point x="860.4878" y="332.67988" type="curve" smooth="yes"/>
      <point x="860.4878" y="424.02920301022"/>
      <point x="821.7722725740216" y="506.66141432611704"/>
      <point x="757.5537796020508" y="568.4218215942383" type="curve"/>
      <point x="805.7960885952066" y="623.5870452899593"/>
      <point x="834.1463400000001" y="693.15996843046"/>
      <point x="834.1463400000001" y="769.14329" type="curve" smooth="yes"/>
      <point x="834.14634" y="950.28843"/>
      <point x="673.01733" y="1095.0"/>
      <point x="465.36585" y="1095.0" type="curve" smooth="yes"/>
      <point x="257.71438" y="1095.0"/>
      <point x="96.58537" y="950.28843"/>
      <point x="96.58537" y="769.14329" type="curve" smooth="yes"/>
      <point x="96.58537" y="693.15779468878"/>
      <point x="124.93724352405201" y="623.5830645910273"/>
      <point x="173.18199157714844" y="568.4225921630859" type="curve"/>
      <point x="108.96090484249812" y="506.66456284308987"/>
      <point x="70.2439" y="424.03094334355006"/>
      <point x="70.24390000000004" y="332.6798800000001" type="curve" smooth="yes"/>
      <point x="70.2439" y="139.30951"/>
      <point x="243.72589" y="-15.0"/>
      <point x="465.36585" y="-15.0" type="curve" smooth="yes"/>
      <point x="687.00582" y="-15.0"/>
      <point x="860.4878" y="139.30951"/>
    </contour>
    <contour>
      <point x="597.07317" y="769.14329" type="curve" smooth="yes"/>
      <point x="597.07317" y="720.24409"/>
      <point x="538.2082" y="680.35976"/>
      <point x="465.36585" y="680.35976" type="curve" smooth="yes"/>
      <point x="392.52351" y="680.35976"/>
      <point x="333.65854" y="720.24409"/>
      <point x="333.65854" y="769.14329" type="curve" smooth="yes"/>
      <point x="333.65854" y="818.0425"/>
      <point x="392.52351" y="857.92683"/>
      <point x="465.36585" y="857.92683" type="curve" smooth="yes"/>
      <point x="538.2082" y="857.92683"/>
      <point x="597.07317" y="818.0425"/>
    </contour>
    <contour>
      <point x="623.41463" y="332.67988" type="curve" smooth="yes"/>
      <point x="623.41463" y="271.74923"/>
      <point x="552.75966" y="222.07317"/>
      <point x="465.36585" y="222.07317" type="curve" smooth="yes"/>
      <point x="377.97204" y="222.07317"/>
      <point x="307.31707" y="271.74923"/>
      <point x="307.31707" y="332.67988" type="curve" smooth="yes"/>
      <point x="307.31707" y="393.61053"/>
      <point x="377.97204" y="443.28659"/>
      <point x="465.36585" y="443.28659" type="curve" smooth="yes"/>
      <point x="552.75966" y="443.28659"/>
      <point x="623.41463" y="393.61053"/>
    </contour>
  </outline>
</glyph>
<glyph name="nine" format="2">
  <advance width="891.2195121951221"/>
  <unicode hex="0039"/>
  <outline>
    <contour>
      <point x="834.14634" y="706.46341" type="curve" smooth="yes"/>
      <point x="834.14634" y="920.90259"/>
      <point x="660.04893" y="1095.0"/>
      <point x="445.60976" y="1095.0" type="curve" smooth="yes"/>
      <point x="231.17058" y="1095.0"/>
      <point x="57.07317" y="920.90259"/>
      <point x="57.07317" y="706.46341" type="curve" smooth="yes"/>
      <point x="57.07317" y="510.50953977151005"/>
      <point x="202.44885233544773" y="348.24204596075583"/>
      <point x="391.13873291015625" y="321.72643280029297" type="curve"/>
      <point x="197.82598876953125" y="0" type="line"/>
      <point x="474.4034729003906" y="0" type="line"/>
      <point x="778.6506118774414" y="506.35227966308594" type="line"/>
      <point x="778.6430358886719" y="506.3568344116211" type="line"/>
      <point x="813.8736127757104" y="564.8105509159221"/>
      <point x="834.14634" y="633.2881876291999"/>
    </contour>
    <contour>
      <point x="597.07317" y="706.46341" type="curve" smooth="yes"/>
      <point x="597.07317" y="622.86848"/>
      <point x="529.20469" y="555.0"/>
      <point x="445.60976" y="555.0" type="curve" smooth="yes"/>
      <point x="362.01482" y="555.0"/>
      <point x="294.14634" y="622.86848"/>
      <point x="294.14634" y="706.46341" type="curve" smooth="yes"/>
      <point x="294.14634" y="790.05835"/>
      <point x="362.01482" y="857.92683"/>
      <point x="445.60976" y="857.92683" type="curve" smooth="yes"/>
      <point x="529.20469" y="857.92683"/>
      <point x="597.07317" y="790.05835"/>
    </contour>
  </outline>
</glyph>
<glyph name="colon" format="2">
  <advance width="449.5609756097561"/>
  <unicode hex="003A"/>
  <outline>
    <contour>
      <point x="374.92683" y="681.43902" type="curve" smooth="yes"/>
      <point x="374.92683" y="764.30705"/>
      <point x="307.64851" y="831.58537"/>
      <point x="224.78049" y="831.58537" type="curve" smooth="yes"/>
      <point x="141.91247" y="831.58537"/>
      <point x="74.63415" y="764.30705"/>
      <point x="74.63415" y="681.43902" type="curve" smooth="yes"/>
      <point x="74.63415" y="598.571"/>
      <point x="141.91247" y="531.29268"/>
      <point x="224.78049" y="531.29268" type="curve" smooth="yes"/>
      <point x="307.64851" y="531.29268"/>
      <point x="374.92683" y="598.571"/>
    </contour>
    <contour>
      <point x="374.92683" y="135.14634" type="curve" smooth="yes"/>
      <point x="374.92683" y="218.01436"/>
      <point x="307.64851" y="285.29268"/>
      <point x="224.78049" y="285.29268" type="curve" smooth="yes"/>
      <point x="141.91247" y="285.29268"/>
      <point x="74.63415" y="218.01436"/>
      <point x="74.63415" y="135.14634" type="curve" smooth="yes"/>
      <point x="74.63415" y="52.27832"/>
      <point x="141.91247" y="-15.0"/>
      <point x="224.78049" y="-15.0" type="curve" smooth="yes"/>
      <point x="307.64851" y="-15.0"/>
      <point x="374.92683" y="52.27832"/>
    </contour>
  </outline>
</glyph>
<glyph name="semicolon" format="2">
  <advance width="448.032917385924"/>
  <unicode hex="003B"/>
  <outline>
    <contour>
      <point x="373.3987710444606" y="681.439024390244" type="curve" smooth="yes"/>
      <point x="373.3987710444606" y="764.3070454419512"/>
      <point x="306.1204506327533" y="831.5853658536586"/>
      <point x="223.25242958104596" y="831.5853658536586" type="curve" smooth="yes"/>
      <point x="140.38440852933866" y="831.5853658536586"/>
      <point x="73.10608811763132" y="764.3070454419512"/>
      <point x="73.10608811763132" y="681.439024390244" type="curve" smooth="yes"/>
      <point x="73.10608811763132" y="598.5710033385367"/>
      <point x="140.38440852933863" y="531.2926829268293"/>
      <point x="223.25242958104593" y="531.2926829268293" type="curve" smooth="yes"/>
      <point x="306.12045063275326" y="531.2926829268293"/>
      <point x="373.3987710444606" y="598.5710033385366"/>
    </contour>
    <contour>
      <point x="262.38455963134766" y="-243.65853881835938" type="line"/>
      <point x="314.40335087074527" y="-153.55934636126142"/>
      <point x="341.7890149468996" y="-51.354656630039614"/>
      <point x="341.7890149468996" y="52.68292682926829" type="curve"/>
      <point x="341.7890167236328" y="223.90243530273438" type="line"/>
      <point x="104.7158432006836" y="223.90243530273438" type="line"/>
      <point x="104.7158432006836" y="52.68292999267578" type="line"/>
      <point x="104.71584421519229" y="-9.739623246316457"/>
      <point x="88.2844457694997" y="-71.06243708504955"/>
      <point x="57.073170731707314" y="-125.12195121951217" type="curve"/>
    </contour>
  </outline>
</glyph>
<glyph name="less" format="2">
  <advance width="885.2351559401033"/>
  <unicode hex="003C"/>
  <outline>
    <contour>
      <point x="810.7361526489258" y="8.353828430175781" type="line"/>
      <point x="810.7361526489258" y="284.94217681884766" type="line"/>
      <point x="372.3879928588867" y="497.1598587036133" type="line"/>
      <point x="810.7361526489258" y="709.3775329589844" type="line"/>
      <point x="810.7361526489258" y="985.9658889770508" type="line"/>
      <point x="74.49900817871094" y="622.0252990722656" type="line"/>
      <point x="74.49900817871094" y="372.29441833496094" type="line"/>
    </contour>
  </outline>
</glyph>
<glyph name="equal" format="2">
  <advance width="992.1951219512196"/>
  <unicode hex="003D"/>
  <outline>
    <contour>
      <point x="87.8048780487805" y="575.1219512195122" type="line"/>
      <point x="904.3902439024391" y="575.1219512195122" type="line"/>
      <point x="904.3902439024391" y="812.1951219512196" type="line"/>
      <point x="87.8048780487805" y="812.1951219512196" type="line"/>
    </contour>
    <contour>
      <point x="87.8048780487805" y="180.0" type="line"/>
      <point x="904.3902439024391" y="180.0" type="line"/>
      <point x="904.3902439024391" y="417.0731707317073" type="line"/>
      <point x="87.8048780487805" y="417.0731707317073" type="line"/>
    </contour>
  </outline>
</glyph>
<glyph name="greater" format="2">
  <advance width="1007.9725609756099"/>
  <unicode hex="003E"/>
  <outline>
    <contour>
      <point x="922.3628005981445" y="624.3620376586914" type="line"/>
      <point x="85.60975646972656" y="970.243896484375" type="line"/>
      <point x="85.60975646972656" y="713.7149505615234" type="line"/>
      <point x="612.0669860839844" y="496.0975570678711" type="line"/>
      <point x="85.60975646972656" y="278.4801788330078" type="line"/>
      <point x="85.60975646972656" y="21.951217651367188" type="line"/>
      <point x="922.3628005981445" y="367.8330764770508" type="line"/>
    </contour>
  </outline>
</glyph>
<glyph name="question" format="2">
  <advance width="829.7560975609756"/>
  <unicode hex="003F"/>
  <outline>
    <contour>
      <point x="279.8780517578125" y="343.4227600097656" type="line"/>
      <point x="516.9512176513672" y="343.4227600097656" type="line"/>
      <point x="516.9512176513672" y="410.23817443847656" type="line"/>
      <point x="663.5362466467743" y="454.1481510431604"/>
      <point x="770.4878" y="590.1603355091601"/>
      <point x="770.4878" y="750.95528" type="curve"/>
      <point x="770.4878" y="947.22165"/>
      <point x="611.14441" y="1106.56504"/>
      <point x="414.87805" y="1106.56504" type="curve" smooth="yes"/>
      <point x="218.61168" y="1106.56504"/>
      <point x="59.26829" y="947.22165"/>
      <point x="59.26829" y="750.95528" type="curve"/>
      <point x="296.3414611816406" y="750.9552764892578" type="line"/>
      <point x="296.34146" y="816.37741"/>
      <point x="349.45593" y="869.49187"/>
      <point x="414.87805" y="869.49187" type="curve" smooth="yes"/>
      <point x="480.30017" y="869.49187"/>
      <point x="533.41463" y="816.3774000000001"/>
      <point x="533.41463" y="750.95528" type="curve"/>
      <point x="533.41463" y="697.6700970575091"/>
      <point x="498.92759061814775" y="632.4186992704033"/>
      <point x="399.7689801771551" y="632.4187001311551" type="curve"/>
      <point x="279.8780517578125" y="632.418701171875" type="line"/>
    </contour>
    <contour>
      <point x="548.56098" y="131.81301" type="curve" smooth="yes"/>
      <point x="548.56098" y="214.68103"/>
      <point x="481.28266" y="281.95935"/>
      <point x="398.41463" y="281.95935" type="curve" smooth="yes"/>
      <point x="315.54661" y="281.95935"/>
      <point x="248.26829" y="214.68103"/>
      <point x="248.26829" y="131.81301" type="curve" smooth="yes"/>
      <point x="248.26829" y="48.94499"/>
      <point x="315.54661" y="-18.33333"/>
      <point x="398.41463" y="-18.33333" type="curve" smooth="yes"/>
      <point x="481.28266" y="-18.33333"/>
      <point x="548.56098" y="48.94499"/>
    </contour>
  </outline>
</glyph>
<glyph name="at" format="2">
  <advance width="1352.9268315012862"/>
  <unicode hex="0040"/>
  <outline>
    <contour>
      <point x="1144.7038327526132" y="480.0" type="curve" smooth="yes"/>
      <point x="1144.7038327526132" y="387.785961536446"/>
      <point x="1112.8011970032228" y="312.91986062717774"/>
      <point x="1073.5060975609754" y="312.91986062717774" type="curve"/>
      <point x="1044.1310456123517" y="312.91986062717774"/>
      <point x="1020.2822299651568" y="349.25455643571433"/>
      <point x="1020.2822299651568" y="394.00871080139376" type="curve"/>
      <point x="1020.2822265625" y="797.7285308837891" type="line"/>
      <point x="1097.4951805263784" y="714.2307989709025"/>
      <point x="1144.7038327526132" y="602.5849827874803"/>
    </contour>
    <contour>
      <point x="817.0766550522648" y="474.73170731707313" type="curve" smooth="yes"/>
      <point x="817.0766550522648" y="393.7328897477351"/>
      <point x="751.3158907400697" y="327.97212543553997"/>
      <point x="670.3170731707318" y="327.9721254355401" type="curve" smooth="yes"/>
      <point x="589.3182556013936" y="327.9721254355401"/>
      <point x="523.5574912891987" y="393.7328897477352"/>
      <point x="523.5574912891987" y="474.73170731707313" type="curve" smooth="yes"/>
      <point x="523.5574912891987" y="555.7305248864112"/>
      <point x="589.3182556013937" y="621.4912891986062"/>
      <point x="670.3170731707318" y="621.4912891986062" type="curve" smooth="yes"/>
      <point x="751.3158907400698" y="621.4912891986062"/>
      <point x="817.0766550522648" y="555.7305248864112"/>
    </contour>
    <contour>
      <point x="676.4634146341464" y="1095.0" type="curve" smooth="yes"/>
      <point x="337.0356773341464" y="1095.0"/>
      <point x="61.46341463414634" y="819.4277373000001"/>
      <point x="61.46341463414634" y="479.99999999999994" type="curve" smooth="yes"/>
      <point x="61.46341463414634" y="140.5722627000001"/>
      <point x="337.0356773341462" y="-135.0"/>
      <point x="676.4634146341463" y="-135.0" type="curve" smooth="yes"/>
      <point x="877.1636414222633" y="-135.00000000000006"/>
      <point x="1055.5384704367887" y="-38.653360676045814"/>
      <point x="1167.8200914336414" y="110.27874532560023" type="curve"/>
      <point x="963.6752166748047" y="110.27874755859375" type="line"/>
      <point x="884.3491630979493" y="48.54174631869316"/>
      <point x="784.6678617542942" y="11.759581881533048"/>
      <point x="676.4634146341464" y="11.759581881533023" type="curve" smooth="yes"/>
      <point x="418.0344949034842" y="11.759581881533073"/>
      <point x="208.22299651567943" y="221.57108026933798"/>
      <point x="208.22299651567943" y="479.99999999999994" type="curve" smooth="yes"/>
      <point x="208.22299651567943" y="738.4289197306621"/>
      <point x="418.0344949034843" y="948.2404181184669"/>
      <point x="676.4634146341464" y="948.2404181184669" type="curve" smooth="yes"/>
      <point x="806.3500481196968" y="948.2404181184669"/>
      <point x="923.9555434499927" y="895.2404043972502"/>
      <point x="1008.8146133422852" y="809.6968612670898" type="curve"/>
      <point x="817.0766525268555" y="809.6968612670898" type="line"/>
      <point x="817.0766525268555" y="792.4731674194336" type="line"/>
      <point x="772.4338265560889" y="813.1576582670581"/>
      <point x="722.7123795283998" y="824.6968641114983"/>
      <point x="670.3170731707316" y="824.6968641114983" type="curve" smooth="yes"/>
      <point x="477.1660466592334" y="824.6968641114983"/>
      <point x="320.3519163763066" y="667.8827338285714"/>
      <point x="320.3519163763066" y="474.73170731707313" type="curve" smooth="yes"/>
      <point x="320.3519163763066" y="281.58068080557496"/>
      <point x="477.16604665923336" y="124.76655052264806"/>
      <point x="670.3170731707318" y="124.76655052264806" type="curve" smooth="yes"/>
      <point x="756.7907877399294" y="124.76655052264805"/>
      <point x="835.9813059758536" y="156.19763620200425"/>
      <point x="897.0777893066406" y="208.2609100341797" type="curve"/>
      <point x="943.0594886200328" y="164.68056116556244"/>
      <point x="1005.1799911299054" y="137.93728222996518"/>
      <point x="1073.5060975609754" y="137.9372822299652" type="curve"/>
      <point x="1193.800014572561" y="137.93728222996518"/>
      <point x="1291.4634146341464" y="291.2104482806969"/>
      <point x="1291.4634146341464" y="479.99999999999994" type="curve"/>
      <point x="1291.4634146341464" y="819.4277373000001"/>
      <point x="1015.8911519341465" y="1095.0"/>
    </contour>
  </outline>
</glyph>
<glyph name="A" format="2">
  <advance width="1094.8170731707673"/>
  <unicode hex="0041"/>
  <anchor x="547.4085365853659" y="1193.5975609756097" name="above" identifier="above"/>
  <anchor x="547.4085365853659" y="-105.36585365853658" name="below" identifier="below"/>
  <anchor x="1088.2317073170732" y="0" name="ogonek" identifier="ogonek"/>
  <outline>
    <contour>
      <point x="6.5853729248046875" y="0" type="line"/>
      <point x="260.2346878051758" y="0" type="line"/>
      <point x="327.7581100463867" y="177.4912872314453" type="line"/>
      <point x="767.058967590332" y="177.4912872314453" type="line"/>
      <point x="834.582389831543" y="0" type="line"/>
      <point x="1088.2317123413086" y="0" type="line"/>
      <point x="674.2332000732422" y="1088.2317123413086" type="line"/>
      <point x="420.58387756347656" y="1088.2317123413086" type="line"/>
    </contour>
    <contour>
      <point x="417.9484100341797" y="414.56446075439453" type="line"/>
      <point x="547.4085388183594" y="754.8618698120117" type="line"/>
      <point x="676.8686676025391" y="414.56446075439453" type="line"/>
    </contour>
  </outline>
</glyph>
<glyph name="B" format="2">
  <advance width="979.0243902439024"/>
  <unicode hex="0042"/>
  <outline>
    <contour>
      <point x="87.80487823486328" y="0" type="line"/>
      <point x="601.4634094238281" y="0" type="line"/>
      <point x="783.19153" y="0.0"/>
      <point x="930.73171" y="147.54018"/>
      <point x="930.73171" y="329.26829" type="curve" smooth="yes"/>
      <point x="930.73171" y="420.87961602944"/>
      <point x="893.2374850902147" y="503.80279818131226"/>
      <point x="832.7704315185547" y="563.5093612670898" type="curve"/>
      <point x="869.6200275942452" y="616.6714689873182"/>
      <point x="891.21951" y="681.19907845372"/>
      <point x="891.2195100000001" y="750.7317099999999" type="curve" smooth="yes"/>
      <point x="891.21951" y="932.45982"/>
      <point x="743.67934" y="1080.0"/>
      <point x="561.95122" y="1080.0" type="curve"/>
      <point x="87.80487823486328" y="1080" type="line"/>
    </contour>
    <contour>
      <point x="561.9512176513672" y="842.9268264770508" type="line"/>
      <point x="612.83509" y="842.92683"/>
      <point x="654.14634" y="801.61558"/>
      <point x="654.14634" y="750.73171" type="curve" smooth="yes"/>
      <point x="654.14634" y="699.84783"/>
      <point x="612.83509" y="658.53659"/>
      <point x="561.95122" y="658.53659" type="curve"/>
      <point x="324.8780517578125" y="658.5365905761719" type="line"/>
      <point x="324.8780517578125" y="842.9268264770508" type="line"/>
    </contour>
    <contour>
      <point x="601.4634094238281" y="421.4634094238281" type="line"/>
      <point x="652.34729" y="421.46341"/>
      <point x="693.65854" y="380.15217"/>
      <point x="693.65854" y="329.26829" type="curve" smooth="yes"/>
      <point x="693.65854" y="278.38442"/>
      <point x="652.34729" y="237.07317"/>
      <point x="601.46341" y="237.07317" type="curve"/>
      <point x="324.8780517578125" y="237.07317352294922" type="line"/>
      <point x="324.8780517578125" y="421.4634094238281" type="line"/>
    </contour>
  </outline>
</glyph>
<glyph name="C" format="2">
  <advance width="1212.5081132097944"/>
  <unicode hex="0043"/>
  <anchor x="617.3272357723578" y="1193.5975609756097" name="above" identifier="above"/>
  <anchor x="617.3272357723578" y="-105.36585365853658" name="below" identifier="below"/>
  <anchor x="617.3272357723578" y="0" name="cedilla" identifier="cedilla"/>
  <outline>
    <contour>
      <point x="617.32724" y="218.73984" type="curve" smooth="yes"/>
      <point x="437.74733" y="218.73984"/>
      <point x="291.95122" y="364.53594"/>
      <point x="291.95122" y="544.11585" type="curve" smooth="yes"/>
      <point x="291.95122" y="723.69576"/>
      <point x="437.74733" y="869.49187"/>
      <point x="617.32724" y="869.49187" type="curve" smooth="yes"/>
      <point x="746.54773" y="869.49187"/>
      <point x="858.27557" y="794.00121"/>
      <point x="910.777" y="684.75017" type="curve"/>
      <point x="1162.01585" y="684.75017" type="line"/>
      <point x="1099.49778" y="927.22227"/>
      <point x="879.19112" y="1106.56504"/>
      <point x="617.32724" y="1106.56504" type="curve" smooth="yes"/>
      <point x="306.90308" y="1106.56504"/>
      <point x="54.87805" y="854.54001"/>
      <point x="54.87805" y="544.11585" type="curve" smooth="yes"/>
      <point x="54.87805" y="233.6917"/>
      <point x="306.90308" y="-18.33333"/>
      <point x="617.32724" y="-18.33333" type="curve" smooth="yes"/>
      <point x="879.19764" y="-18.33333"/>
      <point x="1099.50875" y="161.01837"/>
      <point x="1162.02031" y="403.48154" type="curve"/>
      <point x="910.77222" y="403.48154" type="line"/>
      <point x="858.26874" y="294.22588"/>
      <point x="746.54378" y="218.73984"/>
    </contour>
  </outline>
</glyph>
<glyph name="D" format="2">
  <advance width="1093.170731707317"/>
  <unicode hex="0044"/>
  <outline>
    <contour>
      <point x="87.80487823486328" y="0" type="line"/>
      <point x="496.0975646972656" y="0" type="line"/>
      <point x="794.1316717756099" y="0.0"/>
      <point x="1036.0975609756097" y="241.96588920000002"/>
      <point x="1036.0975609756097" y="540.0" type="curve" smooth="yes"/>
      <point x="1036.0975609756097" y="838.0341108"/>
      <point x="794.1316717756097" y="1080.0"/>
      <point x="496.0975609756098" y="1080.0" type="curve"/>
      <point x="87.80487823486328" y="1080" type="line"/>
    </contour>
    <contour>
      <point x="496.0975646972656" y="842.9268264770508" type="line"/>
      <point x="663.287428009756" y="842.9268292682926"/>
      <point x="799.0243902439024" y="707.1898670341463"/>
      <point x="799.0243902439024" y="540.0" type="curve" smooth="yes"/>
      <point x="799.0243902439024" y="372.81013296585365"/>
      <point x="663.2874280097562" y="237.0731707317073"/>
      <point x="496.0975609756098" y="237.0731707317073" type="curve"/>
      <point x="324.8780517578125" y="237.07317352294922" type="line"/>
      <point x="324.8780517578125" y="842.9268264770508" type="line"/>
    </contour>
  </outline>
</glyph>
<glyph name="E" format="2">
  <advance width="946.2173740579135"/>
  <unicode hex="0045"/>
  <anchor x="479.5347084490282" y="1192.4821499404998" name="above" identifier="above"/>
  <anchor x="479.5347084490282" y="-102.8163427211424" name="below" identifier="below"/>
  <anchor x="479.5347084490282" y="0" name="cedilla" identifier="cedilla"/>
  <anchor x="884.5704085680286" y="0" name="ogonek" identifier="ogonek"/>
  <outline>
    <contour>
      <point x="74.49900817871094" y="0" type="line"/>
      <point x="884.5704116821289" y="0" type="line"/>
      <point x="884.5704116821289" y="242.12171173095703" type="line"/>
      <point x="329.38880920410156" y="242.12171173095703" type="line"/>
      <point x="329.38880920410156" y="426.96407318115234" type="line"/>
      <point x="854.5823135375977" y="426.96407318115234" type="line"/>
      <point x="854.5823135375977" y="662.7017288208008" type="line"/>
      <point x="329.38880920410156" y="662.7017288208008" type="line"/>
      <point x="329.38880920410156" y="848.8209075927734" type="line"/>
      <point x="880.2863922119141" y="848.8209075927734" type="line"/>
      <point x="880.2863922119141" y="1089.6658096313477" type="line"/>
      <point x="74.49900817871094" y="1089.6658096313477" type="line"/>
    </contour>
  </outline>
</glyph>
<glyph name="F" format="2">
  <advance width="933.4010313367711"/>
  <unicode hex="0046"/>
  <anchor x="479.55255850852836" y="1192.4821499404998" name="above" identifier="above"/>
  <anchor x="74.49900833002776" y="0" name="hookleft" identifier="hookleft"/>
  <outline>
    <contour>
      <point x="74.49900817871094" y="0" type="line"/>
      <point x="331.96826934814453" y="0" type="line"/>
      <point x="331.96826934814453" y="382.8597106933594" type="line"/>
      <point x="807.4938507080078" y="382.8597106933594" type="line"/>
      <point x="807.4938507080078" y="620.9830093383789" type="line"/>
      <point x="331.96826934814453" y="620.9830093383789" type="line"/>
      <point x="331.96826934814453" y="845.0938491821289" type="line"/>
      <point x="884.6061096191406" y="845.0938491821289" type="line"/>
      <point x="884.6061096191406" y="1089.6658096313477" type="line"/>
      <point x="74.49900817871094" y="1089.6658096313477" type="line"/>
    </contour>
  </outline>
</glyph>
<glyph name="G" format="2">
  <advance width="1224.1463414634145"/>
  <unicode hex="0047"/>
  <outline>
    <contour>
      <point x="612.0731735229492" y="381.9512176513672" type="line"/>
      <point x="887.9325103759766" y="381.9512176513672" type="line"/>
      <point x="833.0573234288344" y="286.4433296717942"/>
      <point x="730.0231584987205" y="222.07317073170725"/>
      <point x="612.0731707317074" y="222.07317073170728" type="curve" smooth="yes"/>
      <point x="436.60457839756094" y="222.0731707317073"/>
      <point x="294.1463414634146" y="364.53140766585375"/>
      <point x="294.1463414634146" y="540.0" type="curve" smooth="yes"/>
      <point x="294.1463414634146" y="715.4685923341464"/>
      <point x="436.604578397561" y="857.9268292682927"/>
      <point x="612.0731707317074" y="857.9268292682927" type="curve" smooth="yes"/>
      <point x="706.7302292721397" y="857.9268292682927"/>
      <point x="791.7809594984926" y="816.4701233815603"/>
      <point x="850.0435984541731" y="750.7317095500666" type="curve"/>
      <point x="1125.599494934082" y="750.7317123413086" type="line"/>
      <point x="1042.5515459612661" y="952.6741244949903"/>
      <point x="843.8022006825546" y="1095.0000000000002"/>
      <point x="612.0731707317074" y="1095.0000000000002" type="curve" smooth="yes"/>
      <point x="305.7603346317074" y="1095.0000000000002"/>
      <point x="57.073170731707314" y="846.3128361"/>
      <point x="57.073170731707314" y="540.0" type="curve" smooth="yes"/>
      <point x="57.073170731707314" y="233.6871639000001"/>
      <point x="305.7603346317073" y="-14.999999999999998"/>
      <point x="612.0731707317073" y="-14.999999999999998" type="curve" smooth="yes"/>
      <point x="918.3860068317074" y="-15.0000000000001"/>
      <point x="1167.073170731707" y="233.68716389999994"/>
      <point x="1167.0731707317073" y="540.0" type="curve" smooth="yes"/>
      <point x="1167.0731707317073" y="566.8382117605737"/>
      <point x="1165.1640643591386" y="593.2340462938901"/>
      <point x="1161.474361512719" y="619.024392476896" type="curve"/>
      <point x="612.0731735229492" y="619.0243911743164" type="line"/>
    </contour>
  </outline>
</glyph>
<glyph name="H" format="2">
  <advance width="1074.880602935343"/>
  <unicode hex="0048"/>
  <anchor x="537.4403014676715" y="1192.4821499404998" name="above" identifier="above"/>
  <anchor x="537.4403014676715" y="-102.8163427211424" name="below" identifier="below"/>
  <anchor x="203.23363744545816" y="0" name="cedilla" identifier="cedilla"/>
  <anchor x="537.4403014676715" y="871.9436929789765" name="stroke" identifier="stroke"/>
  <outline>
    <contour>
      <point x="74.49900817871094" y="0" type="line"/>
      <point x="331.96826934814453" y="0" type="line"/>
      <point x="331.96826934814453" y="416.0982666015625" type="line"/>
      <point x="742.9123382568359" y="416.0982666015625" type="line"/>
      <point x="742.9123382568359" y="0" type="line"/>
      <point x="1000.381591796875" y="0" type="line"/>
      <point x="1000.381591796875" y="1089.6658096313477" type="line"/>
      <point x="742.9123382568359" y="1089.6658096313477" type="line"/>
      <point x="742.9123382568359" y="654.2215805053711" type="line"/>
      <point x="331.96826934814453" y="654.2215805053711" type="line"/>
      <point x="331.96826934814453" y="1089.6658096313477" type="line"/>
      <point x="74.49900817871094" y="1089.6658096313477" type="line"/>
    </contour>
  </outline>
</glyph>
<glyph name="I" format="2">
  <advance width="412.6829268292683"/>
  <unicode hex="0049"/>
  <anchor x="206.34146341463415" y="1185.3658536585365" name="above" identifier="above"/>
  <anchor x="206.34146341463415" y="-105.36585365853658" name="below" identifier="below"/>
  <anchor x="324.8780487804878" y="0" name="ogonek" identifier="ogonek"/>
  <anchor x="206.34146341463415" y="540.0" name="stroke" identifier="stroke"/>
  <outline>
    <contour>
      <point x="87.80488" y="0.0" type="line"/>
      <point x="324.87805" y="0.0" type="line"/>
      <point x="324.87805" y="1080.0" type="line"/>
      <point x="87.80488" y="1080.0" type="line"/>
    </contour>
  </outline>
</glyph>
<glyph name="J" format="2">
  <advance width="907.8040460134868"/>
  <unicode hex="004A"/>
  <anchor x="715.48785600952" y="1192.4821499404998" name="above" identifier="above"/>
  <outline>
    <contour>
      <point x="35.94287872314453" y="389.3294982910156" type="line"/>
      <point x="35.942878723144545" y="109.92553434518982"/>
      <point x="247.697434433684" y="-19.011109999999974"/>
      <point x="441.04998" y="-19.01111" type="curve"/>
      <point x="624.5121614472192" y="-19.01111"/>
      <point x="846.1570793650058" y="84.1622836212228"/>
      <point x="846.1570800445348" y="389.3295" type="curve"/>
      <point x="846.1570816040039" y="1089.6658096313477" type="line"/>
      <point x="584.8186264038086" y="1089.6658096313477" type="line"/>
      <point x="584.8186264038086" y="387.65473172322794" type="line"/>
      <point x="584.8186264038086" y="270.027216586666"/>
      <point x="508.53273511513817" y="225.56084"/>
      <point x="441.04998" y="225.56084" type="curve"/>
      <point x="363.241413163302" y="225.56084"/>
      <point x="293.4121401969512" y="275.03227855520373"/>
      <point x="293.4121399582539" y="389.316923431534" type="curve"/>
      <point x="293.4121398925781" y="420.76146697998047" type="line"/>
      <point x="35.94287872314453" y="420.76146697998047" type="line"/>
    </contour>
  </outline>
</glyph>
<glyph name="K" format="2">
  <advance width="1062.2427608092025"/>
  <unicode hex="004B"/>
  <anchor x="531.9222398519105" y="1192.4821499404998" name="above" identifier="above"/>
  <anchor x="531.9222398519105" y="-102.8163427211424" name="below" identifier="below"/>
  <outline>
    <contour>
      <point x="74.49900817871094" y="0" type="line"/>
      <point x="331.96826934814453" y="0" type="line"/>
      <point x="331.96826934814453" y="305.88475799560547" type="line"/>
      <point x="416.0506286621094" y="394.25909423828125" type="line"/>
      <point x="759.4221267700195" y="0" type="line"/>
      <point x="1103.4121398925781" y="0" type="line"/>
      <point x="586.6257934570312" y="573.5412673950195" type="line"/>
      <point x="1077.6842498779297" y="1089.6658096313477" type="line"/>
      <point x="724.879020690918" y="1089.6658096313477" type="line"/>
      <point x="331.96826934814453" y="651.3437805175781" type="line"/>
      <point x="331.96826934814453" y="1089.6658096313477" type="line"/>
      <point x="74.49900817871094" y="1089.6658096313477" type="line"/>
    </contour>
  </outline>
</glyph>
<glyph name="L" format="2">
  <advance width="865.9756097560976"/>
  <unicode hex="004C"/>
  <anchor x="204.14634146341461" y="1193.5975609756097" name="above" identifier="above"/>
  <anchor x="459.32926829268297" y="-105.36585365853658" name="below" identifier="below"/>
  <anchor x="428.0487804878049" y="1088.2317073170732" name="caron" identifier="caron"/>
  <anchor x="85.60975609756098" y="544.1158536585366" name="stroke" identifier="stroke"/>
  <anchor x="459.32926829268297" y="544.1158536585366" name="dotmiddle" identifier="dotmiddle"/>
  <outline>
    <contour>
      <point x="85.60975646972656" y="0" type="line"/>
      <point x="833.0487823486328" y="0" type="line"/>
      <point x="833.0487823486328" y="237.07317352294922" type="line"/>
      <point x="322.6829299926758" y="237.07317352294922" type="line"/>
      <point x="322.6829299926758" y="1088.2317123413086" type="line"/>
      <point x="85.60975646972656" y="1088.2317123413086" type="line"/>
    </contour>
  </outline>
</glyph>
<glyph name="M" format="2">
  <advance width="1233.1097560975609"/>
  <unicode hex="004D"/>
  <anchor x="616.5548780487806" y="1193.5975609756097" name="above" identifier="above"/>
  <anchor x="616.5548780487806" y="-105.36585365853658" name="below" identifier="below"/>
  <outline>
    <contour>
      <point x="85.60975646972656" y="0" type="line"/>
      <point x="322.6829299926758" y="0" type="line"/>
      <point x="322.6829299926758" y="612.6549530029297" type="line"/>
      <point x="507.8963394165039" y="241.11062622070312" type="line"/>
      <point x="725.2134094238281" y="241.11062622070312" type="line"/>
      <point x="910.4268264770508" y="612.6549606323242" type="line"/>
      <point x="910.4268264770508" y="0" type="line"/>
      <point x="1147.5" y="0" type="line"/>
      <point x="1147.5" y="1088.2317123413086" type="line"/>
      <point x="882.6033935546875" y="1088.2317123413086" type="line"/>
      <point x="616.5548782348633" y="554.5294494628906" type="line"/>
      <point x="350.5063705444336" y="1088.2317123413086" type="line"/>
      <point x="85.60975646972656" y="1088.2317123413086" type="line"/>
    </contour>
  </outline>
</glyph>
<glyph name="N" format="2">
  <advance width="1093.1707317073171"/>
  <unicode hex="004E"/>
  <anchor x="546.5853658536586" y="1185.3658536585365" name="above" identifier="above"/>
  <anchor x="546.5853658536586" y="-105.36585365853658" name="below" identifier="below"/>
  <anchor x="87.8048780487805" y="0" name="hookleft" identifier="hookleft"/>
  <outline>
    <contour>
      <point x="87.80487823486328" y="0" type="line"/>
      <point x="324.8780517578125" y="0" type="line"/>
      <point x="324.8780517578125" y="656.4570999145508" type="line"/>
      <point x="768.2926788330078" y="0" type="line"/>
      <point x="1005.365852355957" y="0" type="line"/>
      <point x="1005.365852355957" y="1080" type="line"/>
      <point x="768.2926788330078" y="1080" type="line"/>
      <point x="768.2926788330078" y="423.5429000854492" type="line"/>
      <point x="324.8780517578125" y="1080" type="line"/>
      <point x="87.80487823486328" y="1080" type="line"/>
    </contour>
  </outline>
</glyph>
<glyph name="O" format="2">
  <advance width="1234.6544715447158"/>
  <unicode hex="004F"/>
  <anchor x="617.3272357723578" y="1193.5975609756097" name="above" identifier="above"/>
  <anchor x="617.3272357723578" y="-105.36585365853658" name="below" identifier="below"/>
  <anchor x="617.3272357723578" y="0" name="ogonek" identifier="ogonek"/>
  <anchor x="617.3272357723578" y="544.1158536585366" name="stroke" identifier="stroke"/>
  <anchor x="617.3272357723578" y="1106.5650406504064" name="horn" identifier="horn"/>
  <outline>
    <contour>
      <point x="1179.77642" y="544.11585" type="curve" smooth="yes"/>
      <point x="1179.77642" y="854.54001"/>
      <point x="927.75139" y="1106.56504"/>
      <point x="617.32724" y="1106.56504" type="curve" smooth="yes"/>
      <point x="306.90308" y="1106.56504"/>
      <point x="54.87805" y="854.54001"/>
      <point x="54.87805" y="544.11585" type="curve" smooth="yes"/>
      <point x="54.87805" y="233.6917"/>
      <point x="306.90308" y="-18.33333"/>
      <point x="617.32724" y="-18.33333" type="curve" smooth="yes"/>
      <point x="927.75139" y="-18.33333"/>
      <point x="1179.77642" y="233.6917"/>
    </contour>
    <contour>
      <point x="942.70325" y="544.11585" type="curve" smooth="yes"/>
      <point x="942.70325" y="364.53594"/>
      <point x="796.90715" y="218.73984"/>
      <point x="617.32724" y="218.73984" type="curve" smooth="yes"/>
      <point x="437.74733" y="218.73984"/>
      <point x="291.95122" y="364.53594"/>
      <point x="291.95122" y="544.11585" type="curve" smooth="yes"/>
      <point x="291.95122" y="723.69576"/>
      <point x="437.74733" y="869.49187"/>
      <point x="617.32724" y="869.49187" type="curve" smooth="yes"/>
      <point x="796.90715" y="869.49187"/>
      <point x="942.70325" y="723.69576"/>
    </contour>
  </outline>
</glyph>
<glyph name="P" format="2">
  <advance width="979.0243902439024"/>
  <unicode hex="0050"/>
  <outline>
    <contour>
      <point x="87.80487823486328" y="0" type="line"/>
      <point x="324.8780517578125" y="0" type="line"/>
      <point x="324.8780517578125" y="338.6759567260742" type="line"/>
      <point x="546.8989486694336" y="338.6759567260742" type="line"/>
      <point x="751.47289" y="338.67596"/>
      <point x="917.56098" y="504.76404"/>
      <point x="917.56098" y="709.33798" type="curve" smooth="yes"/>
      <point x="917.56098" y="913.91192"/>
      <point x="751.47289" y="1080.0"/>
      <point x="546.89895" y="1080.0" type="curve"/>
      <point x="87.80487823486328" y="1080" type="line"/>
    </contour>
    <contour>
      <point x="546.8989486694336" y="842.9268264770508" type="line"/>
      <point x="620.62865" y="842.92683"/>
      <point x="680.4878" y="783.06767"/>
      <point x="680.4878" y="709.33798" type="curve" smooth="yes"/>
      <point x="680.4878" y="635.60829"/>
      <point x="620.62865" y="575.74913"/>
      <point x="546.89895" y="575.74913" type="curve"/>
      <point x="324.8780517578125" y="575.7491302490234" type="line"/>
      <point x="324.8780517578125" y="842.9268264770508" type="line"/>
    </contour>
  </outline>
</glyph>
<glyph name="Q" format="2">
  <advance width="1236.1821730215693"/>
  <unicode hex="0051"/>
  <outline>
    <contour>
      <point x="1236.1821746826172" y="0" type="line"/>
      <point x="1053.1540222167969" y="203.27335357666016" type="line"/>
      <point x="1124.6059468736355" y="296.6802775326932"/>
      <point x="1167.073170731707" y="413.41989623570817"/>
      <point x="1167.0731707317073" y="540.0" type="curve" smooth="yes"/>
      <point x="1167.0731707317073" y="846.3128361"/>
      <point x="918.3860068317074" y="1095.0000000000002"/>
      <point x="612.0731707317074" y="1095.0000000000002" type="curve" smooth="yes"/>
      <point x="305.7603346317074" y="1095.0000000000002"/>
      <point x="57.073170731707314" y="846.3128361"/>
      <point x="57.073170731707314" y="540.0" type="curve" smooth="yes"/>
      <point x="57.073170731707314" y="233.6871639000001"/>
      <point x="305.7603346317073" y="-14.999999999999998"/>
      <point x="612.0731707317073" y="-14.999999999999998" type="curve" smooth="yes"/>
      <point x="706.1026346549966" y="-15.000000000000028"/>
      <point x="794.7019272544859" y="8.434241275660025"/>
      <point x="872.344123840332" y="49.78279113769531" type="curve"/>
      <point x="917.1687545776367" y="0" type="line"/>
    </contour>
    <contour>
      <point x="930.0000000000001" y="540.0" type="curve" smooth="yes"/>
      <point x="930.0000000000001" y="483.6935324687111"/>
      <point x="915.330836630752" y="430.7861965472244"/>
      <point x="889.6089019775391" y="384.90860748291016" type="curve"/>
      <point x="837.0602111816406" y="443.2698440551758" type="line"/>
      <point x="518.0467910766602" y="443.2698440551758" type="line"/>
      <point x="704.8154067993164" y="235.84227752685547" type="line"/>
      <point x="675.4700801700614" y="226.8872763550373"/>
      <point x="644.3293865919012" y="222.07317073170734"/>
      <point x="612.0731707317074" y="222.07317073170736" type="curve" smooth="yes"/>
      <point x="436.60457839756094" y="222.0731707317073"/>
      <point x="294.1463414634146" y="364.53140766585375"/>
      <point x="294.1463414634146" y="540.0" type="curve" smooth="yes"/>
      <point x="294.1463414634146" y="715.4685923341464"/>
      <point x="436.604578397561" y="857.9268292682927"/>
      <point x="612.0731707317074" y="857.9268292682927" type="curve" smooth="yes"/>
      <point x="787.5417630658538" y="857.9268292682927"/>
      <point x="930.0000000000001" y="715.4685923341464"/>
    </contour>
  </outline>
</glyph>
<glyph name="R" format="2">
  <advance width="991.2888328584535"/>
  <unicode hex="0052"/>
  <outline>
    <contour>
      <point x="87.80487823486328" y="0" type="line"/>
      <point x="324.8780517578125" y="0" type="line"/>
      <point x="324.8780517578125" y="338.6759567260742" type="line"/>
      <point x="480.38917541503906" y="338.6759567260742" type="line"/>
      <point x="687.1766052246094" y="0" type="line"/>
      <point x="964.9473724365234" y="0" type="line"/>
      <point x="728.9740676879883" y="386.4765167236328" type="line"/>
      <point x="841.5229721985088" y="450.1190169721367"/>
      <point x="917.560975609756" y="570.9187529087444"/>
      <point x="917.560975609756" y="709.3379790940767" type="curve" smooth="yes"/>
      <point x="917.560975609756" y="913.9119157756097"/>
      <point x="751.472891385366" y="1080.0"/>
      <point x="546.8989547038327" y="1080.0" type="curve"/>
      <point x="87.80487823486328" y="1080" type="line"/>
    </contour>
    <contour>
      <point x="546.8989562988281" y="842.9268264770508" type="line"/>
      <point x="620.6286476195123" y="842.9268292682926"/>
      <point x="680.4878048780488" y="783.0676720097562"/>
      <point x="680.4878048780488" y="709.3379790940767" type="curve" smooth="yes"/>
      <point x="680.4878048780488" y="635.6082861783972"/>
      <point x="620.6286476195123" y="575.7491289198607"/>
      <point x="546.8989547038327" y="575.7491289198607" type="curve"/>
      <point x="324.8780517578125" y="575.7491302490234" type="line"/>
      <point x="324.8780517578125" y="842.9268264770508" type="line"/>
    </contour>
  </outline>
</glyph>
<glyph name="S" format="2">
  <advance width="974.6341463414633"/>
  <unicode hex="0053"/>
  <outline>
    <contour>
      <point x="52.68292999267578" y="324.4024353027344" type="line"/>
      <point x="52.68292682926829" y="137.08113510219516"/>
      <point x="247.43595959999996" y="-14.999999999999948"/>
      <point x="487.31707317073165" y="-14.999999999999998" type="curve" smooth="yes"/>
      <point x="727.1981867414632" y="-15.00000000000005"/>
      <point x="921.951219512195" y="137.08113510219502"/>
      <point x="921.951219512195" y="324.4024390243902" type="curve"/>
      <point x="921.9512195121948" y="488.94416114051893"/>
      <point x="771.62080289223" y="625.8868241511706"/>
      <point x="572.55967824052" y="657.2662688464653" type="curve"/>
      <point x="439.4602355957031" y="678.2476959228516" type="line"/>
      <point x="371.2311380092255" y="689.0031426575923"/>
      <point x="321.65853658536577" y="724.690698512992"/>
      <point x="321.65853881835926" y="766.134148574457" type="curve"/>
      <point x="321.6585365853659" y="816.7959067748781"/>
      <point x="395.88763863804877" y="857.9268292682927"/>
      <point x="487.3170731707317" y="857.9268292682927" type="curve" smooth="yes"/>
      <point x="578.7465077034146" y="857.9268292682927"/>
      <point x="652.9756097560975" y="816.795906774878"/>
      <point x="652.9756097560975" y="766.1341463414634" type="curve"/>
      <point x="895.6097564697266" y="766.134147644043" type="line"/>
      <point x="895.6097560975609" y="947.6401505407318"/>
      <point x="712.6599374341463" y="1095.0000000000002"/>
      <point x="487.3170731707317" y="1095.0000000000002" type="curve" smooth="yes"/>
      <point x="261.97420890731706" y="1095.0000000000002"/>
      <point x="79.02439024390243" y="947.6401505407318"/>
      <point x="79.02439024390243" y="766.1341463414634" type="curve"/>
      <point x="79.02439024390233" y="605.8924780641603"/>
      <point x="221.68261473129846" y="472.67846586058846"/>
      <point x="410.08848534560775" y="443.16054627953514" type="curve"/>
      <point x="543.9737930297852" y="422.1844711303711" type="line"/>
      <point x="622.4180526718121" y="409.8944539195725"/>
      <point x="679.3170731707315" y="370.3706431662608"/>
      <point x="679.317070937738" y="324.4024390243903" type="curve"/>
      <point x="679.3170731707316" y="267.92537886804877"/>
      <point x="593.2847570107316" y="222.0731707317073"/>
      <point x="487.3170731707317" y="222.0731707317073" type="curve" smooth="yes"/>
      <point x="381.3493893307317" y="222.0731707317073"/>
      <point x="295.3170731707317" y="267.9253788680488"/>
      <point x="295.3170731707317" y="324.4024390243903" type="curve"/>
    </contour>
  </outline>
</glyph>
<glyph name="T" format="2">
  <advance width="965.8536585365853"/>
  <unicode hex="0054"/>
  <anchor x="482.9268292682927" y="1185.3658536585365" name="above" identifier="above"/>
  <anchor x="482.9268292682927" y="-105.36585365853658" name="below" identifier="below"/>
  <anchor x="482.9268292682927" y="0" name="cedilla" identifier="cedilla"/>
  <anchor x="482.9268292682927" y="540.0" name="stroke" identifier="stroke"/>
  <outline>
    <contour>
      <point x="364.39024353027344" y="0" type="line"/>
      <point x="601.4634094238281" y="0" type="line"/>
      <point x="601.4634094238281" y="842.9268264770508" type="line"/>
      <point x="917.5609817504883" y="842.9268264770508" type="line"/>
      <point x="917.5609817504883" y="1080" type="line"/>
      <point x="48.29267883300781" y="1080" type="line"/>
      <point x="48.29267883300781" y="842.9268264770508" type="line"/>
      <point x="364.39024353027344" y="842.9268264770508" type="line"/>
    </contour>
  </outline>
</glyph>
<glyph name="U" format="2">
  <advance width="1036.09756097561"/>
  <unicode hex="0055"/>
  <anchor x="518.048780487805" y="1185.3658536585365" name="above" identifier="above"/>
  <anchor x="518.048780487805" y="-105.36585365853658" name="below" identifier="below"/>
  <anchor x="518.048780487805" y="0" name="ogonek" identifier="ogonek"/>
  <anchor x="961.4634146341464" y="1080.0" name="horn" identifier="horn"/>
  <outline>
    <contour>
      <point x="74.63414764404297" y="448.4146270751953" type="line"/>
      <point x="74.63414764404298" y="148.15895798869963"/>
      <point x="301.460223165701" y="-14.999999999999973"/>
      <point x="518.04878" y="-15.0" type="curve" smooth="yes"/>
      <point x="734.637336834299" y="-15.0"/>
      <point x="961.4634102478192" y="148.15895945110196"/>
      <point x="961.4634099823147" y="448.41463" type="curve"/>
      <point x="961.4634094238281" y="1080" type="line"/>
      <point x="724.3902435302734" y="1080" type="line"/>
      <point x="724.3902435302734" y="448.4146270751953" type="line"/>
      <point x="724.3902435302734" y="275.390942972832"/>
      <point x="597.4056924962949" y="222.07317"/>
      <point x="518.04878" y="222.07317" type="curve" smooth="yes"/>
      <point x="438.6918671121184" y="222.07317"/>
      <point x="311.70731972593387" y="275.3909447674306"/>
      <point x="311.7073200358201" y="448.41463" type="curve"/>
      <point x="311.7073211669922" y="1080" type="line"/>
      <point x="74.63414764404297" y="1080" type="line"/>
    </contour>
  </outline>
</glyph>
<glyph name="V" format="2">
  <advance width="1086.7419674732246"/>
  <unicode hex="0056"/>
  <anchor x="543.3709837366124" y="1192.4821499404998" name="above" identifier="above"/>
  <anchor x="543.3709837366124" y="-102.8163427211424" name="below" identifier="below"/>
  <outline>
    <contour>
      <point x="1.6707687377929688" y="1089.6658096313477" type="line"/>
      <point x="406.0573425292969" y="0" type="line"/>
      <point x="680.6846237182617" y="0" type="line"/>
      <point x="1085.0711975097656" y="1089.6658096313477" type="line"/>
      <point x="810.4439163208008" y="1089.6658096313477" type="line"/>
      <point x="543.370979309082" y="355.96714782714844" type="line"/>
      <point x="276.2980422973633" y="1089.6658096313477" type="line"/>
    </contour>
  </outline>
</glyph>
<glyph name="W" format="2">
  <advance width="1497.0731707317716"/>
  <unicode hex="0057"/>
  <outline>
    <contour>
      <point x="321.47850036621094" y="0" type="line"/>
      <point x="567.7596282958984" y="0" type="line"/>
      <point x="748.5365829467773" y="642.4082183837891" type="line"/>
      <point x="929.3135452270508" y="0" type="line"/>
      <point x="1175.5946731567383" y="0" type="line"/>
      <point x="1479.512191772461" y="1080" type="line"/>
      <point x="1233.231071472168" y="1080" type="line"/>
      <point x="1052.4541091918945" y="437.5917739868164" type="line"/>
      <point x="871.6771469116211" y="1080" type="line"/>
      <point x="625.3960189819336" y="1080" type="line"/>
      <point x="444.6190643310547" y="437.59178161621094" type="line"/>
      <point x="263.84210205078125" y="1080" type="line"/>
      <point x="17.56097412109375" y="1080" type="line"/>
    </contour>
  </outline>
</glyph>
<glyph name="X" format="2">
  <advance width="1084.3902439024691"/>
  <unicode hex="0058"/>
  <outline>
    <contour>
      <point x="35.1219482421875" y="0" type="line"/>
      <point x="321.052734375" y="0" type="line"/>
      <point x="542.1951217651367" y="327.9712677001953" type="line"/>
      <point x="763.3375091552734" y="0" type="line"/>
      <point x="1049.268295288086" y="0" type="line"/>
      <point x="685.160514831543" y="540" type="line"/>
      <point x="1049.268295288086" y="1080" type="line"/>
      <point x="763.3375091552734" y="1080" type="line"/>
      <point x="542.1951217651367" y="752.0287322998047" type="line"/>
      <point x="321.052734375" y="1080" type="line"/>
      <point x="35.1219482421875" y="1080" type="line"/>
      <point x="399.22972869873047" y="540" type="line"/>
    </contour>
  </outline>
</glyph>
<glyph name="Y" format="2">
  <advance width="1050.2385957953193"/>
  <unicode hex="0059"/>
  <anchor x="525.1192978976596" y="1192.4821499404998" name="above" identifier="above"/>
  <anchor x="525.1192978976596" y="-102.8163427211424" name="below" identifier="below"/>
  <outline>
    <contour>
      <point x="396.3846664428711" y="0" type="line"/>
      <point x="653.8539276123047" y="0" type="line"/>
      <point x="653.8539276123047" y="395.77916717529297" type="line"/>
      <point x="1065.775291442871" y="1089.6658096313477" type="line"/>
      <point x="771.2169189453125" y="1089.6658096313477" type="line"/>
      <point x="525.1193008422852" y="672.4990081787109" type="line"/>
      <point x="279.0216827392578" y="1089.6658096313477" type="line"/>
      <point x="-15.536689758300781" y="1089.6658096313477" type="line"/>
      <point x="396.3846664428711" y="395.77916717529297" type="line"/>
    </contour>
  </outline>
</glyph>
<glyph name="Z" format="2">
  <advance width="926.921459738199"/>
  <unicode hex="005A"/>
  <anchor x="463.4607298690995" y="1192.4821499404998" name="above" identifier="above"/>
  <anchor x="463.4607298690995" y="-102.8163427211424" name="below" identifier="below"/>
  <anchor x="463.4607298690995" y="554.3384591652342" name="stroke" identifier="stroke"/>
  <outline>
    <contour>
      <point x="48.794921875" y="0" type="line"/>
      <point x="878.1265411376953" y="0" type="line"/>
      <point x="878.1265411376953" y="244.57196044921875" type="line"/>
      <point x="383.20741271972656" y="244.57196044921875" type="line"/>
      <point x="878.1265411376953" y="846.3835830688477" type="line"/>
      <point x="878.1265411376953" y="1089.6658096313477" type="line"/>
      <point x="48.794921875" y="1089.6658096313477" type="line"/>
      <point x="48.794921875" y="845.0938491821289" type="line"/>
      <point x="543.7140426635742" y="845.0938491821289" type="line"/>
      <point x="48.794921875" y="243.2822265625" type="line"/>
    </contour>
  </outline>
</glyph>
<glyph name="bracketleft" format="2">
  <advance width="566.3414634146341"/>
  <unicode hex="005B"/>
  <outline>
    <contour>
      <point x="138.2926788330078" y="-118.53659057617188" type="line"/>
      <point x="533.4146270751953" y="-118.53659057617188" type="line"/>
      <point x="533.4146270751953" y="118.53659057617188" type="line"/>
      <point x="375.36585235595703" y="118.53659057617188" type="line"/>
      <point x="375.36585235595703" y="1030.6097564697266" type="line"/>
      <point x="533.4146270751953" y="1030.6097564697266" type="line"/>
      <point x="533.4146270751953" y="1267.6829299926758" type="line"/>
      <point x="138.2926788330078" y="1267.6829299926758" type="line"/>
    </contour>
  </outline>
</glyph>
<glyph name="backslash" format="2">
  <advance width="906.1110246553853"/>
  <unicode hex="005C"/>
  <outline>
    <contour>
      <point x="818.30615" y="-52.68293" type="line"/>
      <point x="300.58068" y="1369.7561" type="line"/>
      <point x="48.29268" y="1369.7561" type="line"/>
      <point x="566.01815" y="-52.68293" type="line"/>
    </contour>
  </outline>
</glyph>
<glyph name="bracketright" format="2">
  <advance width="599.3550178500595"/>
  <unicode hex="005D"/>
  <outline>
    <contour>
      <point x="473.44783782958984" y="-115.83733367919922" type="line"/>
      <point x="473.44783782958984" y="1205.5031280517578" type="line"/>
      <point x="23.090843200683594" y="1205.5031280517578" type="line"/>
      <point x="23.090843200683594" y="973.828483581543" type="line"/>
      <point x="215.97857666015625" y="973.828483581543" type="line"/>
      <point x="215.97857666015625" y="115.83733367919922" type="line"/>
      <point x="23.090843200683594" y="115.83733367919922" type="line"/>
      <point x="23.090843200683594" y="-115.83733367919922" type="line"/>
    </contour>
  </outline>
</glyph>
<glyph name="asciicircum" format="2">
  <advance width="830.7692307692867"/>
  <unicode hex="005E"/>
  <outline>
    <contour>
      <point x="52.68292999267578" y="526.8292694091797" type="line"/>
      <point x="310.0942153930664" y="526.8292694091797" type="line"/>
      <point x="415.3846130371094" y="775.7376098632812" type="line"/>
      <point x="520.6750106811523" y="526.8292694091797" type="line"/>
      <point x="778.0863037109375" y="526.8292694091797" type="line"/>
      <point x="544.0902633666992" y="1080" type="line"/>
      <point x="286.67897033691406" y="1080" type="line"/>
    </contour>
  </outline>
</glyph>
<glyph name="power" format="2">
  <advance width="826.3789868668293"/>
  <unicode hex="005E"/>
  <outline>
    <contour>
      <point x="50.48780059814453" y="522.6500930786133" type="line"/>
      <point x="285.8834991455078" y="522.6500930786133" type="line"/>
      <point x="413.1894989013672" y="816.5309219360352" type="line"/>
      <point x="540.495491027832" y="522.6500930786133" type="line"/>
      <point x="775.8911819458008" y="522.6500930786133" type="line"/>
      <point x="530.887336730957" y="1088.2317123413086" type="line"/>
      <point x="295.4916534423828" y="1088.2317123413086" type="line"/>
    </contour>
  </outline>
</glyph>
<glyph name="underscore" format="2">
  <advance width="816.5853658536586"/>
  <unicode hex="005F"/>
  <outline>
    <contour>
      <point x="0.0" y="-176.4878" type="line"/>
      <point x="816.58537" y="-176.4878" type="line"/>
      <point x="816.58537" y="13.17073" type="line"/>
      <point x="0.0" y="13.17073" type="line"/>
    </contour>
  </outline>
</glyph>
<glyph name="grave" format="2">
  <advance width="532.7003221923695"/>
  <unicode hex="0060"/>
  <outline>
    <contour>
      <point x="444.89544414358903" y="891.219512195122" type="line"/>
      <point x="278.4754513400644" y="1185.3658536585365" type="line"/>
      <point x="87.8048780487805" y="1185.3658536585365" type="line"/>
      <point x="254.22487085230506" y="891.219512195122" type="line"/>
    </contour>
  </outline>
</glyph>
<glyph name="a" format="2">
  <advance width="1000.7367886178861"/>
  <unicode hex="0061"/>
  <anchor x="489.5858739837398" y="942.1189024390244" name="above" identifier="above"/>
  <anchor x="489.5858739837398" y="-105.36585365853658" name="below" identifier="below"/>
  <anchor x="921.7123983739837" y="0" name="ogonek" identifier="ogonek"/>
  <outline>
    <contour>
      <point x="692.0148391723633" y="0" type="line"/>
      <point x="921.71240234375" y="0" type="line"/>
      <point x="921.71240234375" y="836.7530517578125" type="line"/>
      <point x="692.0148391723633" y="836.7530517578125" type="line"/>
      <point x="692.0148391723633" y="802.9252700805664" type="line"/>
      <point x="630.3934283132625" y="836.1977895782366"/>
      <point x="559.88641166351" y="855.08638"/>
      <point x="485.00254" y="855.08638" type="curve" smooth="yes"/>
      <point x="243.97581" y="855.08638"/>
      <point x="48.29268" y="659.40325"/>
      <point x="48.29268" y="418.37652" type="curve" smooth="yes"/>
      <point x="48.29268" y="177.34979"/>
      <point x="243.97581" y="-18.33333"/>
      <point x="485.00254" y="-18.33333" type="curve" smooth="yes"/>
      <point x="559.88641166351" y="-18.33333"/>
      <point x="630.3934283132625" y="0.555259456499261"/>
      <point x="692.0148391723633" y="33.828857421875" type="curve"/>
    </contour>
    <contour>
      <point x="692.01484" y="418.37652" type="curve" smooth="yes"/>
      <point x="692.01484" y="304.12333"/>
      <point x="599.25574" y="211.36423"/>
      <point x="485.00254" y="211.36423" type="curve" smooth="yes"/>
      <point x="370.74934" y="211.36423"/>
      <point x="277.99024" y="304.12333"/>
      <point x="277.99024" y="418.37652" type="curve" smooth="yes"/>
      <point x="277.99024" y="532.62972"/>
      <point x="370.74934" y="625.38882"/>
      <point x="485.00254" y="625.38882" type="curve" smooth="yes"/>
      <point x="599.25574" y="625.38882"/>
      <point x="692.01484" y="532.62972"/>
    </contour>
  </outline>
</glyph>
<glyph name="b" format="2">
  <advance width="1000.7367886178861"/>
  <unicode hex="0062"/>
  <anchor x="515.7342479674796" y="942.1189024390244" name="above" identifier="above"/>
  <anchor x="511.1509146341464" y="-105.36585365853658" name="below" identifier="below"/>
  <outline>
    <contour>
      <point x="79.0243911743164" y="0" type="line"/>
      <point x="308.7219467163086" y="0" type="line"/>
      <point x="308.7219467163086" y="33.82777404785156" type="line"/>
      <point x="370.3433616867375" y="0.555259456499293"/>
      <point x="440.85037833649" y="-18.333329999999982"/>
      <point x="515.7342500000001" y="-18.33332999999999" type="curve" smooth="yes"/>
      <point x="756.76098" y="-18.33333"/>
      <point x="952.44411" y="177.34979"/>
      <point x="952.44411" y="418.37652" type="curve" smooth="yes"/>
      <point x="952.44411" y="659.40325"/>
      <point x="756.76098" y="855.08638"/>
      <point x="515.73425" y="855.08638" type="curve" smooth="yes"/>
      <point x="440.85037833649" y="855.08638"/>
      <point x="370.3433616867376" y="836.1977895782366"/>
      <point x="308.7219467163086" y="802.9241943359375" type="curve"/>
      <point x="308.7219467163086" y="1149.146339416504" type="line"/>
      <point x="79.0243911743164" y="1149.146339416504" type="line"/>
    </contour>
    <contour>
      <point x="722.74654" y="418.37652" type="curve" smooth="yes"/>
      <point x="722.74654" y="304.12333"/>
      <point x="629.98744" y="211.36423"/>
      <point x="515.73425" y="211.36423" type="curve" smooth="yes"/>
      <point x="401.48105" y="211.36423"/>
      <point x="308.72195" y="304.12333"/>
      <point x="308.72195" y="418.37652" type="curve" smooth="yes"/>
      <point x="308.72195" y="532.62972"/>
      <point x="401.48105" y="625.38882"/>
      <point x="515.73425" y="625.38882" type="curve" smooth="yes"/>
      <point x="629.98744" y="625.38882"/>
      <point x="722.74654" y="532.62972"/>
    </contour>
  </outline>
</glyph>
<glyph name="c" format="2">
  <advance width="999.7829850707543"/>
  <unicode hex="0063"/>
  <anchor x="504.50274258743184" y="944.2302161840539" name="above" identifier="above"/>
  <anchor x="504.50274258743184" y="-102.8163427211424" name="below" identifier="below"/>
  <anchor x="509.2555203652096" y="0" name="cedilla" identifier="cedilla"/>
  <outline>
    <contour>
      <point x="507.57955" y="-19.01111" type="curve" smooth="yes"/>
      <point x="732.3568400000001" y="-19.01111"/>
      <point x="920.04238" y="128.20051999999993"/>
      <point x="964.25423" y="329.36294" type="curve"/>
      <point x="702.71436" y="329.36294" type="line"/>
      <point x="668.41854" y="256.91777"/>
      <point x="594.64603" y="206.77956"/>
      <point x="509.25552" y="206.77956" type="curve" smooth="yes"/>
      <point x="391.18579" y="206.77956"/>
      <point x="295.32815" y="302.63721"/>
      <point x="295.32815" y="420.70694" type="curve"/>
      <point x="295.32815" y="538.77667"/>
      <point x="391.18579" y="634.63431"/>
      <point x="509.25552" y="634.63431" type="curve" smooth="yes"/>
      <point x="594.64591" y="634.63431"/>
      <point x="668.41833" y="584.49624"/>
      <point x="702.7143" y="512.05094" type="curve"/>
      <point x="964.2578" y="512.05094" type="line"/>
      <point x="920.0527" y="713.20525"/>
      <point x="732.3630200000001" y="860.42498"/>
      <point x="507.57955" y="860.42498" type="curve" smooth="yes"/>
      <point x="249.08459999999985" y="860.42498"/>
      <point x="39.37009000000001" y="667.2646800000001"/>
      <point x="39.37009" y="420.70694" type="curve"/>
      <point x="39.37009000000001" y="174.1491999999999"/>
      <point x="249.08459999999985" y="-19.011109999999967"/>
    </contour>
  </outline>
</glyph>
<glyph name="d" format="2">
  <advance width="1000.7367886178861"/>
  <unicode hex="0064"/>
  <anchor x="485.0025406504065" y="942.1189024390244" name="above" identifier="above"/>
  <anchor x="489.5858739837398" y="-105.36585365853658" name="below" identifier="below"/>
  <anchor x="806.8636178861788" y="992.9496951219512" name="stroke" identifier="stroke"/>
  <anchor x="1027.0782520325201" y="1149.1463414634147" name="caron" identifier="caron"/>
  <outline>
    <contour>
      <point x="692.0148391723633" y="0" type="line"/>
      <point x="921.71240234375" y="0" type="line"/>
      <point x="921.71240234375" y="1149.146339416504" type="line"/>
      <point x="692.0148391723633" y="1149.146339416504" type="line"/>
      <point x="692.0148391723633" y="802.9252700805664" type="line"/>
      <point x="630.3934283132625" y="836.1977895782366"/>
      <point x="559.88641166351" y="855.08638"/>
      <point x="485.00254" y="855.08638" type="curve" smooth="yes"/>
      <point x="243.97581" y="855.08638"/>
      <point x="48.29268" y="659.40325"/>
      <point x="48.29268" y="418.37652" type="curve" smooth="yes"/>
      <point x="48.29268" y="177.34979"/>
      <point x="243.97581" y="-18.33333"/>
      <point x="485.00254" y="-18.33333" type="curve" smooth="yes"/>
      <point x="559.88641166351" y="-18.33333"/>
      <point x="630.3934283132625" y="0.555259456499261"/>
      <point x="692.0148391723633" y="33.828857421875" type="curve"/>
    </contour>
    <contour>
      <point x="692.01484" y="418.37652" type="curve" smooth="yes"/>
      <point x="692.01484" y="304.12333"/>
      <point x="599.25574" y="211.36423"/>
      <point x="485.00254" y="211.36423" type="curve" smooth="yes"/>
      <point x="370.74934" y="211.36423"/>
      <point x="277.99024" y="304.12333"/>
      <point x="277.99024" y="418.37652" type="curve" smooth="yes"/>
      <point x="277.99024" y="532.62972"/>
      <point x="370.74934" y="625.38882"/>
      <point x="485.00254" y="625.38882" type="curve" smooth="yes"/>
      <point x="599.25574" y="625.38882"/>
      <point x="692.01484" y="532.62972"/>
    </contour>
  </outline>
</glyph>
<glyph name="e" format="2">
  <advance width="1012.5042565936334"/>
  <unicode hex="0065"/>
  <anchor x="506.25212829681675" y="944.2302161840539" name="above" identifier="above"/>
  <anchor x="506.25212829681675" y="-102.8163427211424" name="below" identifier="below"/>
  <anchor x="506.25212829681675" y="0" name="cedilla" identifier="cedilla"/>
  <anchor x="506.25212829681675" y="0" name="ogonek" identifier="ogonek"/>
  <outline>
    <contour>
      <point x="950.18205" y="283.52752" type="curve"/>
      <point x="706.4947967529297" y="283.5275192260742" type="line"/>
      <point x="662.08617" y="224.32946999999996"/>
      <point x="588.92078" y="187.92712"/>
      <point x="506.25213" y="187.92712" type="curve"/>
      <point x="402.90170147143994" y="187.92712"/>
      <point x="315.1920331955594" y="255.42578517369236"/>
      <point x="284.83975982666016" y="348.7554626464844" type="curve"/>
      <point x="740.2630271911621" y="348.75545501708984" type="line"/>
      <point x="966.9827728271484" y="348.7554473876953" type="line"/>
      <point x="971.02974" y="372.14043"/>
      <point x="973.13417" y="396.17568"/>
      <point x="973.13417" y="420.70694" type="curve"/>
      <point x="973.13417" y="665.2004"/>
      <point x="764.09442" y="860.42498"/>
      <point x="506.25213" y="860.42498" type="curve"/>
      <point x="248.40983" y="860.42498"/>
      <point x="39.37009" y="665.2004"/>
      <point x="39.37009" y="420.70694" type="curve"/>
      <point x="39.37009" y="176.21347"/>
      <point x="248.40983" y="-19.01111"/>
      <point x="506.25213" y="-19.01111" type="curve"/>
      <point x="713.48127" y="-19.01111"/>
      <point x="889.18681" y="107.09259"/>
    </contour>
    <contour>
      <point x="506.25213" y="641.1415700000001" type="curve"/>
      <point x="605.57515759903" y="641.14157"/>
      <point x="691.180187163307" y="595.2485274381308"/>
      <point x="729.6754913330078" y="517.3031616210938" type="curve"/>
      <point x="295.50829315185547" y="517.3031616210938" type="line"/>
      <point x="332.72321393925864" y="592.8383177195886"/>
      <point x="413.13997719531994" y="641.14157"/>
    </contour>
  </outline>
</glyph>
<glyph name="f" format="2">
  <advance width="642.4953095684804"/>
  <unicode hex="0066"/>
  <outline>
    <contour>
      <point x="132.28624725341797" y="0" type="line"/>
      <point x="369.3594207763672" y="0" type="line"/>
      <point x="369.3594207763672" y="579.5121917724609" type="line"/>
      <point x="594.2026290893555" y="579.5121917724609" type="line"/>
      <point x="594.2026290893555" y="816.5853652954102" type="line"/>
      <point x="369.3594207763672" y="816.5853652954102" type="line"/>
      <point x="369.3594207763672" y="855.4703826904297" type="line"/>
      <point x="369.35942106673815" y="877.6239060292683"/>
      <point x="387.3452711350309" y="895.609756097561"/>
      <point x="409.4987938890378" y="895.609756097561" type="curve"/>
      <point x="594.2026290893555" y="895.6097564697266" type="line"/>
      <point x="594.2026290893555" y="1132.6829299926758" type="line"/>
      <point x="409.49879455566406" y="1132.6829299926758" type="line"/>
      <point x="256.5010273691772" y="1132.6829268292684"/>
      <point x="132.28625033503084" y="1008.4681497951219"/>
      <point x="132.28625033503084" y="855.4703832752613" type="curve"/>
      <point x="132.28624725341797" y="816.5853652954102" type="line"/>
      <point x="39.51219177246094" y="816.5853652954102" type="line"/>
      <point x="39.51219177246094" y="579.5121917724609" type="line"/>
      <point x="132.28624725341797" y="579.5121917724609" type="line"/>
    </contour>
  </outline>
</glyph>
<glyph name="g" format="2">
  <advance width="1050.0666540908223"/>
  <unicode hex="0067"/>
  <anchor x="533.3627376364465" y="944.2302161840539" name="above" identifier="above"/>
  <outline>
    <contour>
      <point x="516.2295" y="203.37939" type="curve" smooth="yes"/>
      <point x="396.28317" y="203.37939"/>
      <point x="298.90196" y="300.7606"/>
      <point x="298.90196" y="420.70694" type="curve"/>
      <point x="298.90196" y="540.65327"/>
      <point x="396.28317" y="638.03448"/>
      <point x="516.2295" y="638.03448" type="curve" smooth="yes"/>
      <point x="636.17584" y="638.03448"/>
      <point x="733.55705" y="540.65327"/>
      <point x="733.55705" y="420.70694" type="curve"/>
      <point x="733.55705" y="300.7606"/>
      <point x="636.17584" y="203.37939"/>
    </contour>
    <contour>
      <point x="519.58973" y="-404.7866" type="curve"/>
      <point x="741.4570671827595" y="-404.7866"/>
      <point x="980.7084608457446" y="-285.23110162680064"/>
      <point x="980.708459948538" y="63.45629" type="curve"/>
      <point x="980.7084579467773" y="841.4138717651367" type="line"/>
      <point x="752.1277313232422" y="841.4138717651367" type="line"/>
      <point x="752.1277313232422" y="743.0609970092773" type="line"/>
      <point x="684.598945065998" y="815.8840798038738"/>
      <point x="589.967065646" y="860.4249799999999"/>
      <point x="474.57959" y="860.4249799999999" type="curve" smooth="yes"/>
      <point x="231.8925899999999" y="860.42498"/>
      <point x="39.37009000000001" y="663.3939300000001"/>
      <point x="39.37009" y="420.70694" type="curve"/>
      <point x="39.37009000000001" y="180.5082799999999"/>
      <point x="234.3809299999999" y="-12.82087999999997"/>
      <point x="474.57959" y="-12.82088" type="curve" smooth="yes"/>
      <point x="579.01686511064" y="-12.82088"/>
      <point x="667.2637668103234" y="24.188347951652112"/>
      <point x="733.5570526123047" y="85.80044555664062" type="curve"/>
      <point x="733.5570526123047" y="62.12836837768555" type="line"/>
      <point x="733.5570526123047" y="-119.51376817339428"/>
      <point x="616.9351924838859" y="-182.39609"/>
      <point x="519.58973" y="-182.39609" type="curve"/>
      <point x="427.92110999999994" y="-182.39609"/>
      <point x="352.99711" y="-129.05235000000002"/>
      <point x="319.16738" y="-51.40817" type="curve"/>
      <point x="67.36849212646484" y="-51.408172607421875" type="line"/>
      <point x="108.51959000000001" y="-264.19420000000014"/>
      <point x="288.26263999999986" y="-404.7866"/>
    </contour>
  </outline>
</glyph>
<glyph name="h" format="2">
  <advance width="936.0785402618009"/>
  <unicode hex="0068"/>
  <anchor x="474.4652915509718" y="1272.8877429591432" name="above" identifier="above"/>
  <anchor x="474.4652915509718" y="-102.8163427211424" name="below" identifier="below"/>
  <anchor x="193.5787643792146" y="1272.8877429591432" name="stem" identifier="stem"/>
  <anchor x="193.5787643792146" y="0" name="cedilla" identifier="cedilla"/>
  <anchor x="193.5787643792146" y="1005.7426368504562" name="stroke" identifier="stroke"/>
  <outline>
    <contour>
      <point x="69.35819244384766" y="0" type="line"/>
      <point x="317.7993392944336" y="0" type="line"/>
      <point x="317.7993392944336" y="460.23884126224044" type="line"/>
      <point x="317.7993392944336" y="588.4356970151596"/>
      <point x="400.9357116404667" y="636.87396"/>
      <point x="474.46529" y="636.87396" type="curve" smooth="yes"/>
      <point x="547.9948647244645" y="636.87396"/>
      <point x="631.1312503438976" y="588.4356995490316"/>
      <point x="631.1312499365473" y="460.23884462308405" type="curve"/>
      <point x="631.1312484741211" y="0" type="line"/>
      <point x="879.5723876953125" y="0" type="line"/>
      <point x="879.5723876953125" y="460.2080078125" type="line"/>
      <point x="879.5723876953125" y="756.7200670397904"/>
      <point x="698.6359672050254" y="860.42498"/>
      <point x="537.33774" y="860.42498" type="curve" smooth="yes"/>
      <point x="439.65458675983996" y="860.42498"/>
      <point x="367.2707880422674" y="823.5082027390519"/>
      <point x="317.7993392944336" y="762.8669357299805" type="curve"/>
      <point x="317.7993392944336" y="1170.071403503418" type="line"/>
      <point x="69.35819244384766" y="1170.071403503418" type="line"/>
    </contour>
  </outline>
</glyph>
<glyph name="i" format="2">
  <advance width="395.12195121951225"/>
  <unicode hex="0069"/>
  <outline>
    <contour>
      <point x="347.70732" y="1054.17465" type="curve" smooth="yes"/>
      <point x="347.70732" y="1137.04267"/>
      <point x="280.429" y="1204.32099"/>
      <point x="197.56098" y="1204.32099" type="curve" smooth="yes"/>
      <point x="114.69295" y="1204.32099"/>
      <point x="47.41463" y="1137.04267"/>
      <point x="47.41463" y="1054.17465" type="curve" smooth="yes"/>
      <point x="47.41463" y="971.30663"/>
      <point x="114.69295" y="904.02831"/>
      <point x="197.56098" y="904.02831" type="curve" smooth="yes"/>
      <point x="280.429" y="904.02831"/>
      <point x="347.70732" y="971.30663"/>
    </contour>
    <contour>
      <point x="79.02439" y="0.0" type="line"/>
      <point x="316.09756" y="0.0" type="line"/>
      <point x="316.09756" y="836.75305" type="line"/>
      <point x="79.02439" y="836.75305" type="line"/>
    </contour>
  </outline>
</glyph>
<glyph name="j" format="2">
  <advance width="412.6829268292683"/>
  <unicode hex="006A"/>
  <outline>
    <contour>
      <point x="360.70244" y="1034.00697" type="curve" smooth="yes"/>
      <point x="360.70244" y="1116.87499"/>
      <point x="293.42412" y="1184.15331"/>
      <point x="210.5561" y="1184.15331" type="curve" smooth="yes"/>
      <point x="127.68808" y="1184.15331"/>
      <point x="60.40976" y="1116.87499"/>
      <point x="60.40976" y="1034.00697" type="curve" smooth="yes"/>
      <point x="60.40976" y="951.13895"/>
      <point x="127.68808" y="883.86063"/>
      <point x="210.5561" y="883.86063" type="curve" smooth="yes"/>
      <point x="293.42412" y="883.86063"/>
      <point x="360.70244" y="951.13895"/>
    </contour>
    <contour>
      <point x="-170.5923309326172" y="-434.63414764404297" type="line"/>
      <point x="-45.71428680419922" y="-434.63414764404297" type="line"/>
      <point x="141.4098978072047" y="-434.63414764404297"/>
      <point x="324.8780495508039" y="-314.1904599889657"/>
      <point x="324.87805003903526" y="-64.04181" type="curve"/>
      <point x="324.8780517578125" y="816.5853729248047" type="line"/>
      <point x="96.2341537475586" y="816.5853729248047" type="line"/>
      <point x="96.2341537475586" y="-68.49784988217036" type="line"/>
      <point x="96.2341537475586" y="-96.23167604293751"/>
      <point x="95.08040345584372" y="-205.99023832879973"/>
      <point x="-45.71428999999999" y="-205.99024027670094" type="curve"/>
      <point x="-170.5923309326172" y="-205.99024200439453" type="line"/>
    </contour>
  </outline>
</glyph>
<glyph name="k" format="2">
  <advance width="906.1463414634276"/>
  <unicode hex="006B"/>
  <anchor x="393.86759581881535" y="1238.0487804878048" name="above" identifier="above"/>
  <anchor x="393.86759581881535" y="-105.36585365853658" name="below" identifier="below"/>
  <anchor x="202.12682926829268" y="1238.0487804878048" name="stem" identifier="stem"/>
  <anchor x="482.0121951219512" y="-105.36585365853658" name="macronbelow" identifier="macronbelow"/>
  <outline>
    <contour>
      <point x="87.80487823486328" y="0" type="line"/>
      <point x="316.4487762451172" y="0" type="line"/>
      <point x="316.4487762451172" y="303.23201751708984" type="line"/>
      <point x="585.5325088500977" y="0" type="line"/>
      <point x="891.2195129394531" y="0" type="line"/>
      <point x="527.7377014160156" y="409.60975646972656" type="line"/>
      <point x="888.8820114135742" y="816.5853729248047" type="line"/>
      <point x="583.1950073242188" y="816.5853729248047" type="line"/>
      <point x="316.4487762451172" y="515.9875030517578" type="line"/>
      <point x="316.4487762451172" y="1132.6829299926758" type="line"/>
      <point x="87.80487823486328" y="1132.6829299926758" type="line"/>
    </contour>
  </outline>
</glyph>
<glyph name="l" format="2">
  <advance width="412.6829268292683"/>
  <unicode hex="006C"/>
  <anchor x="206.34146341463415" y="1238.0487804878048" name="above" identifier="above"/>
  <anchor x="206.34146341463415" y="-105.36585365853658" name="below" identifier="below"/>
  <anchor x="430.2439024390244" y="1132.6829268292684" name="caron" identifier="caron"/>
  <anchor x="206.34146341463415" y="566.3414634146342" name="stroke" identifier="stroke"/>
  <anchor x="412.6829268292683" y="566.3414634146342" name="dotmiddle" identifier="dotmiddle"/>
  <outline>
    <contour>
      <point x="87.80488" y="0.0" type="line"/>
      <point x="324.87805" y="0.0" type="line"/>
      <point x="324.87805" y="1132.68293" type="line"/>
      <point x="87.80488" y="1132.68293" type="line"/>
    </contour>
  </outline>
</glyph>
<glyph name="m" format="2">
  <advance width="1413.658536585366"/>
  <unicode hex="006D"/>
  <outline>
    <contour>
      <point x="87.80487823486328" y="0" type="line"/>
      <point x="324.8780517578125" y="0" type="line"/>
      <point x="324.8780517578125" y="459.51219940185547" type="line"/>
      <point x="324.87805" y="534.02072"/>
      <point x="385.36952" y="594.5122"/>
      <point x="459.87805" y="594.5122" type="curve" smooth="yes"/>
      <point x="534.38658" y="594.5122"/>
      <point x="594.87805" y="534.02072"/>
      <point x="594.87805" y="459.5122" type="curve"/>
      <point x="594.8780517578125" y="0" type="line"/>
      <point x="831.9512176513672" y="0" type="line"/>
      <point x="831.9512176513672" y="459.51219940185547" type="line"/>
      <point x="831.95122" y="534.02072"/>
      <point x="892.44269" y="594.5122"/>
      <point x="966.95122" y="594.5122" type="curve" smooth="yes"/>
      <point x="1041.45975" y="594.5122"/>
      <point x="1101.95122" y="534.02072"/>
      <point x="1101.95122" y="459.5122" type="curve"/>
      <point x="1101.9512176513672" y="0" type="line"/>
      <point x="1339.0243911743164" y="0" type="line"/>
      <point x="1339.0243911743164" y="459.51219940185547" type="line"/>
      <point x="1339.02439" y="664.86497"/>
      <point x="1172.30399" y="831.58537"/>
      <point x="966.95122" y="831.58537" type="curve" smooth="yes"/>
      <point x="869.0236178062501" y="831.58537"/>
      <point x="779.8813938197384" y="793.6715229110938"/>
      <point x="713.4150314331055" y="731.7221145629883" type="curve"/>
      <point x="646.9486238999414" y="793.6712048912639"/>
      <point x="557.8060628992899" y="831.58537"/>
      <point x="459.8780499999999" y="831.58537" type="curve" smooth="yes"/>
      <point x="412.26967986151" y="831.58537"/>
      <point x="366.7377375889156" y="822.6244161580985"/>
      <point x="324.8780517578125" y="806.2884521484375" type="curve"/>
      <point x="324.8780517578125" y="816.5853729248047" type="line"/>
      <point x="87.80487823486328" y="816.5853729248047" type="line"/>
    </contour>
  </outline>
</glyph>
<glyph name="n" format="2">
  <advance width="941.7073170731708"/>
  <unicode hex="006E"/>
  <anchor x="477.43902439024396" y="942.1189024390244" name="above" identifier="above"/>
  <anchor x="477.43902439024396" y="-105.36585365853658" name="below" identifier="below"/>
  <anchor x="79.02439024390245" y="0" name="hookleft" identifier="hookleft"/>
  <outline>
    <contour>
      <point x="79.0243911743164" y="0" type="line"/>
      <point x="308.7219467163086" y="0" type="line"/>
      <point x="308.7219467163086" y="436.6717529296875" type="line"/>
      <point x="308.7219467163086" y="576.5030099129986"/>
      <point x="403.000553591267" y="625.38882"/>
      <point x="477.43902" y="625.38882" type="curve" smooth="yes"/>
      <point x="551.877491408733" y="625.38882"/>
      <point x="646.156100679066" y="576.5030084481548"/>
      <point x="646.156099886663" y="436.67175" type="curve"/>
      <point x="646.1560974121094" y="0" type="line"/>
      <point x="875.8536605834961" y="0" type="line"/>
      <point x="875.8536605834961" y="436.6717529296875" type="line"/>
      <point x="875.8536605834961" y="710.6845450854713"/>
      <point x="670.7475611147756" y="855.08638"/>
      <point x="477.43902" y="855.08638" type="curve" smooth="yes"/>
      <point x="417.14754100823995" y="855.08638"/>
      <point x="359.9660249877776" y="841.6651429295049"/>
      <point x="308.7219467163086" y="817.6413497924805" type="curve"/>
      <point x="308.7219467163086" y="836.7530517578125" type="line"/>
      <point x="79.0243911743164" y="836.7530517578125" type="line"/>
    </contour>
  </outline>
</glyph>
<glyph name="o" format="2">
  <advance width="970.0050813008129"/>
  <unicode hex="006F"/>
  <anchor x="485.0025406504065" y="942.1189024390244" name="above" identifier="above"/>
  <anchor x="485.0025406504065" y="-105.36585365853658" name="below" identifier="below"/>
  <anchor x="485.0025406504065" y="0" name="ogonek" identifier="ogonek"/>
  <anchor x="485.0025406504065" y="418.3765243902439" name="stroke" identifier="stroke"/>
  <anchor x="485.0025406504065" y="855.0863821138211" name="horn" identifier="horn"/>
  <outline>
    <contour>
      <point x="921.7124" y="418.37652" type="curve" smooth="yes"/>
      <point x="921.7124" y="659.40325"/>
      <point x="726.02927" y="855.08638"/>
      <point x="485.00254" y="855.08638" type="curve" smooth="yes"/>
      <point x="243.97581" y="855.08638"/>
      <point x="48.29268" y="659.40325"/>
      <point x="48.29268" y="418.37652" type="curve" smooth="yes"/>
      <point x="48.29268" y="177.34979"/>
      <point x="243.97581" y="-18.33333"/>
      <point x="485.00254" y="-18.33333" type="curve" smooth="yes"/>
      <point x="726.02927" y="-18.33333"/>
      <point x="921.7124" y="177.34979"/>
    </contour>
    <contour>
      <point x="692.01484" y="418.37652" type="curve" smooth="yes"/>
      <point x="692.01484" y="304.12333"/>
      <point x="599.25574" y="211.36423"/>
      <point x="485.00254" y="211.36423" type="curve" smooth="yes"/>
      <point x="370.74934" y="211.36423"/>
      <point x="277.99024" y="304.12333"/>
      <point x="277.99024" y="418.37652" type="curve" smooth="yes"/>
      <point x="277.99024" y="532.62972"/>
      <point x="370.74934" y="625.38882"/>
      <point x="485.00254" y="625.38882" type="curve" smooth="yes"/>
      <point x="599.25574" y="625.38882"/>
      <point x="692.01484" y="532.62972"/>
    </contour>
  </outline>
</glyph>
<glyph name="p" format="2">
  <advance width="1050.066654090822"/>
  <unicode hex="0070"/>
  <anchor x="509.07623903653746" y="944.2302161840539" name="above" identifier="above"/>
  <outline>
    <contour>
      <point x="69.35819244384766" y="-364.904296875" type="line"/>
      <point x="316.5096130371094" y="-364.904296875" type="line"/>
      <point x="316.5096130371094" y="79.6881332397461" type="line"/>
      <point x="382.38821802529026" y="17.99149646882205"/>
      <point x="470.31622601360004" y="-19.011110000000023"/>
      <point x="575.48706" y="-19.01111000000003" type="curve" smooth="yes"/>
      <point x="818.17406" y="-19.01111"/>
      <point x="1010.69656" y="178.01994"/>
      <point x="1010.69656" y="420.70694" type="curve"/>
      <point x="1010.69656" y="663.39393"/>
      <point x="818.17406" y="860.42498"/>
      <point x="575.48706" y="860.42498" type="curve" smooth="yes"/>
      <point x="460.09958910858" y="860.42498"/>
      <point x="365.4677099219558" y="815.8840798038739"/>
      <point x="297.9389190673828" y="743.0632858276367" type="curve"/>
      <point x="297.9389190673828" y="841.4138717651367" type="line"/>
      <point x="69.35819244384766" y="841.4138717651367" type="line"/>
    </contour>
    <contour>
      <point x="533.83715" y="638.03448" type="curve" smooth="yes"/>
      <point x="653.78348" y="638.03448"/>
      <point x="751.16469" y="540.65327"/>
      <point x="751.16469" y="420.70694" type="curve"/>
      <point x="751.16469" y="300.7606"/>
      <point x="653.78348" y="203.37939"/>
      <point x="533.83715" y="203.37939" type="curve" smooth="yes"/>
      <point x="413.89081" y="203.37939"/>
      <point x="316.50961" y="300.7606"/>
      <point x="316.50961" y="420.70694" type="curve"/>
      <point x="316.50961" y="540.65327"/>
      <point x="413.89081" y="638.03448"/>
    </contour>
  </outline>
</glyph>
<glyph name="q" format="2">
  <advance width="1050.0666540908223"/>
  <unicode hex="0071"/>
  <outline>
    <contour>
      <point x="516.2295" y="203.37939" type="curve" smooth="yes"/>
      <point x="396.28317" y="203.37939"/>
      <point x="298.90196" y="300.7606"/>
      <point x="298.90196" y="420.70694" type="curve"/>
      <point x="298.90196" y="540.65327"/>
      <point x="396.28317" y="638.03448"/>
      <point x="516.2295" y="638.03448" type="curve" smooth="yes"/>
      <point x="636.17584" y="638.03448"/>
      <point x="733.55705" y="540.65327"/>
      <point x="733.55705" y="420.70694" type="curve"/>
      <point x="733.55705" y="300.7606"/>
      <point x="636.17584" y="203.37939"/>
    </contour>
    <contour>
      <point x="733.5570526123047" y="-364.904296875" type="line"/>
      <point x="980.7084579467773" y="-364.904296875" type="line"/>
      <point x="980.7084579467773" y="841.4138717651367" type="line"/>
      <point x="752.1277313232422" y="841.4138717651367" type="line"/>
      <point x="752.1277313232422" y="743.0609970092773" type="line"/>
      <point x="684.598945065998" y="815.8840798038738"/>
      <point x="589.967065646" y="860.4249799999999"/>
      <point x="474.57959" y="860.4249799999999" type="curve" smooth="yes"/>
      <point x="231.89259" y="860.42498"/>
      <point x="39.37009" y="663.39393"/>
      <point x="39.37009" y="420.70694" type="curve"/>
      <point x="39.37009" y="178.01994"/>
      <point x="231.89259" y="-19.01111"/>
      <point x="474.57959" y="-19.01111" type="curve" smooth="yes"/>
      <point x="579.75042832" y="-19.01111"/>
      <point x="667.678436885892" y="17.99149646882208"/>
      <point x="733.5570526123047" y="79.67730712890625" type="curve"/>
    </contour>
  </outline>
</glyph>
<glyph name="r" format="2">
  <advance width="591.713406667695"/>
  <unicode hex="0072"/>
  <anchor x="301.8329036096787" y="944.2302161840539" name="above" identifier="above"/>
  <anchor x="247.0937836459455" y="-102.8163427211424" name="below" identifier="below"/>
  <anchor x="196.14917294724313" y="-102.8163427211424" name="stembelow" identifier="stembelow"/>
  <outline>
    <contour>
      <point x="71.92859649658203" y="0" type="line"/>
      <point x="320.3697509765625" y="0" type="line"/>
      <point x="320.3697509765625" y="428.5477523803711" type="line"/>
      <point x="320.3697509765625" y="619.159552295067"/>
      <point x="483.0661737687715" y="620.4380201715684"/>
      <point x="512.2600199999999" y="620.4380196267758" type="curve"/>
      <point x="556.627326965332" y="620.4380187988281" type="line"/>
      <point x="556.627326965332" y="843.9890365600586" type="line"/>
      <point x="512.2600173950195" y="843.9890365600586" type="line"/>
      <point x="430.7278803755688" y="843.9890365600586"/>
      <point x="355.88383627814255" y="823.3693287426566"/>
      <point x="301.7021484375" y="735.5072860717773" type="curve"/>
      <point x="301.7021484375" y="841.4138717651367" type="line"/>
      <point x="71.92859649658203" y="841.4138717651367" type="line"/>
    </contour>
  </outline>
</glyph>
<glyph name="s" format="2">
  <advance width="835.9531949693745"/>
  <unicode hex="0073"/>
  <anchor x="414.5518462982123" y="944.2302161840539" name="above" identifier="above"/>
  <anchor x="414.5518462982123" y="-102.8163427211424" name="below" identifier="below"/>
  <anchor x="414.5518462982123" y="0" name="cedilla" identifier="cedilla"/>
  <outline>
    <contour>
      <point x="36.7996826171875" y="256.40731048583984" type="line"/>
      <point x="36.799682617187514" y="69.2599738808592"/>
      <point x="218.58090030011456" y="-19.011109999999974"/>
      <point x="414.55185" y="-19.01111" type="curve" smooth="yes"/>
      <point x="627.16182" y="-19.01111"/>
      <point x="799.15351" y="90.3754799999999"/>
      <point x="799.15351" y="252.48129" type="curve"/>
      <point x="799.15351" y="432.88753181254503"/>
      <point x="620.7518984276936" y="499.30467530767555"/>
      <point x="495.690533481801" y="518.6479515005996" type="curve"/>
      <point x="384.2523261678572" y="535.8841301034043" type="line"/>
      <point x="352.32803628400444" y="540.8218689226912"/>
      <point x="277.54644" y="552.6642143709968"/>
      <point x="277.54644" y="592.69823" type="curve"/>
      <point x="277.54644" y="631.2413708263538"/>
      <point x="346.8619949121063" y="653.52537"/>
      <point x="414.55185" y="653.52537" type="curve" smooth="yes"/>
      <point x="551.1726932108159" y="653.52537"/>
      <point x="551.5572490816837" y="604.7837183725126"/>
      <point x="551.5572502983186" y="588.772210703125" type="curve"/>
      <point x="551.5572509765625" y="579.84619140625" type="line"/>
      <point x="779.4519729614258" y="579.84619140625" type="line"/>
      <point x="779.4519729614258" y="588.7722091674805" type="line"/>
      <point x="779.4519729614258" y="772.0981318628004"/>
      <point x="603.2952128022196" y="860.42498"/>
      <point x="414.55185" y="860.42498" type="curve" smooth="yes"/>
      <point x="209.03538999999992" y="860.42498"/>
      <point x="42.802220000000005" y="751.7378700000002"/>
      <point x="42.80222" y="592.69823" type="curve"/>
      <point x="42.80222000000001" y="414.9711018683174"/>
      <point x="217.29834909173684" y="348.7704451733914"/>
      <point x="339.1812542405681" y="329.89029167483477" type="curve"/>
      <point x="450.4869929823323" y="312.6485839049992" type="line"/>
      <point x="481.81273455366795" y="307.79610021501225"/>
      <point x="564.40929" y="295.38860108228164"/>
      <point x="564.40929" y="252.48129" type="curve"/>
      <point x="564.40929" y="211.26426546400103"/>
      <point x="488.1921630117978" y="187.88851"/>
      <point x="414.55185" y="187.88851" type="curve" smooth="yes"/>
      <point x="265.1397409538742" y="187.88851000000003"/>
      <point x="264.69440313387776" y="239.17698061259858"/>
      <point x="264.69439907521206" y="256.40730912353524" type="curve"/>
      <point x="264.69439697265625" y="265.3333282470703" type="line"/>
      <point x="36.7996826171875" y="265.3333282470703" type="line"/>
    </contour>
  </outline>
</glyph>
<glyph name="t" format="2">
  <advance width="686.1009021049116"/>
  <unicode hex="0074"/>
  <outline>
    <contour>
      <point x="172.33783721923828" y="334.2857131958008" type="line"/>
      <point x="172.33783590282084" y="149.78840760000006"/>
      <point x="322.1262435028208" y="0.0"/>
      <point x="506.6235501885351" y="0.0" type="curve"/>
      <point x="629.0277328491211" y="0" type="line"/>
      <point x="629.0277328491211" y="237.07317352294922" type="line"/>
      <point x="506.62355041503906" y="237.07317352294922" type="line"/>
      <point x="452.97048726867445" y="237.0731707317073"/>
      <point x="409.4110066345281" y="280.6326513658537"/>
      <point x="409.4110066345281" y="334.2857142857143" type="curve"/>
      <point x="409.41100311279297" y="579.5121917724609" type="line"/>
      <point x="629.0277328491211" y="579.5121917724609" type="line"/>
      <point x="629.0277328491211" y="816.5853652954102" type="line"/>
      <point x="409.41100311279297" y="816.5853652954102" type="line"/>
      <point x="409.41100311279297" y="979.6515655517578" type="line"/>
      <point x="172.33783721923828" y="979.6515655517578" type="line"/>
      <point x="172.33783721923828" y="816.5853652954102" type="line"/>
      <point x="45.36585235595703" y="816.5853652954102" type="line"/>
      <point x="45.36585235595703" y="579.5121917724609" type="line"/>
      <point x="172.33783721923828" y="579.5121917724609" type="line"/>
    </contour>
  </outline>
</glyph>
<glyph name="u" format="2">
  <advance width="936.0785402618008"/>
  <unicode hex="0075"/>
  <anchor x="461.613248710829" y="944.2302161840539" name="above" identifier="above"/>
  <anchor x="461.613248710829" y="-102.8163427211424" name="below" identifier="below"/>
  <anchor x="866.7203490678302" y="0" name="ogonek" identifier="ogonek"/>
  <anchor x="866.7203490678302" y="841.4138734629115" name="horn" identifier="horn"/>
  <outline>
    <contour>
      <point x="56.50614929199219" y="381.20587158203125" type="line"/>
      <point x="56.50614929199221" y="84.69381235474083"/>
      <point x="237.44257279497467" y="-19.011109999999977"/>
      <point x="398.7408" y="-19.01111" type="curve" smooth="yes"/>
      <point x="513.0917172930401" y="-19.01111"/>
      <point x="592.7729887027119" y="31.57878425101751"/>
      <point x="641.6136932373047" y="111.59717559814453" type="curve"/>
      <point x="641.6136932373047" y="0" type="line"/>
      <point x="866.7203521728516" y="0" type="line"/>
      <point x="866.7203521728516" y="841.4138717651367" type="line"/>
      <point x="618.2791976928711" y="841.4138717651367" type="line"/>
      <point x="618.2791976928711" y="381.1750417758022" type="line"/>
      <point x="618.2791976928711" y="252.978176241984"/>
      <point x="535.1428247244645" y="204.53991"/>
      <point x="461.61325" y="204.53991" type="curve" smooth="yes"/>
      <point x="388.0836752755355" y="204.53991"/>
      <point x="304.9472903350938" y="252.97818222529224"/>
      <point x="304.94728993817165" y="381.17503715123985" type="curve"/>
      <point x="304.9472885131836" y="841.4138717651367" type="line"/>
      <point x="56.50614929199219" y="841.4138717651367" type="line"/>
    </contour>
  </outline>
</glyph>
<glyph name="v" format="2">
  <advance width="981.631097560988"/>
  <unicode hex="0076"/>
  <anchor x="490.8155487804878" y="942.1189024390244" name="above" identifier="above"/>
  <anchor x="490.8155487804878" y="-105.36585365853658" name="below" identifier="below"/>
  <outline>
    <contour>
      <point x="366.8227996826172" y="0" type="line"/>
      <point x="614.8082962036133" y="0" type="line"/>
      <point x="955.2896270751953" y="836.7530517578125" type="line"/>
      <point x="707.3041305541992" y="836.7530517578125" type="line"/>
      <point x="490.8155517578125" y="304.7195281982422" type="line"/>
      <point x="274.3269729614258" y="836.7530517578125" type="line"/>
      <point x="26.341461181640625" y="836.7530517578125" type="line"/>
    </contour>
  </outline>
</glyph>
<glyph name="w" format="2">
  <advance width="1373.155097183657"/>
  <unicode hex="0077"/>
  <anchor x="686.5775485918285" y="944.2302161840539" name="above" identifier="above"/>
  <anchor x="686.5775485918285" y="-102.8163427211424" name="below" identifier="below"/>
  <outline>
    <contour>
      <point x="1342.35302734375" y="841.4138717651367" type="line"/>
      <point x="1083.2330017089844" y="841.4138717651367" type="line"/>
      <point x="952.2935104370117" y="305.34193420410156" type="line"/>
      <point x="796.6648406982422" y="831.908317565918" type="line"/>
      <point x="576.4902496337891" y="831.908317565918" type="line"/>
      <point x="420.86158752441406" y="305.3419418334961" type="line"/>
      <point x="289.9220962524414" y="841.4138717651367" type="line"/>
      <point x="30.80206298828125" y="841.4138717651367" type="line"/>
      <point x="260.39351654052734" y="0" type="line"/>
      <point x="542.540657043457" y="0" type="line"/>
      <point x="686.5775527954102" y="511.91148376464844" type="line"/>
      <point x="830.6144409179688" y="0" type="line"/>
      <point x="1112.7615814208984" y="0" type="line"/>
    </contour>
  </outline>
</glyph>
<glyph name="x" format="2">
  <advance width="952.6829268292864"/>
  <unicode hex="0078"/>
  <anchor x="476.3414634146342" y="921.9512195121952" name="above" identifier="above"/>
  <outline>
    <contour>
      <point x="48.29267883300781" y="0" type="line"/>
      <point x="328.1359405517578" y="0" type="line"/>
      <point x="476.3414611816406" y="210.0157241821289" type="line"/>
      <point x="624.546989440918" y="0" type="line"/>
      <point x="904.3902435302734" y="0" type="line"/>
      <point x="616.2630920410156" y="408.29268646240234" type="line"/>
      <point x="904.3902435302734" y="816.5853729248047" type="line"/>
      <point x="624.546989440918" y="816.5853729248047" type="line"/>
      <point x="476.3414611816406" y="606.5696487426758" type="line"/>
      <point x="328.1359405517578" y="816.5853729248047" type="line"/>
      <point x="48.29267883300781" y="816.5853729248047" type="line"/>
      <point x="336.41983795166016" y="408.29268646240234" type="line"/>
    </contour>
  </outline>
</glyph>
<glyph name="y" format="2">
  <advance width="957.1250991669973"/>
  <unicode hex="0079"/>
  <anchor x="478.56254958349865" y="944.2302161840539" name="above" identifier="above"/>
  <anchor x="775.5377703540263" y="-102.8163427211424" name="below" identifier="below"/>
  <outline>
    <contour>
      <point x="200.8323211669922" y="-364.904296875" type="line"/>
      <point x="473.89964294433594" y="-364.904296875" type="line"/>
      <point x="604.7103843688965" y="-25.751693725585938" type="line"/>
      <point x="939.1750793457031" y="841.4138717651367" type="line"/>
      <point x="673.5747909545898" y="841.4138717651367" type="line"/>
      <point x="478.5625534057617" y="299.5118179321289" type="line"/>
      <point x="283.55030822753906" y="841.4138717651367" type="line"/>
      <point x="17.95001983642578" y="841.4138717651367" type="line"/>
      <point x="351.73213958740234" y="-23.98198699951172" type="line"/>
    </contour>
  </outline>
</glyph>
<glyph name="z" format="2">
  <advance width="810.7925426418086"/>
  <unicode hex="007A"/>
  <anchor x="405.39627132090436" y="944.2302161840539" name="above" identifier="above"/>
  <anchor x="405.39627132090436" y="-102.8163427211424" name="below" identifier="below"/>
  <anchor x="405.39627132090436" y="430.2124922870113" name="stroke" identifier="stroke"/>
  <outline>
    <contour>
      <point x="56.50614929199219" y="0" type="line"/>
      <point x="754.2863922119141" y="0" type="line"/>
      <point x="754.2863922119141" y="206.75364685058594" type="line"/>
      <point x="366.54561614990234" y="206.75364685058594" type="line"/>
      <point x="745.7183685302734" y="646.1701812744141" type="line"/>
      <point x="745.7183685302734" y="841.4138717651367" type="line"/>
      <point x="56.50614929199219" y="841.4138717651367" type="line"/>
      <point x="56.50614929199219" y="634.6602172851562" type="line"/>
      <point x="427.7333297729492" y="634.6602172851562" type="line"/>
      <point x="56.50614929199219" y="204.45166015625" type="line"/>
    </contour>
  </outline>
</glyph>
<glyph name="braceleft" format="2">
  <advance width="615.5313189592606"/>
  <unicode hex="007B"/>
  <outline>
    <contour>
      <point x="196.6045382865344" y="222.99382781982422" type="line"/>
      <point x="196.6045341121355" y="-35.749483130542956"/>
      <point x="345.50354245727806" y="-113.51629358292877"/>
      <point x="558.39241" y="-113.51628962849813" type="curve"/>
      <point x="605.2925186157227" y="-113.51628875732422" type="line"/>
      <point x="605.2925186157227" y="113.51628875732422" type="line"/>
      <point x="549.7975179373519" y="113.51628875732422" type="line"/>
      <point x="528.4063833842828" y="113.51628875732422"/>
      <point x="448.91488081243693" y="114.20265971502899"/>
      <point x="448.9148798170005" y="222.99383" type="curve"/>
      <point x="448.91487902821433" y="309.20020294189453" type="line"/>
      <point x="448.9148782714571" y="391.90613729702295"/>
      <point x="431.4140315013391" y="476.84627599224984"/>
      <point x="356.7652893066406" y="544.8357086181641" type="curve"/>
      <point x="431.4140313675289" y="612.8178167377449"/>
      <point x="448.91488057374517" y="697.7610489041612"/>
      <point x="448.9148798170005" y="780.46561" type="curve"/>
      <point x="448.9148789495713" y="875.2668745262818" type="line"/>
      <point x="448.9148787538429" y="896.6580090793509"/>
      <point x="449.601239715029" y="976.1495188399787"/>
      <point x="558.39241" y="976.1495202612921" type="curve"/>
      <point x="605.2925186157227" y="976.1495208740234" type="line"/>
      <point x="605.2925186157227" y="1203.1820983886719" type="line"/>
      <point x="558.3924102783203" y="1203.1820983886719" type="line"/>
      <point x="287.0928969887249" y="1203.1820983886719"/>
      <point x="196.6045430102416" y="1073.2569017514745"/>
      <point x="196.60453967733278" y="866.67198" type="curve"/>
      <point x="196.60453814786985" y="771.8707125453695" type="line"/>
      <point x="196.60453780275898" y="750.4795779923004"/>
      <point x="195.91818028497096" y="670.9880731495549"/>
      <point x="87.12701000000001" y="670.9880692905703" type="curve"/>
      <point x="40.226890563964844" y="670.9880676269531" type="line"/>
      <point x="40.226890563964844" y="418.67774200439453" type="line"/>
      <point x="87.12700653076172" y="418.67774200439453" type="line"/>
      <point x="195.91817139364528" y="418.67774200439453"/>
      <point x="196.60454016110793" y="339.1862146311037"/>
      <point x="196.60453981599727" y="317.79509214471955" type="curve"/>
    </contour>
  </outline>
</glyph>
<glyph name="bar" format="2">
  <advance width="496.0975609756097"/>
  <unicode hex="007C"/>
  <outline>
    <contour>
      <point x="129.5122" y="-118.53659" type="line"/>
      <point x="366.58537" y="-118.53659" type="line"/>
      <point x="366.58537" y="1267.68293" type="line"/>
      <point x="129.5122" y="1267.68293" type="line"/>
    </contour>
  </outline>
</glyph>
<glyph name="braceright" format="2">
  <advance width="627.8048780487804"/>
  <unicode hex="007D"/>
  <outline>
    <contour>
      <point x="78.53659057617188" y="-237.07317352294922" type="line"/>
      <point x="402.50271372857685" y="-237.07317352294922"/>
      <point x="417.07316940744107" y="6.819022639538346"/>
      <point x="417.0731704337565" y="101.46341" type="curve"/>
      <point x="417.07317335303946" y="370.672787024746" type="line"/>
      <point x="417.07317370970924" y="403.5640288346202"/>
      <point x="418.6959306695002" y="447.80488109361244"/>
      <point x="518.5365899999999" y="447.80487926898377" type="curve"/>
      <point x="575.1219482421875" y="447.8048782348633" type="line"/>
      <point x="575.1219482421875" y="684.8780517578125" type="line"/>
      <point x="494.2052644837263" y="684.8780517578125" type="line"/>
      <point x="461.3140226738521" y="684.8780517578125"/>
      <point x="417.07316935109316" y="686.5008006695002"/>
      <point x="417.0731704337565" y="786.34146" type="curve"/>
      <point x="417.0731730891927" y="1031.2195129394531" type="line"/>
      <point x="417.07317660225306" y="1355.185636091858"/>
      <point x="173.18097736046164" y="1369.7560980109913"/>
      <point x="78.53659000000003" y="1369.7561014559658" type="curve"/>
      <point x="21.951217651367188" y="1369.756103515625" type="line"/>
      <point x="21.951217651367188" y="1132.6829299926758" type="line"/>
      <point x="102.86792561930295" y="1132.6829299926758" type="line"/>
      <point x="135.75916742917715" y="1132.6829299926758"/>
      <point x="180.0" y="1131.0601693304995"/>
      <point x="180.0" y="1031.21951" type="curve"/>
      <point x="180.0" y="786.3414611816406" type="line"/>
      <point x="180.0" y="717.4345414771932"/>
      <point x="180.00061403504694" y="646.0933604690233"/>
      <point x="240.42481994628906" y="566.344108581543" type="curve"/>
      <point x="180.00094361945796" y="486.5868610877532"/>
      <point x="180.0" y="415.25530117622947"/>
      <point x="180.0" y="346.34146" type="curve"/>
      <point x="180.0" y="77.132074373147" type="line"/>
      <point x="180.0" y="44.240832563272804"/>
      <point x="178.37724933049972" y="0.0"/>
      <point x="78.53659" y="0.0" type="curve"/>
      <point x="21.951217651367188" y="0" type="line"/>
      <point x="21.951217651367188" y="-237.07317352294922" type="line"/>
    </contour>
  </outline>
</glyph>
<glyph name="tilde" format="2">
  <advance width="1048.4264999659954"/>
  <unicode hex="007E"/>
  <outline>
    <contour>
      <point x="496.35333251953125" y="375.3082275390625" type="line"/>
      <point x="543.40513" y="348.14287"/>
      <point x="596.77869" y="333.84146"/>
      <point x="651.10943" y="333.84146" type="curve"/>
      <point x="821.93386" y="333.84146"/>
      <point x="960.62162" y="472.52923"/>
      <point x="960.62162" y="643.35366" type="curve"/>
      <point x="723.5484466552734" y="643.3536605834961" type="line"/>
      <point x="723.54845" y="603.37347"/>
      <point x="691.08961" y="570.91463"/>
      <point x="651.10943" y="570.91463" type="curve"/>
      <point x="638.39372" y="570.91463"/>
      <point x="625.90204" y="574.26177"/>
      <point x="614.88991" y="580.61962" type="curve"/>
      <point x="552.0731735229492" y="616.8868865966797" type="line"/>
      <point x="505.02137" y="644.05226"/>
      <point x="451.64781" y="658.35366"/>
      <point x="397.31707" y="658.35366" type="curve"/>
      <point x="226.49264" y="658.35366"/>
      <point x="87.80488" y="519.66589"/>
      <point x="87.80488" y="348.84146" type="curve"/>
      <point x="324.8780517578125" y="348.8414611816406" type="line"/>
      <point x="324.87805" y="388.82165"/>
      <point x="357.33689" y="421.28049"/>
      <point x="397.31707" y="421.28049" type="curve"/>
      <point x="410.03278" y="421.28049"/>
      <point x="422.52446" y="417.93335"/>
      <point x="433.53659" y="411.5755" type="curve"/>
    </contour>
  </outline>
</glyph>
<glyph name="inv_exclamation" format="2">
  <advance width="475.9024390243903"/>
  <unicode hex="00A1"/>
  <outline>
    <contour>
      <point x="87.80488" y="681.43902" type="curve" smooth="yes"/>
      <point x="87.80488" y="598.571"/>
      <point x="155.0832" y="531.29268"/>
      <point x="237.95122" y="531.29268" type="curve" smooth="yes"/>
      <point x="320.81924" y="531.29268"/>
      <point x="388.09756" y="598.571"/>
      <point x="388.09756" y="681.43902" type="curve" smooth="yes"/>
      <point x="388.09756" y="764.30705"/>
      <point x="320.81924" y="831.58537"/>
      <point x="237.95122" y="831.58537" type="curve" smooth="yes"/>
      <point x="155.0832" y="831.58537"/>
      <point x="87.80488" y="764.30705"/>
    </contour>
    <contour>
      <point x="356.4878" y="469.82927" type="line"/>
      <point x="119.41463" y="469.82927" type="line"/>
      <point x="119.41463" y="-263.41463" type="line"/>
      <point x="356.4878" y="-263.41463" type="line"/>
    </contour>
  </outline>
</glyph>
<glyph name="invertedexclam" format="2">
  <advance width="475.9024390243903"/>
  <unicode hex="00A1"/>
  <outline>
    <contour>
      <point x="87.8048780487805" y="681.4390243902438" type="curve" smooth="yes"/>
      <point x="87.8048780487805" y="598.5710033385367"/>
      <point x="155.08319846048778" y="531.2926829268295"/>
      <point x="237.9512195121951" y="531.2926829268295" type="curve" smooth="yes"/>
      <point x="320.81924056390244" y="531.2926829268295"/>
      <point x="388.0975609756098" y="598.5710033385367"/>
      <point x="388.0975609756098" y="681.4390243902438" type="curve" smooth="yes"/>
      <point x="388.0975609756098" y="764.3070454419513"/>
      <point x="320.81924056390244" y="831.5853658536585"/>
      <point x="237.95121951219517" y="831.5853658536585" type="curve" smooth="yes"/>
      <point x="155.08319846048784" y="831.5853658536585"/>
      <point x="87.8048780487805" y="764.3070454419513"/>
    </contour>
    <contour>
      <point x="356.48780487804873" y="469.8292682926831" type="line"/>
      <point x="119.41463414634144" y="469.8292682926831" type="line"/>
      <point x="119.41463414634134" y="-278.41463414634137" type="line"/>
      <point x="356.4878048780486" y="-278.41463414634137" type="line"/>
    </contour>
  </outline>
</glyph>
<glyph name="cent" format="2">
  <advance width="958.0934723644723"/>
  <unicode hex="00A2"/>
  <outline>
    <contour>
      <point x="385.53658294677734" y="0" type="line"/>
      <point x="575.1951217651367" y="0" type="line"/>
      <point x="575.1951217651367" y="101.05674743652344" type="line"/>
      <point x="738.5730141123767" y="138.5011615881353"/>
      <point x="866.017207211414" y="270.6167543973824"/>
      <point x="896.6261455256765" y="436.51351184379763" type="curve"/>
      <point x="649.8702163696289" y="436.51351165771484" type="line"/>
      <point x="634.0195997787317" y="401.7745788882561"/>
      <point x="607.8068688935942" y="372.7483944355898"/>
      <point x="575.1951217651367" y="353.41319274902344" type="curve"/>
      <point x="575.1951217651367" y="673.9028854370117" type="line"/>
      <point x="607.8130230058802" y="654.5691313521307"/>
      <point x="634.0294335213287" y="625.5405699416747"/>
      <point x="649.8791310380145" y="590.8035613269342" type="curve"/>
      <point x="896.6300582885742" y="590.8035583496094" type="line"/>
      <point x="866.028101817145" y="756.6924239130574"/>
      <point x="738.5799072465155" y="888.8149381277117"/>
      <point x="575.1951217651367" y="926.2613296508789" type="curve"/>
      <point x="575.1951217651367" y="1027.3170700073242" type="line"/>
      <point x="385.53658294677734" y="1027.3170700073242" type="line"/>
      <point x="385.53658294677734" y="926.2602767944336" type="line"/>
      <point x="197.50695698112654" y="883.1655570422597"/>
      <point x="57.07317073170731" y="714.6826721354078"/>
      <point x="57.07317073170728" y="513.6585365853658" type="curve" smooth="yes"/>
      <point x="57.07317073170727" y="312.6344010353241"/>
      <point x="197.5069569811265" y="144.15151612847203"/>
      <point x="385.53658294677734" y="101.05268096923828" type="curve"/>
    </contour>
    <contour>
      <point x="294.1463414634147" y="513.6585365853658" type="curve" smooth="yes"/>
      <point x="294.1463414634146" y="581.8154362283642"/>
      <point x="330.84164029839803" y="641.4693185511919"/>
      <point x="385.53658294677734" y="673.9035720825195" type="curve"/>
      <point x="385.53658294677734" y="353.4133605957031" type="line"/>
      <point x="330.84164029839803" y="385.8477546195397"/>
      <point x="294.1463414634146" y="445.5016369423675"/>
    </contour>
  </outline>
</glyph>
<glyph name="pound" format="2">
  <advance width="979.0243902439024"/>
  <unicode hex="00A3"/>
  <outline>
    <contour>
      <point x="74.63414764404297" y="0" type="line"/>
      <point x="891.2195129394531" y="0" type="line"/>
      <point x="891.2195129394531" y="237.07317352294922" type="line"/>
      <point x="417.0731735229492" y="237.07317352294922" type="line"/>
      <point x="417.0731735229492" y="410.9634094238281" type="line"/>
      <point x="733.1707305908203" y="410.9634094238281" type="line"/>
      <point x="733.1707305908203" y="600.6219482421875" type="line"/>
      <point x="417.0731735229492" y="600.6219482421875" type="line"/>
      <point x="417.0731735229492" y="739.3902435302734" type="line"/>
      <point x="417.07317" y="804.81237"/>
      <point x="470.18763" y="857.92683"/>
      <point x="535.60976" y="857.92683" type="curve" smooth="yes"/>
      <point x="601.03188" y="857.92683"/>
      <point x="654.14634" y="804.81237"/>
      <point x="654.14634" y="739.39024" type="curve"/>
      <point x="891.2195129394531" y="739.3902435302734" type="line"/>
      <point x="891.21951" y="935.65661"/>
      <point x="731.87612" y="1095.0"/>
      <point x="535.60976" y="1095.0" type="curve" smooth="yes"/>
      <point x="339.34339" y="1095.0"/>
      <point x="180.0" y="935.65661"/>
      <point x="180.0" y="739.39024" type="curve"/>
      <point x="180" y="600.6219482421875" type="line"/>
      <point x="74.63414764404297" y="600.6219482421875" type="line"/>
      <point x="74.63414764404297" y="410.9634094238281" type="line"/>
      <point x="180" y="410.9634094238281" type="line"/>
      <point x="180" y="237.07317352294922" type="line"/>
      <point x="74.63414764404297" y="237.07317352294922" type="line"/>
    </contour>
  </outline>
</glyph>
<glyph name="currency" format="2">
  <advance width="922.1396081563618"/>
  <unicode hex="00A4"/>
  <outline>
    <contour>
      <point x="831.94049" y="544.8329000000001" type="curve" smooth="yes"/>
      <point x="831.94049" y="609.79446877337"/>
      <point x="815.2023800268779" y="670.8774893229639"/>
      <point x="785.8072357177734" y="723.9911575317383" type="curve"/>
      <point x="899.0487670898438" y="837.2326889038086" type="line"/>
      <point x="753.4695892333984" y="982.8118667602539" type="line"/>
      <point x="640.2305221557617" y="869.5727996826172" type="line"/>
      <point x="587.1090002088761" y="898.9669567296922"/>
      <point x="526.02850312583" y="915.7035899999998"/>
      <point x="461.0697999999999" y="915.7035899999998" type="curve" smooth="yes"/>
      <point x="396.1121234932" y="915.70359"/>
      <point x="335.0325298182473" y="898.9674841077673"/>
      <point x="281.9115447998047" y="869.5703353881836" type="curve"/>
      <point x="168.67001342773438" y="982.8118667602539" type="line"/>
      <point x="23.090843200683594" y="837.2326889038086" type="line"/>
      <point x="136.3299102783203" y="723.9936218261719" type="line"/>
      <point x="106.93638613496563" y="670.8744098310478"/>
      <point x="90.19911999999994" y="609.79283126049"/>
      <point x="90.19911999999995" y="544.8328999999999" type="curve" smooth="yes"/>
      <point x="90.19912" y="479.8713344003"/>
      <point x="106.93722997312206" y="418.7883160171579"/>
      <point x="136.3323745727539" y="365.67464447021484" type="curve"/>
      <point x="23.090843200683594" y="252.43311309814453" type="line"/>
      <point x="168.67001342773438" y="106.85394287109375" type="line"/>
      <point x="281.9090805053711" y="220.09300231933594" type="line"/>
      <point x="335.0306051310546" y="190.69885327030767"/>
      <point x="396.1111000477" y="173.96222"/>
      <point x="461.0698" y="173.96222" type="curve" smooth="yes"/>
      <point x="526.02747968028" y="173.96222"/>
      <point x="587.1070755216151" y="190.69832589223262"/>
      <point x="640.2280578613281" y="220.09547424316406" type="curve"/>
      <point x="753.4695892333984" y="106.85394287109375" type="line"/>
      <point x="899.0487670898438" y="252.43311309814453" type="line"/>
      <point x="785.809700012207" y="365.67218017578125" type="line"/>
      <point x="815.2032238650343" y="418.79139550896485"/>
      <point x="831.94049" y="479.87297191310006"/>
    </contour>
    <contour>
      <point x="600.26584" y="544.8329" type="curve" smooth="yes"/>
      <point x="600.26584" y="468.00852"/>
      <point x="537.89419" y="405.63687"/>
      <point x="461.0698" y="405.63687" type="curve" smooth="yes"/>
      <point x="384.24542" y="405.63687"/>
      <point x="321.87377" y="468.00852"/>
      <point x="321.87377" y="544.8329" type="curve" smooth="yes"/>
      <point x="321.87377" y="621.65729"/>
      <point x="384.24542" y="684.02894"/>
      <point x="461.0698" y="684.02894" type="curve" smooth="yes"/>
      <point x="537.89419" y="684.02894"/>
      <point x="600.26584" y="621.65729"/>
    </contour>
  </outline>
</glyph>
<glyph name="yen" format="2">
  <advance width="1018.5365853658535"/>
  <unicode hex="00A5"/>
  <anchor x="509.2682926829268" y="1193.5975609756097" name="above" identifier="above"/>
  <anchor x="509.2682926829268" y="-105.36585365853658" name="below" identifier="below"/>
  <outline>
    <contour>
      <point x="100.9756088256836" y="190.05835723876953" type="line"/>
      <point x="390.7317123413086" y="190.05835723876953" type="line"/>
      <point x="390.7317123413086" y="0" type="line"/>
      <point x="627.8048782348633" y="0" type="line"/>
      <point x="627.8048782348633" y="190.05835723876953" type="line"/>
      <point x="917.5609817504883" y="190.05835723876953" type="line"/>
      <point x="917.5609817504883" y="355.0217819213867" type="line"/>
      <point x="627.8048782348633" y="355.0217819213867" type="line"/>
      <point x="627.8048782348633" y="398.1010513305664" type="line"/>
      <point x="637.1783447265625" y="414.56446075439453" type="line"/>
      <point x="917.5609817504883" y="414.56446075439453" type="line"/>
      <point x="917.5609817504883" y="579.5278701782227" type="line"/>
      <point x="731.1004867553711" y="579.5278701782227" type="line"/>
      <point x="1020.7317123413086" y="1088.2317123413086" type="line"/>
      <point x="747.9264068603516" y="1088.2317123413086" type="line"/>
      <point x="509.2682876586914" y="669.0562515258789" type="line"/>
      <point x="270.6101837158203" y="1088.2317123413086" type="line"/>
      <point x="-2.1951217651367188" y="1088.2317123413086" type="line"/>
      <point x="287.4361038208008" y="579.5278701782227" type="line"/>
      <point x="100.9756088256836" y="579.5278701782227" type="line"/>
      <point x="100.9756088256836" y="414.56446075439453" type="line"/>
      <point x="381.3582458496094" y="414.56446075439453" type="line"/>
      <point x="390.7317123413086" y="398.1010513305664" type="line"/>
      <point x="390.7317123413086" y="355.0217819213867" type="line"/>
      <point x="100.9756088256836" y="355.0217819213867" type="line"/>
    </contour>
  </outline>
</glyph>
<glyph name="brokenbar" format="2">
  <advance width="500.4878048780488"/>
  <unicode hex="00A6"/>
  <outline>
    <contour>
      <point x="131.70731707317074" y="645.3658536585366" type="line"/>
      <point x="368.780487804878" y="645.3658536585366" type="line"/>
      <point x="368.780487804878" y="1369.7560975609756" type="line"/>
      <point x="131.70731707317074" y="1369.7560975609756" type="line"/>
    </contour>
    <contour>
      <point x="131.70731707317074" y="-237.0731707317073" type="line"/>
      <point x="368.780487804878" y="-237.0731707317073" type="line"/>
      <point x="368.780487804878" y="487.3170731707317" type="line"/>
      <point x="131.70731707317074" y="487.3170731707317" type="line"/>
    </contour>
  </outline>
</glyph>
<glyph name="section" format="2">
  <advance width="802.5365853658536"/>
  <unicode hex="00A7"/>
  <outline>
    <contour>
      <point x="401.26829" y="468.07317" type="curve" smooth="yes"/>
      <point x="384.39272605388" y="468.07317"/>
      <point x="368.6010292511162" y="470.4348488224647"/>
      <point x="355.1200408935547" y="474.53910064697266" type="curve"/>
      <point x="355.0597152709961" y="474.5583801269531" type="line"/>
      <point x="352.3964385986328" y="475.43995666503906" type="line"/>
      <point x="347.82081604003906" y="477.0486373901367" type="line"/>
      <point x="345.94532775878906" y="477.7762451171875" type="line"/>
      <point x="342.1420593261719" y="479.37913513183594" type="line"/>
      <point x="340.2017135620117" y="480.2553482055664" type="line"/>
      <point x="336.73377990722656" y="481.9961471557617" type="line"/>
      <point x="334.9895477294922" y="482.91040802001953" type="line"/>
      <point x="331.2132568359375" y="485.1674041748047" type="line"/>
      <point x="330.26331329345703" y="485.7458953857422" type="line"/>
      <point x="326.0962142944336" y="488.72833251953125" type="line"/>
      <point x="324.82666778564453" y="489.79170989990234" type="line"/>
      <point x="322.36487579345703" y="491.92867279052734" type="line"/>
      <point x="321.0475540161133" y="493.24832916259766" type="line"/>
      <point x="319.13433837890625" y="495.30797576904297" type="line"/>
      <point x="317.9778594970703" y="496.7261276245117" type="line"/>
      <point x="316.4300231933594" y="498.8710174560547" type="line"/>
      <point x="315.50756072998047" y="500.30711364746094" type="line"/>
      <point x="314.26949310302734" y="502.66320037841797" type="line"/>
      <point x="313.6328811645508" y="504.0001449584961" type="line"/>
      <point x="312.61854553222656" y="507.0128402709961" type="line"/>
      <point x="312.3709716796875" y="507.79932403564453" type="line"/>
      <point x="311.7666244506836" y="511.7691955566406" type="line"/>
      <point x="311.7073211669922" y="513.2926788330078" type="line"/>
      <point x="311.70732" y="538.25001"/>
      <point x="351.83825" y="558.5122"/>
      <point x="401.26829" y="558.5122" type="curve" smooth="yes"/>
      <point x="419.43828207949997" y="558.5122"/>
      <point x="436.3517546713891" y="555.7743240938203"/>
      <point x="450.47735595703125" y="551.0337829589844" type="curve"/>
      <point x="455.2431945800781" y="549.3321075439453" type="line"/>
      <point x="456.8238525390625" y="548.718879699707" type="line"/>
      <point x="461.0221405029297" y="546.9228210449219" type="line"/>
      <point x="462.5463409423828" y="546.2345275878906" type="line"/>
      <point x="466.76953887939453" y="544.0824966430664" type="line"/>
      <point x="467.75524139404297" y="543.5658340454102" type="line"/>
      <point x="472.4943084716797" y="540.6887512207031" type="line"/>
      <point x="473.33917236328125" y="540.088134765625" type="line"/>
      <point x="476.67923736572266" y="537.6569519042969" type="line"/>
      <point x="478.03160095214844" y="536.5242080688477" type="line"/>
      <point x="480.39087677001953" y="534.437141418457" type="line"/>
      <point x="481.6982192993164" y="533.1274871826172" type="line"/>
      <point x="483.60540771484375" y="531.0282669067383" type="line"/>
      <point x="484.7276840209961" y="529.6520538330078" type="line"/>
      <point x="486.30701446533203" y="527.4022903442383" type="line"/>
      <point x="487.16639709472656" y="526.0644073486328" type="line"/>
      <point x="488.5245819091797" y="523.3814239501953" type="line"/>
      <point x="489.00952911376953" y="522.3629837036133" type="line"/>
      <point x="490.21856689453125" y="518.5553283691406" type="line"/>
      <point x="490.3497772216797" y="517.7161712646484" type="line"/>
      <point x="490.7843551635742" y="514.4465255737305" type="line"/>
      <point x="490.8292694091797" y="513.2926788330078" type="line"/>
      <point x="490.82927" y="488.33535"/>
      <point x="450.69834" y="468.07317"/>
    </contour>
    <contour>
      <point x="81.65853881835938" y="185.78048706054688" type="line"/>
      <point x="81.65854" y="45.48638"/>
      <point x="224.87087" y="-68.41463"/>
      <point x="401.26829" y="-68.41463" type="curve" smooth="yes"/>
      <point x="577.66572" y="-68.41463"/>
      <point x="720.87805" y="45.48638"/>
      <point x="720.87805" y="185.78049" type="curve"/>
      <point x="720.87805" y="242.8398892603"/>
      <point x="697.1963287850238" y="295.5577849033602"/>
      <point x="657.2226791381836" y="337.9909439086914" type="curve"/>
      <point x="701.4650706227159" y="386.15296713663315"/>
      <point x="727.90244" y="447.07561053587"/>
      <point x="727.90244" y="513.29268" type="curve"/>
      <point x="727.90244" y="515.04949850332"/>
      <point x="727.8838306107614" y="516.8025902363847"/>
      <point x="727.8467712402344" y="518.5216217041016" type="curve"/>
      <point x="727.90244" y="515.7754530186"/>
      <point x="727.8652810987937" y="518.2508083152068"/>
      <point x="727.7914199829102" y="520.2950134277344" type="curve"/>
      <point x="727.7610478279005" y="521.731963791965"/>
      <point x="727.724475475276" y="522.7450148494398"/>
      <point x="727.6817398071289" y="523.7269744873047" type="curve"/>
      <point x="727.6483861458827" y="524.5472380786763"/>
      <point x="727.6112702350007" y="525.3360348330704"/>
      <point x="727.5704040527344" y="525.8664169311523" type="curve"/>
      <point x="727.5217281742713" y="527.0611659034504"/>
      <point x="727.467740436168" y="527.9985080304773"/>
      <point x="727.4084625244141" y="528.9060668945312" type="curve"/>
      <point x="727.3563411686365" y="529.7598184616388"/>
      <point x="727.3001304372608" y="530.5821601155172"/>
      <point x="727.2398452758789" y="531.2194595336914" type="curve"/>
      <point x="727.1740555211486" y="532.2976966184833"/>
      <point x="727.1034083007045" y="533.1929826696039"/>
      <point x="727.0279159545898" y="534.0595092773438" type="curve"/>
      <point x="726.9565940846667" y="534.9349799465324"/>
      <point x="726.8809588048601" y="535.7790300444683"/>
      <point x="726.8010482788086" y="536.4790344238281" type="curve"/>
      <point x="726.7189939641156" y="537.4841987976781"/>
      <point x="726.6323923908241" y="538.3486428090291"/>
      <point x="726.5412826538086" y="539.1850433349609" type="curve"/>
      <point x="726.4502280349109" y="540.0783285541736"/>
      <point x="726.3546819276812" y="540.9400930680924"/>
      <point x="726.254638671875" y="541.6843948364258" type="curve"/>
      <point x="726.1571786845938" y="542.6355076214477"/>
      <point x="726.0554810234396" y="543.4727317973628"/>
      <point x="725.949577331543" y="544.2825241088867" type="curve"/>
      <point x="725.838232465954" y="545.19187866566"/>
      <point x="725.7221980557626" y="546.0697970405226"/>
      <point x="725.6015319824219" y="546.8481750488281" type="curve"/>
      <point x="725.489716125864" y="547.7537854346875"/>
      <point x="725.3739088345161" y="548.5648036310988"/>
      <point x="725.2541046142578" y="549.3496627807617" type="curve"/>
      <point x="725.1216341448716" y="550.2758062825862"/>
      <point x="724.9843030758681" y="551.17034716021"/>
      <point x="724.842155456543" y="551.9787292480469" type="curve"/>
      <point x="724.7171783677983" y="552.8429405013568"/>
      <point x="724.5884362473328" y="553.6271096261731"/>
      <point x="724.4559707641602" y="554.3858413696289" type="curve"/>
      <point x="724.3017153178231" y="555.3282551980426"/>
      <point x="724.142432273795" y="556.2388006619537"/>
      <point x="723.9781188964844" y="557.0734939575195" type="curve"/>
      <point x="723.8410215437439" y="557.8999203806454"/>
      <point x="723.7003918289436" y="558.6575171156213"/>
      <point x="723.556282043457" y="559.3905944824219" type="curve"/>
      <point x="723.379348355158" y="560.3499866302913"/>
      <point x="723.1971763068971" y="561.2774387454755"/>
      <point x="723.0097579956055" y="562.1371002197266" type="curve"/>
      <point x="722.8619283116603" y="562.9263211461704"/>
      <point x="722.7108611640004" y="563.6555542415973"/>
      <point x="722.5565567016602" y="564.3612365722656" type="curve"/>
      <point x="722.3559049565127" y="565.3388044115397"/>
      <point x="722.1497687169425" y="566.2843836219303"/>
      <point x="721.9382095336914" y="567.1684112548828" type="curve"/>
      <point x="721.781030655811" y="567.9208865286588"/>
      <point x="721.6208775962402" y="568.6208949700945"/>
      <point x="721.4577713012695" y="569.2981872558594" type="curve"/>
      <point x="721.232421078876" y="570.2944066928092"/>
      <point x="721.0013821963521" y="571.2583632215936"/>
      <point x="720.7646560668945" y="572.1661834716797" type="curve"/>
      <point x="720.5996737589691" y="572.8816392909577"/>
      <point x="720.4319111343509" y="573.5513019011715"/>
      <point x="720.2613754272461" y="574.1995162963867" type="curve"/>
      <point x="720.0101101331923" y="575.2156775600281"/>
      <point x="719.7528387796054" y="576.1996208801559"/>
      <point x="719.489631652832" y="577.1317749023438" type="curve"/>
      <point x="719.3185057022877" y="577.8095434653799"/>
      <point x="719.1449078229781" y="578.446903544431"/>
      <point x="718.9688568115234" y="579.0635604858398" type="curve"/>
      <point x="718.690172846204" y="580.1016263515527"/>
      <point x="718.4051970016044" y="581.1072276114968"/>
      <point x="718.1139678955078" y="582.0648345947266" type="curve"/>
      <point x="717.938752980742" y="582.7030626700267"/>
      <point x="717.7612963914619" y="583.3059325061845"/>
      <point x="717.5815963745117" y="583.8893280029297" type="curve"/>
      <point x="717.2740287929834" y="584.9505873595749"/>
      <point x="716.9599406154017" y="585.9788928054263"/>
      <point x="716.6393051147461" y="586.9622650146484" type="curve"/>
      <point x="716.4618377552615" y="587.5602522404389"/>
      <point x="716.2823120471653" y="588.1275138985031"/>
      <point x="716.1008224487305" y="588.6763229370117" type="curve"/>
      <point x="715.7628405482443" y="589.7619437521947"/>
      <point x="715.4178929137057" y="590.8147426769909"/>
      <point x="715.0660858154297" y="591.8251876831055" type="curve"/>
      <point x="714.8886407412438" y="592.3810520592925"/>
      <point x="714.709384069824" y="592.9102095477747"/>
      <point x="714.5284423828125" y="593.4219741821289" type="curve"/>
      <point x="714.1580265007154" y="594.5342925825748"/>
      <point x="713.7803522547504" y="595.6133091367288"/>
      <point x="713.3954696655273" y="596.6521759033203" type="curve"/>
      <point x="713.220393898727" y="597.1642537859436"/>
      <point x="713.0438941911301" y="597.6528903514222"/>
      <point x="712.8658905029297" y="598.1255416870117" type="curve"/>
      <point x="712.4610953955375" y="599.2661440567005"/>
      <point x="712.0486275867132" y="600.3732578903248"/>
      <point x="711.6284790039062" y="601.4423446655273" type="curve"/>
      <point x="711.4585757618789" y="601.9081030743837"/>
      <point x="711.2873599448102" y="602.354164756655"/>
      <point x="711.1148834228516" y="602.7855072021484" type="curve"/>
      <point x="710.6734812147115" y="603.9563689985586"/>
      <point x="710.2239372246645" y="605.0936057230783"/>
      <point x="709.7662124633789" y="606.1945877075195" type="curve"/>
      <point x="709.6042857735466" y="606.6119920515549"/>
      <point x="709.441288628789" y="607.0128068232403"/>
      <point x="709.2773056030273" y="607.4001541137695" type="curve"/>
      <point x="708.7967391243011" y="608.6036392761113"/>
      <point x="708.3074233481816" y="609.7735995835554"/>
      <point x="707.809440612793" y="610.9086685180664" type="curve"/>
      <point x="707.6587864490344" y="611.2748977789375"/>
      <point x="707.5074023101565" y="611.6272006215977"/>
      <point x="707.3551788330078" y="611.9676666259766" type="curve"/>
      <point x="706.8327025733226" y="613.2061083471013"/>
      <point x="706.3008476703601" y="614.4110763084909"/>
      <point x="705.7597351074219" y="615.582389831543" type="curve"/>
      <point x="705.6238557531375" y="615.8947153771685"/>
      <point x="705.4873680688776" y="616.1960433654226"/>
      <point x="705.3502426147461" y="616.4871139526367" type="curve"/>
      <point x="704.7827443719954" y="617.7631646349807"/>
      <point x="704.2052751026546" y="619.0056480629178"/>
      <point x="703.6178970336914" y="620.2155227661133" type="curve"/>
      <point x="703.5006613058882" y="620.4708830544877"/>
      <point x="703.3830234706339" y="620.7177904885543"/>
      <point x="703.2650833129883" y="620.9558410644531" type="curve"/>
      <point x="702.6490610650077" y="622.2724937217154"/>
      <point x="702.0223202272078" y="623.5557479037701"/>
      <point x="701.3849029541016" y="624.8073120117188" type="curve"/>
      <point x="701.2908259880471" y="625.0018978587614"/>
      <point x="701.1966069175644" y="625.1902665182065"/>
      <point x="701.1022338867188" y="625.3717193603516" type="curve"/>
      <point x="700.4335927593509" y="626.7325916534247"/>
      <point x="699.7533853897021" y="628.0603729140649"/>
      <point x="699.0618133544922" y="629.3568496704102" type="curve"/>
      <point x="698.9962401719105" y="629.4858915422136"/>
      <point x="698.930470021875" y="629.6113632210511"/>
      <point x="698.8646774291992" y="629.7320556640625" type="curve"/>
      <point x="698.1388429972343" y="631.1410519352146"/>
      <point x="697.4005692814496" y="632.5172791638638"/>
      <point x="696.6498641967773" y="633.8629150390625" type="curve"/>
      <point x="696.6183734513291" y="633.9219714019506"/>
      <point x="696.5869279459641" y="633.9793059417519"/>
      <point x="696.5554275512695" y="634.0345153808594" type="curve"/>
      <point x="663.6476350403908" y="694.0212500174509"/>
      <point x="607.0096809660989" y="742.3925671387034"/>
      <point x="537.1451416015625" y="770.0389022827148" type="curve"/>
      <point x="537.124914624532" y="770.0471520735031"/>
      <point x="537.1047517660068" y="770.0551409385224"/>
      <point x="537.0844116210938" y="770.0628890991211" type="curve"/>
      <point x="535.4648039370779" y="770.7158045223161"/>
      <point x="533.8382642036066" y="771.3454382519902"/>
      <point x="532.2047729492188" y="771.9523086547852" type="curve"/>
      <point x="532.0194469645382" y="772.0244786673396"/>
      <point x="531.8341315341636" y="772.0945394635232"/>
      <point x="531.6486282348633" y="772.1617279052734" type="curve"/>
      <point x="530.176395028963" y="772.7283253030332"/>
      <point x="528.6985073528447" y="773.2737073888728"/>
      <point x="527.2150268554688" y="773.7992401123047" type="curve"/>
      <point x="526.8451169421829" y="773.9365291678556"/>
      <point x="526.4750619377975" y="774.0697638194089"/>
      <point x="526.1048202514648" y="774.1971054077148" type="curve"/>
      <point x="524.799539104392" y="774.6759557861768"/>
      <point x="523.4901017758035" y="775.1356737965946"/>
      <point x="522.1763687133789" y="775.5787506103516" type="curve"/>
      <point x="521.5987628274243" y="775.782741269242"/>
      <point x="521.0205234448271" y="775.9805690494977"/>
      <point x="520.4414520263672" y="776.1693496704102" type="curve"/>
      <point x="519.3273992818413" y="776.5583075195235"/>
      <point x="518.2103445687242" y="776.9305433801604"/>
      <point x="517.0902709960938" y="777.2895584106445" type="curve"/>
      <point x="516.2758597531309" y="777.562754782309"/>
      <point x="515.459786047648" y="777.8273821095947"/>
      <point x="514.6422424316406" y="778.0794830322266" type="curve"/>
      <point x="513.6704239900082" y="778.4009074278822"/>
      <point x="512.6963912704856" y="778.7077845961877"/>
      <point x="511.72037506103516" y="779.0058441162109" type="curve"/>
      <point x="511.16896722594214" y="779.1827756762019"/>
      <point x="510.61698375822493" y="779.352926253376"/>
      <point x="510.0644760131836" y="779.515380859375" type="curve"/>
      <point x="508.9622802734375" y="779.8545379638672" type="line"/>
      <point x="340.9011535644531" y="830.5350723266602" type="line"/>
      <point x="331.3981" y="833.40081"/>
      <point x="325.7561" y="836.94755"/>
      <point x="325.7561" y="840.80488" type="curve"/>
      <point x="325.7561" y="850.25474"/>
      <point x="359.59198" y="857.92683"/>
      <point x="401.26829" y="857.92683" type="curve" smooth="yes"/>
      <point x="442.94461" y="857.92683"/>
      <point x="476.78049" y="850.25474"/>
      <point x="476.78049" y="840.80488" type="curve"/>
      <point x="713.8536605834961" y="840.8048782348633" type="line"/>
      <point x="713.85366" y="981.09898"/>
      <point x="573.78885" y="1095.0"/>
      <point x="401.26829" y="1095.0" type="curve" smooth="yes"/>
      <point x="228.74773" y="1095.0"/>
      <point x="88.68293" y="981.09898"/>
      <point x="88.68293" y="840.80488" type="curve"/>
      <point x="88.68293" y="785.1083760428501"/>
      <point x="110.75185418260259" y="733.5521083111248"/>
      <point x="148.1665267944336" y="691.6570892333984" type="curve"/>
      <point x="102.21041826704595" y="643.0268163400752"/>
      <point x="74.63414999999998" y="580.92100008519"/>
      <point x="74.63414999999996" y="513.2926800000001" type="curve"/>
      <point x="74.63415" y="511.53648470296"/>
      <point x="74.65274618747955" y="509.7840135338777"/>
      <point x="74.68977355957031" y="508.0652618408203" type="curve"/>
      <point x="74.63415" y="510.81148877075003"/>
      <point x="74.67126222917311" y="508.33770722649666"/>
      <point x="74.74503326416016" y="506.29478454589844" type="curve"/>
      <point x="74.77537956233245" y="504.8581923121819"/>
      <point x="74.81192649259434" y="503.8452916115749"/>
      <point x="74.85465240478516" y="502.86209869384766" type="curve"/>
      <point x="74.88800420594958" y="502.0426041404119"/>
      <point x="74.9251186833767" y="501.2535566395675"/>
      <point x="74.96598815917969" y="500.7227478027344" type="curve"/>
      <point x="75.0146240863929" y="499.5285060874329"/>
      <point x="75.06855895702378" y="498.5917757010085"/>
      <point x="75.1277847290039" y="497.68406677246094" type="curve"/>
      <point x="75.17978847400677" y="496.83269688397326"/>
      <point x="75.23585268636351" y="496.0121210194792"/>
      <point x="75.29598236083984" y="495.3764114379883" type="curve"/>
      <point x="75.3618339193367" y="494.29670347569134"/>
      <point x="75.43253508706357" y="493.40033798953436"/>
      <point x="75.50809478759766" y="492.53206634521484" type="curve"/>
      <point x="75.57918490535413" y="491.6599216755626"/>
      <point x="75.65456996067151" y="490.818266659295"/>
      <point x="75.73422241210938" y="490.12044525146484" type="curve"/>
      <point x="75.8164341363942" y="489.11289986983354"/>
      <point x="75.90319670772892" y="488.2464653583894"/>
      <point x="75.99449920654297" y="487.4073791503906" type="curve"/>
      <point x="76.08519070915406" y="486.5181391365309"/>
      <point x="76.18036964729241" y="485.6593013112424"/>
      <point x="76.27998352050781" y="484.9181137084961" type="curve"/>
      <point x="76.37769581215497" y="483.9641084102767"/>
      <point x="76.47966266238606" y="483.12429550890585"/>
      <point x="76.58587646484375" y="482.31124114990234" type="curve"/>
      <point x="76.69672965973722" y="481.40640916267785"/>
      <point x="76.81222329216014" y="480.5321934261288"/>
      <point x="76.93234252929688" y="479.75719451904297" type="curve"/>
      <point x="77.04456346205683" y="478.847865494146"/>
      <point x="77.1608399338227" y="478.03321532235185"/>
      <point x="77.28113555908203" y="477.24434661865234" type="curve"/>
      <point x="77.41276306725858" y="476.3245432414407"/>
      <point x="77.54919870754578" y="475.435423244819"/>
      <point x="77.69039154052734" y="474.6324462890625" type="curve"/>
      <point x="77.81617652587906" y="473.7622192685523"/>
      <point x="77.94575039232548" y="472.9726362377859"/>
      <point x="78.07907104492188" y="472.2082061767578" type="curve"/>
      <point x="78.23223217253573" y="471.27296735311546"/>
      <point x="78.39040910956746" y="470.3683518757266"/>
      <point x="78.55355072021484" y="469.5394973754883" type="curve"/>
      <point x="78.69165397730553" y="468.7066171928602"/>
      <point x="78.83327868748206" y="467.9433381612045"/>
      <point x="78.9784164428711" y="467.20426177978516" type="curve"/>
      <point x="79.1539758172815" y="466.25282575480543"/>
      <point x="79.33473882149188" y="465.3321492756962"/>
      <point x="79.52064514160156" y="464.47930908203125" type="curve"/>
      <point x="79.66982424179632" y="463.6824618519613"/>
      <point x="79.82233669566736" y="462.94594835313956"/>
      <point x="79.97814178466797" y="462.23268127441406" type="curve"/>
      <point x="80.17701074080975" y="461.2643089589341"/>
      <point x="80.38122657160875" y="460.3271513382378"/>
      <point x="80.59081268310547" y="459.45130157470703" type="curve"/>
      <point x="80.74970859793916" y="458.6901097394117"/>
      <point x="80.91172080736928" y="457.981685534133"/>
      <point x="81.0767822265625" y="457.2956085205078" type="curve"/>
      <point x="81.29998277897396" y="456.3093756566508"/>
      <point x="81.52877737643588" y="455.3544049235192"/>
      <point x="81.76313781738281" y="454.4555969238281" type="curve"/>
      <point x="81.9303273710837" y="453.7300724127278"/>
      <point x="82.10033984354374" y="453.05116881889995"/>
      <point x="82.27320098876953" y="452.39351654052734" type="curve"/>
      <point x="82.52184323149909" y="451.3884406478483"/>
      <point x="82.77634490325924" y="450.41471856000226"/>
      <point x="83.03662872314453" y="449.49283599853516" type="curve"/>
      <point x="83.21044953718176" y="448.80388573687003"/>
      <point x="83.38691803179367" y="448.1557447496068"/>
      <point x="83.56597900390625" y="447.52793884277344" type="curve"/>
      <point x="83.84140934156947" y="446.50250199993116"/>
      <point x="84.1229472050631" y="445.5086673459669"/>
      <point x="84.41058349609375" y="444.5628128051758" type="curve"/>
      <point x="84.58925523215943" y="443.91147608197593"/>
      <point x="84.77030991413432" y="443.29616480045723"/>
      <point x="84.95368957519531" y="442.7002868652344" type="curve"/>
      <point x="85.25720710694152" y="441.6534682096008"/>
      <point x="85.56716605039519" y="440.6383229388793"/>
      <point x="85.88345336914062" y="439.6681900024414" type="curve"/>
      <point x="86.0653134200333" y="439.0549429419763"/>
      <point x="86.24923275093083" y="438.473605671519"/>
      <point x="86.43521881103516" y="437.9107208251953" type="curve"/>
      <point x="86.76837905876373" y="436.84104544419614"/>
      <point x="87.10823487782243" y="435.80344235437553"/>
      <point x="87.45477294921875" y="434.80804443359375" type="curve"/>
      <point x="87.63757702593604" y="434.2349247171092"/>
      <point x="87.82218523922825" y="433.6897995246246"/>
      <point x="88.00863647460938" y="433.16199493408203" type="curve"/>
      <point x="88.3731665297893" y="432.067794496617"/>
      <point x="88.7447903580221" y="431.00573027115445"/>
      <point x="89.12342834472656" y="429.9836120605469" type="curve"/>
      <point x="89.30490755408465" y="429.4523432002638"/>
      <point x="89.48799787533333" y="428.94531370783994"/>
      <point x="89.67266845703125" y="428.4545364379883" type="curve"/>
      <point x="90.07042583483853" y="427.3341982270257"/>
      <point x="90.47565733479409" y="426.2461915569552"/>
      <point x="90.88826751708984" y="425.19620513916016" type="curve"/>
      <point x="91.06610549085968" y="424.70825441972335"/>
      <point x="91.24524949136928" y="424.24141669531986"/>
      <point x="91.42572784423828" y="423.78968811035156" type="curve"/>
      <point x="91.85877136572876" y="422.6414094790051"/>
      <point x="92.29964271639699" y="421.52582061269163"/>
      <point x="92.74832916259766" y="420.4465026855469" type="curve"/>
      <point x="92.91978234810306" y="420.0041208187407"/>
      <point x="93.09231028448283" y="419.57977214608474"/>
      <point x="93.26591491699219" y="419.1693572998047" type="curve"/>
      <point x="93.73646393736625" y="417.9913355827081"/>
      <point x="94.21544317760936" y="416.84582171291424"/>
      <point x="94.70269012451172" y="415.7351531982422" type="curve"/>
      <point x="94.86467535393162" y="415.34096525919813"/>
      <point x="95.02765887669509" y="414.9615931601887"/>
      <point x="95.1915512084961" y="414.59471130371094" type="curve"/>
      <point x="95.70221009299122" y="413.3846340326248"/>
      <point x="96.22177776590239" y="412.2072741905861"/>
      <point x="96.75012969970703" y="411.0634994506836" type="curve"/>
      <point x="96.89962784667402" y="410.71952410207933"/>
      <point x="97.04980066496522" y="410.3879316242961"/>
      <point x="97.20064544677734" y="410.06746673583984" type="curve"/>
      <point x="97.75431691183428" y="408.822824260825"/>
      <point x="98.31743979256076" y="407.6110233967736"/>
      <point x="98.88993072509766" y="406.4317398071289" type="curve"/>
      <point x="99.023035222512" y="406.141480387242"/>
      <point x="99.15669939584892" y="405.860904409426"/>
      <point x="99.2908706665039" y="405.58985137939453" type="curve"/>
      <point x="99.8906675666465" y="404.30814536263495"/>
      <point x="100.50063820512202" y="403.05909176647003"/>
      <point x="101.12061309814453" y="401.8417053222656" type="curve"/>
      <point x="101.23349096434546" y="401.6079411605958"/>
      <point x="101.34675043329788" y="401.3814926355177"/>
      <point x="101.4603042602539" y="401.16295623779297" type="curve"/>
      <point x="102.10979170651164" y="399.8412751115452"/>
      <point x="102.77020128961301" y="398.55206499194077"/>
      <point x="103.44132995605469" y="397.29383087158203" type="curve"/>
      <point x="103.52949356481761" y="397.1201277797742"/>
      <point x="103.61777015587796" y="396.9517213142906"/>
      <point x="103.7061996459961" y="396.7893524169922" type="curve"/>
      <point x="104.40937309401953" y="395.42446722875485"/>
      <point x="105.12428480273488" y="394.0917946025482"/>
      <point x="105.8507308959961" y="392.78956604003906" type="curve"/>
      <point x="105.90907032254768" y="392.68002866615353"/>
      <point x="105.96747283986977" y="392.57355204215366"/>
      <point x="106.02599334716797" y="392.4708786010742" type="curve"/>
      <point x="106.78732775561619" y="391.0592733044994"/>
      <point x="107.56131480868785" y="389.67945448260866"/>
      <point x="108.34788513183594" y="388.32950592041016" type="curve"/>
      <point x="108.37075306759165" y="388.28852906024235"/>
      <point x="108.3935505979968" y="388.24875050306883"/>
      <point x="108.41631317138672" y="388.2105407714844" type="curve"/>
      <point x="142.46186863718046" y="328.8045691826643"/>
      <point x="199.97347855666186" y="281.2288597244112"/>
      <point x="270.45267486572266" y="254.5862579345703" type="curve"/>
      <point x="270.5292737810955" y="254.55634593037013"/>
      <point x="270.60600395071106" y="254.52732595057202"/>
      <point x="270.68289947509766" y="254.49937438964844" type="curve"/>
      <point x="272.2606578820412" y="253.8918513518327"/>
      <point x="273.845037601449" y="253.30684715198913"/>
      <point x="275.4357681274414" y="252.74394989013672" type="curve"/>
      <point x="275.67523593059815" y="252.65482755094794"/>
      <point x="275.91469656391496" y="252.56854605470824"/>
      <point x="276.1541442871094" y="252.48590087890625" type="curve"/>
      <point x="277.58729228724576" y="251.95988521898929"/>
      <point x="279.0256857801734" y="251.45441393032624"/>
      <point x="280.4692611694336" y="250.96826171875" type="curve"/>
      <point x="280.88690106010404" y="250.8203647205879"/>
      <point x="281.3048776550554" y="250.67718472209762"/>
      <point x="281.7234878540039" y="250.54025268554688" type="curve"/>
      <point x="282.9955877938121" y="250.09595050890067"/>
      <point x="284.2716049616231" y="249.67011907100178"/>
      <point x="285.5515365600586" y="249.26063537597656" type="curve"/>
      <point x="286.1673934822522" y="249.05347870307992"/>
      <point x="286.78392779181587" y="248.85316934255712"/>
      <point x="287.4014434814453" y="248.6621551513672" type="curve"/>
      <point x="288.4915597452913" y="248.3005040710049"/>
      <point x="289.58432781679426" y="247.95505384651108"/>
      <point x="290.67994689941406" y="247.6227264404297" type="curve"/>
      <point x="291.5189626284791" y="247.35520322441945"/>
      <point x="292.3594436508948" y="247.09691420624674"/>
      <point x="293.20167541503906" y="246.8511199951172" type="curve"/>
      <point x="294.3789646134584" y="246.48431368699374"/>
      <point x="295.5592215635999" y="246.13354535324007"/>
      <point x="296.7425099999999" y="245.78849000000005" type="curve"/>
      <point x="296.78917694091797" y="245.7748794555664" type="line"/>
      <point x="296.88015546811135" y="245.747188166741"/>
      <point x="296.9713298907247" y="245.72060675392052"/>
      <point x="297.0627136230469" y="245.6951141357422" type="curve"/>
      <point x="468.54186248779297" y="195.69058227539062" type="line"/>
      <point x="478.14843" y="192.88923"/>
      <point x="483.80488" y="189.4753"/>
      <point x="483.80488" y="185.78049" type="curve"/>
      <point x="483.80488" y="176.33063"/>
      <point x="446.82147" y="168.65854"/>
      <point x="401.26829" y="168.65854" type="curve" smooth="yes"/>
      <point x="355.71511" y="168.65854"/>
      <point x="318.73171" y="176.33063"/>
      <point x="318.73171" y="185.78049" type="curve"/>
    </contour>
  </outline>
</glyph>
<glyph name="diaeresis" format="2">
  <advance width="828.6148452994844"/>
  <unicode hex="00A8"/>
  <anchor x="414.3074226497422" y="1496.7911819289397" name="above" identifier="above"/>
  <outline>
    <contour>
      <point x="372.87284" y="1313.33215" type="curve" smooth="yes"/>
      <point x="372.87284" y="1395.67065"/>
      <point x="306.02442" y="1462.51907"/>
      <point x="223.68592" y="1462.51907" type="curve" smooth="yes"/>
      <point x="141.34742" y="1462.51907"/>
      <point x="74.49901" y="1395.67065"/>
      <point x="74.49901" y="1313.33215" type="curve" smooth="yes"/>
      <point x="74.49901" y="1230.99365"/>
      <point x="141.34742" y="1164.14524"/>
      <point x="223.68592" y="1164.14524" type="curve" smooth="yes"/>
      <point x="306.02442" y="1164.14524"/>
      <point x="372.87284" y="1230.99365"/>
    </contour>
    <contour>
      <point x="754.11584" y="1313.33215" type="curve" smooth="yes"/>
      <point x="754.11584" y="1395.67065"/>
      <point x="687.26742" y="1462.51907"/>
      <point x="604.92892" y="1462.51907" type="curve" smooth="yes"/>
      <point x="522.59042" y="1462.51907"/>
      <point x="455.74201" y="1395.67065"/>
      <point x="455.74201" y="1313.33215" type="curve" smooth="yes"/>
      <point x="455.74201" y="1230.99365"/>
      <point x="522.59042" y="1164.14524"/>
      <point x="604.92892" y="1164.14524" type="curve" smooth="yes"/>
      <point x="687.26742" y="1164.14524"/>
      <point x="754.11584" y="1230.99365"/>
    </contour>
  </outline>
</glyph>
<glyph name="copyright" format="2">
  <advance width="1202.9268292682927"/>
  <unicode hex="00A9"/>
  <outline>
    <contour>
      <point x="1141.46341" y="540.0" type="curve" smooth="yes"/>
      <point x="1141.46341" y="838.03411"/>
      <point x="899.49753" y="1080.0"/>
      <point x="601.46341" y="1080.0" type="curve" smooth="yes"/>
      <point x="303.4293" y="1080.0"/>
      <point x="61.46341" y="838.03411"/>
      <point x="61.46341" y="540.0" type="curve" smooth="yes"/>
      <point x="61.46341" y="241.96589"/>
      <point x="303.4293" y="0.0"/>
      <point x="601.46341" y="0.0" type="curve" smooth="yes"/>
      <point x="899.49753" y="0.0"/>
      <point x="1141.46341" y="241.96589"/>
    </contour>
    <contour>
      <point x="1022.92683" y="540.0" type="curve" smooth="yes"/>
      <point x="1022.92683" y="307.38801"/>
      <point x="834.0754" y="118.53659"/>
      <point x="601.46341" y="118.53659" type="curve" smooth="yes"/>
      <point x="368.85143" y="118.53659"/>
      <point x="180.0" y="307.38801"/>
      <point x="180.0" y="540.0" type="curve" smooth="yes"/>
      <point x="180.0" y="772.61199"/>
      <point x="368.85143" y="961.46341"/>
      <point x="601.46341" y="961.46341" type="curve" smooth="yes"/>
      <point x="834.0754" y="961.46341"/>
      <point x="1022.92683" y="772.61199"/>
    </contour>
    <contour>
      <point x="601.46341" y="395.44207" type="curve" smooth="yes"/>
      <point x="521.67972" y="395.44207"/>
      <point x="456.90549" y="460.21631"/>
      <point x="456.90549" y="540.0" type="curve" smooth="yes"/>
      <point x="456.90549" y="619.78369"/>
      <point x="521.67972" y="684.55793"/>
      <point x="601.46341" y="684.55793" type="curve" smooth="yes"/>
      <point x="660.04307" y="684.55793"/>
      <point x="710.53121" y="649.63845"/>
      <point x="733.22987" y="599.48659" type="curve"/>
      <point x="888.13201" y="599.48659" type="line"/>
      <point x="860.61406" y="732.56817"/>
      <point x="742.64331" y="832.72866"/>
      <point x="601.46341" y="832.72866" type="curve" smooth="yes"/>
      <point x="439.90207" y="832.72866"/>
      <point x="308.73476" y="701.56134"/>
      <point x="308.73476" y="540.0" type="curve" smooth="yes"/>
      <point x="308.73476" y="378.43866"/>
      <point x="439.90207" y="247.27134"/>
      <point x="601.46341" y="247.27134" type="curve" smooth="yes"/>
      <point x="742.64072" y="247.27134"/>
      <point x="860.60974" y="347.42816"/>
      <point x="888.13042" y="480.51341" type="curve"/>
      <point x="733.23306" y="480.51341" type="line"/>
      <point x="710.53588" y="430.36478"/>
      <point x="660.04579" y="395.44207"/>
    </contour>
  </outline>
</glyph>
<glyph name="ordinal_a" format="2">
  <advance width="613.3810975609756"/>
  <unicode hex="00AA"/>
  <anchor x="525.5762195121952" y="987.1463414634146" name="above" identifier="above"/>
  <anchor x="525.5762195121952" y="-105.36585365853658" name="below" identifier="below"/>
  <anchor x="982.3719512195122" y="0" name="ogonek" identifier="ogonek"/>
  <outline>
    <contour>
      <point x="381.47821044921875" y="646.1570129394531" type="line"/>
      <point x="525.5762176513672" y="646.1570129394531" type="line"/>
      <point x="525.5762176513672" y="1087.0472564697266" type="line"/>
      <point x="381.47821044921875" y="1087.0472564697266" type="line"/>
      <point x="381.47821044921875" y="1078.8994369506836" type="line"/>
      <point x="355.3910119293104" y="1089.2929730473409"/>
      <point x="326.94589607190005" y="1095.0"/>
      <point x="297.17835" y="1095.0" type="curve" smooth="yes"/>
      <point x="171.12214" y="1095.0"/>
      <point x="68.78049" y="992.65835"/>
      <point x="68.78049" y="866.60213" type="curve" smooth="yes"/>
      <point x="68.78049" y="740.54592"/>
      <point x="171.12214" y="638.20427"/>
      <point x="297.17835" y="638.20427" type="curve" smooth="yes"/>
      <point x="326.94589607190005" y="638.20427"/>
      <point x="355.3910119293104" y="643.9112969526592"/>
      <point x="381.47821044921875" y="654.291877746582" type="curve"/>
    </contour>
    <contour>
      <point x="381.47821" y="866.60213" type="curve" smooth="yes"/>
      <point x="381.47821" y="820.07578"/>
      <point x="343.70471" y="782.30228"/>
      <point x="297.17835" y="782.30228" type="curve" smooth="yes"/>
      <point x="250.652" y="782.30228"/>
      <point x="212.8785" y="820.07578"/>
      <point x="212.8785" y="866.60213" type="curve" smooth="yes"/>
      <point x="212.8785" y="913.12849"/>
      <point x="250.652" y="950.90199"/>
      <point x="297.17835" y="950.90199" type="curve" smooth="yes"/>
      <point x="343.70471" y="950.90199"/>
      <point x="381.47821" y="913.12849"/>
    </contour>
    <contour>
      <point x="68.78049" y="407.152" type="line"/>
      <point x="525.57622" y="407.152" type="line"/>
      <point x="525.57622" y="553.91159" type="line"/>
      <point x="68.78049" y="553.91159" type="line"/>
    </contour>
  </outline>
</glyph>
<glyph name="ordinalfeminine" format="2">
  <advance width="613.3810975609756"/>
  <unicode hex="00AA"/>
  <outline>
    <contour>
      <point x="374.4420700073242" y="646.1570129394531" type="line"/>
      <point x="525.5762176513672" y="646.1570129394531" type="line"/>
      <point x="525.5762176513672" y="1087.0472564697266" type="line"/>
      <point x="374.4420700073242" y="1087.0472564697266" type="line"/>
      <point x="374.4420700073242" y="1081.5744934082031" type="line"/>
      <point x="350.3061554866351" y="1090.2656479740258"/>
      <point x="324.29077391004006" y="1095.0"/>
      <point x="297.17835" y="1095.0" type="curve" smooth="yes"/>
      <point x="171.12214" y="1095.0"/>
      <point x="68.78049" y="992.65835"/>
      <point x="68.78049" y="866.60213" type="curve" smooth="yes"/>
      <point x="68.78049" y="740.54592"/>
      <point x="171.12214" y="638.20427"/>
      <point x="297.17835" y="638.20427" type="curve" smooth="yes"/>
      <point x="324.29077391004" y="638.20427"/>
      <point x="350.306155486635" y="642.9386220259742"/>
      <point x="374.4420700073242" y="651.641242980957" type="curve"/>
    </contour>
    <contour>
      <point x="374.44207" y="866.60213" type="curve" smooth="yes"/>
      <point x="374.44207" y="823.95913"/>
      <point x="339.82136" y="789.33841"/>
      <point x="297.17835" y="789.33841" type="curve" smooth="yes"/>
      <point x="254.53535" y="789.33841"/>
      <point x="219.91463" y="823.95913"/>
      <point x="219.91463" y="866.60213" type="curve" smooth="yes"/>
      <point x="219.91463" y="909.24514"/>
      <point x="254.53535" y="943.86585"/>
      <point x="297.17835" y="943.86585" type="curve" smooth="yes"/>
      <point x="339.82136" y="943.86585"/>
      <point x="374.44207" y="909.24514"/>
    </contour>
    <contour>
      <point x="68.78049" y="407.152" type="line"/>
      <point x="525.57622" y="407.152" type="line"/>
      <point x="525.57622" y="553.91159" type="line"/>
      <point x="68.78049" y="553.91159" type="line"/>
    </contour>
  </outline>
</glyph>
<glyph name="angledblleft" format="2">
  <advance width="1071.2195121951277"/>
  <unicode hex="00AB"/>
  <outline>
    <contour>
      <point x="983.4146347045898" y="223.90243530273438" type="line"/>
      <point x="796.738166809082" y="496.0975646972656" type="line"/>
      <point x="983.4146347045898" y="768.2926864624023" type="line"/>
      <point x="695.9447555541992" y="768.2926864624023" type="line"/>
      <point x="509.26829528808594" y="496.0975646972656" type="line"/>
      <point x="695.9447555541992" y="223.90243530273438" type="line"/>
    </contour>
    <contour>
      <point x="561.9512176513672" y="223.90243530273438" type="line"/>
      <point x="375.2747573852539" y="496.0975646972656" type="line"/>
      <point x="561.9512176513672" y="768.2926864624023" type="line"/>
      <point x="274.4813461303711" y="768.2926864624023" type="line"/>
      <point x="87.80487823486328" y="496.0975646972656" type="line"/>
      <point x="274.4813461303711" y="223.90243530273438" type="line"/>
    </contour>
  </outline>
</glyph>
<glyph name="angleleft_dbl" format="2">
  <advance width="1022.9750099166997"/>
  <unicode hex="00AB"/>
  <outline>
    <contour>
      <point x="455.33836364746094" y="497.1598587036133" type="line"/>
      <point x="685.3768692016602" y="173.74131774902344" type="line"/>
      <point x="948.4759979248047" y="173.74131774902344" type="line"/>
      <point x="718.4374771118164" y="497.1598587036133" type="line"/>
      <point x="948.4759979248047" y="820.5783920288086" type="line"/>
      <point x="685.3768692016602" y="820.5783920288086" type="line"/>
    </contour>
    <contour>
      <point x="74.49900817871094" y="497.1598587036133" type="line"/>
      <point x="300.59983825683594" y="178.02533721923828" type="line"/>
      <point x="563.3526382446289" y="178.02533721923828" type="line"/>
      <point x="337.2518005371094" y="497.1598587036133" type="line"/>
      <point x="563.3526382446289" y="816.2943801879883" type="line"/>
      <point x="300.59983825683594" y="816.2943801879883" type="line"/>
    </contour>
  </outline>
</glyph>
<glyph name="logicalnot" format="2">
  <advance width="971.9571598571995"/>
  <unicode hex="00AC"/>
  <outline>
    <contour>
      <point x="74.49900817871094" y="368.42523193359375" type="line"/>
      <point x="639.9888916015625" y="368.42523193359375" type="line"/>
      <point x="639.9888916015625" y="0" type="line"/>
      <point x="897.4581527709961" y="0" type="line"/>
      <point x="897.4581527709961" y="625.8944931030273" type="line"/>
      <point x="74.49900817871094" y="625.8944931030273" type="line"/>
    </contour>
  </outline>
</glyph>
<glyph name="registered" format="2">
  <advance width="1225.9188813962712"/>
  <unicode hex="00AE"/>
  <outline>
    <contour>
      <point x="1177.12396" y="544.8329" type="curve" smooth="yes"/>
      <point x="1177.12396" y="856.20377"/>
      <point x="924.33031" y="1108.99742"/>
      <point x="612.95944" y="1108.99742" type="curve" smooth="yes"/>
      <point x="301.58857" y="1108.99742"/>
      <point x="48.79492" y="856.20377"/>
      <point x="48.79492" y="544.8329" type="curve" smooth="yes"/>
      <point x="48.79492" y="233.46203"/>
      <point x="301.58857" y="-19.33161"/>
      <point x="612.95944" y="-19.33161" type="curve" smooth="yes"/>
      <point x="924.33031" y="-19.33161"/>
      <point x="1177.12396" y="233.46203"/>
    </contour>
    <contour>
      <point x="551.1201171875" y="660.5456924438477" type="line"/>
      <point x="651.7008281809083" y="660.5456924438477" type="line"/>
      <point x="687.1717885410387" y="660.5456924438477"/>
      <point x="700.64079" y="636.6522584494404"/>
      <point x="700.64079" y="617.13855" type="curve" smooth="yes"/>
      <point x="700.64079" y="597.6248307669982"/>
      <point x="687.1717736528082" y="573.7314107996981"/>
      <point x="651.7008326258018" y="573.731409852209" type="curve"/>
      <point x="551.1201171875" y="573.7314071655273" type="line"/>
    </contour>
    <contour>
      <point x="377.4833297729492" y="269.00257873535156" type="line"/>
      <point x="551.1201171875" y="269.00257873535156" type="line"/>
      <point x="551.1201171875" y="423.7533187866211" type="line"/>
      <point x="606.5116653442383" y="423.7533187866211" type="line"/>
      <point x="703.9838104248047" y="269.00257873535156" type="line"/>
      <point x="880.1218566894531" y="269.00257873535156" type="line"/>
      <point x="810.973058527793" y="202.00896689253403"/>
      <point x="716.74605912808" y="160.75383000000002"/>
      <point x="612.95944" y="160.75383000000005" type="curve" smooth="yes"/>
      <point x="400.98043" y="160.75383"/>
      <point x="228.88036" y="332.85389"/>
      <point x="228.88036" y="544.8329" type="curve" smooth="yes"/>
      <point x="228.88036" y="756.81191"/>
      <point x="400.98043" y="928.91198"/>
      <point x="612.95944" y="928.91198" type="curve" smooth="yes"/>
      <point x="824.93845" y="928.91198"/>
      <point x="997.03852" y="756.81191"/>
      <point x="997.03852" y="544.8329" type="curve" smooth="yes"/>
      <point x="997.03852" y="443.42489734313"/>
      <point x="957.6527096237666" y="351.1433567655798"/>
      <point x="893.3566360473633" y="282.47603607177734" type="curve"/>
      <point x="783.3286285400391" y="453.54198455810547" type="line"/>
      <point x="843.0869517754011" y="485.85858437030595"/>
      <point x="882.3891399999999" y="543.4405119951"/>
      <point x="882.38914" y="621.0012000000002" type="curve" smooth="yes"/>
      <point x="882.38914" y="723.8727633059316"/>
      <point x="813.6655691185515" y="820.6632294989732"/>
      <point x="637.23365" y="820.6632300640568" type="curve"/>
      <point x="377.4833297729492" y="820.6632308959961" type="line"/>
    </contour>
  </outline>
</glyph>
<glyph name="macron" format="2">
  <advance width="785.8536585365853"/>
  <unicode hex="00AF"/>
  <outline>
    <contour>
      <point x="87.80488" y="1214.44599" type="line"/>
      <point x="698.04878" y="1214.44599" type="line"/>
      <point x="698.04878" y="1380.39721" type="line"/>
      <point x="87.80488" y="1380.39721" type="line"/>
    </contour>
  </outline>
</glyph>
<glyph name="degree" format="2">
  <advance width="703.0662020905924"/>
  <unicode hex="00B0"/>
  <outline>
    <contour>
      <point x="641.602787456446" y="804.9303135888501" type="curve" smooth="yes"/>
      <point x="641.602787456446" y="965.0241303658536"/>
      <point x="511.6269178222996" y="1095.0"/>
      <point x="351.5331010452961" y="1095.0" type="curve" smooth="yes"/>
      <point x="191.43928426829268" y="1095.0"/>
      <point x="61.46341463414634" y="965.0241303658536"/>
      <point x="61.46341463414634" y="804.9303135888501" type="curve" smooth="yes"/>
      <point x="61.46341463414634" y="644.8364968118467"/>
      <point x="191.43928426829265" y="514.8606271777004"/>
      <point x="351.53310104529606" y="514.8606271777004" type="curve" smooth="yes"/>
      <point x="511.6269178222995" y="514.8606271777003"/>
      <point x="641.6027874564459" y="644.8364968118467"/>
    </contour>
    <contour>
      <point x="404.5296167247386" y="804.9303135888501" type="curve" smooth="yes"/>
      <point x="404.5296167247386" y="775.6807405777004"/>
      <point x="380.78267405644596" y="751.9337979094076"/>
      <point x="351.5331010452961" y="751.9337979094078" type="curve" smooth="yes"/>
      <point x="322.2835280341463" y="751.9337979094078"/>
      <point x="298.5365853658536" y="775.6807405777004"/>
      <point x="298.5365853658536" y="804.9303135888501" type="curve" smooth="yes"/>
      <point x="298.5365853658536" y="834.1798866"/>
      <point x="322.2835280341463" y="857.9268292682926"/>
      <point x="351.5331010452961" y="857.9268292682926" type="curve" smooth="yes"/>
      <point x="380.78267405644596" y="857.9268292682926"/>
      <point x="404.5296167247386" y="834.1798865999999"/>
    </contour>
  </outline>
</glyph>
<glyph name="plusminus" format="2">
  <advance width="913.1707317073171"/>
  <unicode hex="00B1"/>
  <outline>
    <contour>
      <point x="338.0487823486328" y="250.24390411376953" type="line"/>
      <point x="575.1219482421875" y="250.24390411376953" type="line"/>
      <point x="575.1219482421875" y="500.48780822753906" type="line"/>
      <point x="825.365852355957" y="500.48780822753906" type="line"/>
      <point x="825.365852355957" y="737.5609741210938" type="line"/>
      <point x="575.1219482421875" y="737.5609741210938" type="line"/>
      <point x="575.1219482421875" y="987.8048782348633" type="line"/>
      <point x="338.0487823486328" y="987.8048782348633" type="line"/>
      <point x="338.0487823486328" y="737.5609741210938" type="line"/>
      <point x="87.80487823486328" y="737.5609741210938" type="line"/>
      <point x="87.80487823486328" y="500.48780822753906" type="line"/>
      <point x="338.0487823486328" y="500.48780822753906" type="line"/>
    </contour>
    <contour>
      <point x="87.8048780487805" y="4.390243902439025" type="line"/>
      <point x="825.3658536585367" y="4.390243902439025" type="line"/>
      <point x="825.3658536585367" y="241.46341463414635" type="line"/>
      <point x="87.8048780487805" y="241.46341463414635" type="line"/>
    </contour>
  </outline>
</glyph>
